<?xml version="1.0" standalone="no"?>
<!DOCTYPE svg PUBLIC "-//W3C//DTD SVG 1.1//EN" "http://www.w3.org/Graphics/SVG/1.1/DTD/svg11.dtd" >
<!--
2013-9-30: Created.
-->
<svg>
<metadata>
Created by iconfont
</metadata>
<defs>

<font id="iconfont" horiz-adv-x="1024" >
  <font-face
    font-family="iconfont"
    font-weight="500"
    font-stretch="normal"
    units-per-em="1024"
    ascent="896"
    descent="-128"
  />
    <missing-glyph />
    
    <glyph glyph-name="fanhui" unicode="&#58939;" d="M781.42577778 784.49777778L373.64622222 384l407.77955556-400.49777778c21.84533333-21.84533333 21.84533333-65.536 0-87.38133333-21.84533333-21.84533333-65.536-21.84533333-87.38133333 0L249.856 333.02755555c0 0-7.28177778 0-7.28177778 7.28177778C228.01066667 347.59111111000004 220.72888889 369.43644444999995 220.72888889 384c0 14.56355555 7.28177778 36.40888889 21.84533333 43.69066667 0 0 7.28177778 0 7.28177778 7.28177778l444.18844445 444.18844444c21.84533333 21.84533333 65.536 21.84533333 87.38133333 0C810.55288889 850.03377778 810.55288889 813.62488889 781.42577778 784.49777778z"  horiz-adv-x="1024" />

    
    <glyph glyph-name="esc" unicode="&#58887;" d="M589.52623263 388.35166254l415.66189114 415.66189114c20.76183739 20.72640742 20.76183739 54.42010491 0 75.14651074-20.76183739 20.76183739-54.38467492 20.76183739-75.14651072 0L514.37972194 463.49817327 98.71783079 879.16006442c-20.76183739 20.76183739-54.38467492 20.76183739-75.14651073 0-20.76183739-20.72640742-20.76183739-54.42010491 0-75.14651074L439.23321118 388.35166254 23.57132006-27.274798639999972c-20.76183739-20.76183739-20.76183739-54.38467492 0-75.14651071 10.38091868-10.38091868 23.9859449-15.55366306 37.59097113-15.55366306s27.21005244 5.17274436 37.59097112 15.55366306L514.37972194 313.20515183l415.66189111-415.66189116c10.38091868-10.38091868 23.9859449-15.55366306 37.59097116-15.55366302s27.21005244 5.17274436 37.59097112 15.55366302c20.76183739 20.76183739 20.76183739 54.38467492 0 75.14651074L589.52623263 388.35166254z"  horiz-adv-x="1024" />

    
    <glyph glyph-name="jia1" unicode="&#58915;" d="M551.60842239 353.53224049999994l432.50292487-1.12463012c20.45139302-0.05316854 37.03188543 16.42445432 37.08505397 36.87584734 0.0520127 20.50456155-16.42445432 37.03304127-36.87584734 37.08620981l-432.58152185 1.15005855 0.65420417 430.62006518c0.02542843 20.37395189-16.47762286 36.98102857-36.92901587 37.03419712-20.42596459 0.02542843-37.00761284-16.50305129-37.06078137-36.95560015l-0.65189249-430.51488396-432.26713397 1.1512144c-20.45254886 0.0520127-37.03304127-16.42445432-37.08620981-36.87584734-0.02542843-10.22800818 4.10553566-19.53712536 10.82788797-26.25947766 6.66802794-6.66918378 15.87427556-10.8013037 26.04911521-10.82673214l432.37115936-1.1512144-0.65304833-434.54297848c-0.02658427-10.22454067 4.1066915-19.48280099 10.82788798-26.20399746 6.69576805-6.69576805 15.92744409-10.80245954 26.10228374-10.82904381 20.42596459-0.02542843 36.98102857 16.47762286 37.03304127 36.92901588L551.60842239 353.53224049999994 551.60842239 353.53224049999994z"  horiz-adv-x="1024" />

    
    <glyph glyph-name="nvxing" unicode="&#59240;" d="M512 890.35600303c274.42890401 0 496.91115747-226.70931721 496.91115747-506.35600303s-222.48225346-506.35600303-496.91115747-506.35600303c-274.46192794 0-496.91115747 226.70931721-496.91115747 506.35600303s222.44922953 506.35600303 496.91115747 506.35600303l0 0 0 0zM600.3720514 673.4217707299999c36.12818544 4.85451852 78.86115797-10.63370724 108.78084353-29.02803931 28.96199144-17.43663795 49.89916654-40.68548854 66.01484707-73.57732829 11.42628168-22.75349156 18.52642781-46.46467725 21.36648627-72.61963418 5.21778181-51.8145548-24.70190376-110.82832754-48.44611337-137.47864348-15.68636936-17.40361401-31.37273872-29.0280393-52.73922501-40.15710556-20.44181608-10.63370724-44.6483608-18.85666717-71.23262887-21.33346234-41.77527841-4.32613555-89.32974552 14.06819652-122.55182464 38.73707634-13.7709811 9.6760131-24.23956866 20.34274427-34.67513227 34.87327589-20.90415117 29.52339834-34.67513227 62.4152381-38.47288486 101.61464954-5.18475787 48.41308944 19.48412195 103.13375056 47.52144318 137.47864348 12.35095187 14.49750769 32.29740891 29.0280393 52.739225 40.19012951 21.36648627 11.12906626 44.1860257 17.93199697 71.69496397 21.3004384l0 0 0 0zM215.61017889 330.73239204000004c0-6.83595465-0.4623351-17.89897304 0.46233509-24.23956865 0.49535903-8.22295994 4.78847064-11.12906626 8.0908642-15.0589146l46.06839003-47.38934744c4.26008768-4.32613555 7.56248123-8.22295994 11.85559284-12.08676039 4.26008768-4.39218343 9.97322853-8.71831897 11.85559284-12.1858322-1.88236432-3.33541749-15.68636936-16.97430285-19.94645704-20.77205543l-51.28617183-52.24386596c-1.88236432-1.94841219-2.87308239-3.00517813-4.26008768-5.31685362-2.37772336-2.93913026-1.88236432-4.85451852-3.30239355-7.26526581l0-27.11265105c6.63781104-11.12906626-0.95769413-2.90610632 12.81328698-16.97430284 6.63781104-6.76990677 9.51089342-8.22295994 22.35720433-8.22295994 24.66887982 0 19.94645704-0.4623351 39.89291408 19.84738523 9.51089342 9.14763013 17.10639859 17.40361401 29.91968557 29.91968557 5.21778181 5.31685362 9.51089342 9.64298917 14.72867523 15.09193852 4.75544671 5.25080574 10.46858755 10.56765936 14.72867523 15.48822575l40.38827311-41.14782364c4.26008768-4.39218343 31.33971479-32.9248637 35.63282642-35.83097001 2.84005845-2.4107473 4.75544671-2.4107473 7.10014612-3.92984832l27.04660317 0 5.25080575 2.41074728c1.88236432 0.95769413 3.30239355 2.34469942 4.26008768 2.90610634 12.35095187 11.12906626 15.68636936 15.09193852 15.68636937 30.48109246 0 26.15495691 0 20.40879214-19.94645705 41.14782363-15.22403427 16.01660872-39.43057899 42.10551777-55.11694834 57.16443235-0.95769413 0.95769413-0.95769413 0.95769413-1.91538827 1.9484122-1.88236432 1.42002923-0.95769413 0-1.88236432 2.34469941 2.37772336 3.33541749 8.5531993 9.21367801 11.85559285 12.58211943 4.26008768 4.32613555 8.09086419 8.25598388 12.38397581 13.1105024l25.16423884 24.66887982c8.5531993-5.31685362 16.14870446-11.52535349 26.15495693-17.40361401 30.87737969-17.40361401 63.67014765-28.56570421 100.68997933-31.93414564 67.43487629-5.81221265 122.08948954 5.87826052 177.2064379 42.63390074 21.36648627 14.53053162 51.28617183 44.48324112 66.93951726 66.34508642 47.98377829 66.80742152 44.61533686 124.89652406 47.52144318 132.16178987l0 44.51626506c-0.95769413 3.36844142-1.88236432 22.29115646-2.87308239 28.07034517-8.61924717 56.63604938-35.17049131 102.1430325-72.15729907 140.38474981-38.01054976 39.19941143-81.70121643 65.35436836-137.74283496 74.53502242-4.78847064 0.95769413-23.74420963 2.4107473-26.61729202 3.40146536l-46.06839002 0c-4.26008768-1.94841219-15.19101033-1.94841219-20.50786395-2.41074729-38.47288486-5.81221265-79.35651701-22.29115646-108.7478196-45.47395918-6.67083497-4.85451852-18.98876291-14.53053162-24.27259259-20.80507937-3.30239355-3.89682439-7.10014613-7.26526581-10.93092265-11.12906627-19.9134331-20.34274427-33.25510305-37.74635828-46.53072512-63.90131519-32.75974402-63.40595617-36.55749659-153.46222827-9.47786949-224.13345024 11.39325775-30.48109247 30.41504459-54.65461325 31.33971479-57.09838448l-49.37078357-50.3284777c-3.30239355 1.91538826-11.39325775 12.08676039-15.19101033 14.99286672-6.17547594 5.31685362-38.01054976 38.73707634-44.6483608 46.00234215-19.48412195 19.8143613-14.72867523 18.85666717-41.31294331 18.85666717-13.308646 0-14.76169917-2.90610632-21.39951021-9.21367801-5.18475787-5.31685362-9.01553439-7.7276009-11.85559284-17.403614l0 0 0 0z"  horiz-adv-x="1024" />

    
    <glyph glyph-name="nanxing" unicode="&#59242;" d="M512 895.68933636c274.42890401 0 496.91115747-226.70931721 496.91115747-506.35600303s-222.48225346-506.35600303-496.91115747-506.35600303-496.91115747 226.70931721-496.91115747 506.35600303 222.48225346 506.35600303 496.91115747 506.35600303l0 0 0 0zM403.94568305 473.51134492c23.74420963 2.4107473 57.46164777-7.26526581 75.98807558-15.48822575 10.93092265-4.85451852 21.36648627-10.17137213 30.38202066-15.98358478 16.14870446-10.66673116 25.19726279-17.93199697 37.54821467-32.4625286 26.15495691-30.48109247 43.69066667-74.53502243 47.05910808-116.64054019 1.88236432-25.19726279-6.67083497-57.13140842-15.1579864-77.47415267-17.66780549-44.02090603-46.13443789-75.59178836-89.32974552-97.32153792-20.87112723-10.1383482-45.57303099-17.89897304-72.19032301-19.81436131-39.39755505-3.36844142-90.25441573 16.41289594-121.59413051 41.14782364-40.81758427 32.42950466-66.01484707 84.70639455-70.77029377 139.88939078-2.87308239 34.41094079 13.308646 79.88489997 31.33971479 108.41758024 2.87308239 4.85451852 6.17547594 9.21367801 9.51089343 13.53981355 2.84005845 4.35915949 7.10014613 9.6760131 10.46858755 13.07747847 16.61103955 16.94127891 31.33971479 28.07034517 53.66389518 39.19941143 22.68744369 11.1620902 45.01162409 17.43663795 73.04894533 19.84738524l0 0 0 0zM613.87884102 553.36322095c-1.88236432-3.40146536-9.01553439-10.17137213-12.38397581-13.07747845-4.72242278-4.85451852-33.71743814-35.30258705-36.59052053-36.78866414-3.79775258 1.94841219-8.98251046 6.30757168-13.30864602 9.21367799-29.45735047 19.3520262-60.79706525 31.47181053-95.93453262 36.78866415l-19.48412195 2.87308239c-3.33541749-0.95769413-27.04660317 0-32.79276795 0-10.43556362 0-20.87112723-0.4623351-31.33971479-1.94841219-18.98876291-2.4107473-36.55749659-6.76990677-53.20156009-12.58211942-34.17977325-12.58211943-60.33473016-30.97645149-81.70121643-50.82383674-52.73922499-48.90844848-81.20585739-98.74156715-87.87669236-177.63574906-1.88236432-45.01162409 0-79.35651701 14.69565129-119.08431141 9.54391736-27.04660317 29.4903744-61.91987906 49.89916655-82.7910063 26.15495691-25.62657395 36.55749659-39.1663875 73.14801713-59.07982061 14.72867523-8.22295994 29.45735047-14.10122046 46.53072512-19.35202621 9.01553439-2.9721542 18.03106878-4.92056639 27.04660317-6.30757167 6.17547594-0.95769413 25.65959789-2.37772336 28.96199144-3.33541749l44.1860257 0c3.79775258 1.38700529 15.19101033 1.94841219 20.40879214 2.37772336 6.17547594 0.95769413 12.38397581 1.94841219 18.55945175 3.33541748 11.39325775 2.34469942 23.74420963 6.27454775 34.17977324 10.56765936 25.65959789 10.20439607 61.75475939 31.53785841 80.74352229 52.27688991 3.79775258 3.92984832 7.6285291 7.79364878 11.42628168 11.59140135 10.93092265 11.12906626 21.39951021 22.72046763 30.41504461 36.29330511 34.67513227 53.69691912 47.48841925 108.87991535 41.7752784 180.50883145-2.34469942 27.07962711-8.5531993 50.36150163-17.60175762 72.61963416-3.79775258 10.63370724-9.01553439 20.80507937-14.2333162 30.01875737-2.87308239 4.85451852-5.71314085 9.6760131-9.01553439 14.0351726-2.31167549 3.86380045-7.03409827 10.17137213-8.55319929 13.57283748 8.02481633 9.21367801 17.99804485 17.93199697 27.04660317 27.11265104l54.19227815 55.18299623c4.78847064 4.85451852 8.98251046 8.71831897 13.77098111 13.57283749 2.84005845 3.40146536 9.97322853 11.6244253 13.308646 13.07747846 0-12.11978433-0.95769413-95.86848475 0.95769413-101.15231444 1.38700529-4.35915949 9.01553439-11.12906626 11.45930562-14.03517259 6.67083497-6.30757168 9.51089342-4.85451852 20.44181608-4.85451852 26.58426808 0 24.23956866-2.4107473 38.47288486 12.11978433 6.142452 6.30757168 4.75544671 9.18065407 4.75544671 20.30972034l0.95769412 173.27658956 0 29.4903744c-5.25080574 9.21367801-2.87308239 5.84523658-11.88861678 15.02589066-6.67083497 6.76990677-9.94020459 5.31685362-20.90415117 5.31685361l-130.64268883 0c-4.72242278 0-21.82882136-0.49535903-24.66887982 0.49535904l-41.77527841 0c-4.26008768-2.4107473-4.75544671-1.94841219-8.55319929-5.31685362-12.81328698-13.07747846-12.81328698-11.6244253-12.81328698-28.07034517 0-22.25813253-3.30239355-25.16423885 14.2333162-40.6524646 6.67083497-5.81221265 12.81328698-4.35915949 22.75349156-4.35915949l27.04660317 0c17.60175762 0 35.59980247 0 53.23458403-0.4623351-1.42002923-2.90610632-24.70190376-25.65959789-29.4903744-30.01875737l-22.35720434-22.75349156c-1.38700529-1.45305317-2.34469942-2.4107473-3.79775257-3.86380045-0.95769413-0.49535903-1.42002923-1.45305317-1.91538826-1.9484122-1.32095742-0.75955052-0.36326329-0.26419148-1.75026859-0.75955052l0 0 0 0z"  horiz-adv-x="1024" />

    
    <glyph glyph-name="xinlang" unicode="&#58880;" d="M897.48024889 374.69809778c-47.72636445 9.87363555-24.68636445 34.56-24.68636444 34.56s46.08113778 75.70318222-9.87363556 131.65909333c-69.12113778 69.12113778-235.34023111-8.22954667-235.34023111-8.22954667-64.18318222-19.74954667-46.08113778 8.22954667-37.85159111 57.60113778 0 57.60113778-19.74954667 154.69909333-189.26023112 97.09795556-166.21909333-59.24636445-311.04455111-261.67296-311.0445511-261.67296-102.03591111-134.95068445-88.87068445-238.63296-88.87068445-238.63296 24.68636445-230.40341333 269.90136889-292.94136889 459.16046222-307.75296 200.78023111-16.45681778 469.03523555 69.12113778 551.3216 243.56864 83.93272889 172.80227555-65.82954667 241.92341333-113.55591111 251.79818666M476.17137778-56.48554666999996c-199.13386667-8.22954667-358.77091555 90.51477333-358.77091556 223.82023111s159.63591111 238.63296 358.77091556 248.50545778c197.48750222 8.22954667 358.77091555-74.05795555 358.77091555-205.71704889 0-133.30432-161.28227555-256.73500445-358.77091555-266.60864zM436.67456 326.97173333c-199.13386667-23.04-176.09386667-210.65386667-176.09386667-210.65386667s-1.64636445-59.24636445 54.30954667-88.87068444c116.84636445-62.53795555 236.98545778-24.68636445 297.87818667 54.30954666 59.24636445 77.35068445 23.04 268.25500445-176.09386667 245.21500445M385.65660445 65.29877333000002c-37.85159111-4.93681778-67.47477333 16.45681778-67.47477334 47.72636445s26.33159111 64.18318222 64.18318222 67.47477333c42.78954667 3.29045333 70.76750222-21.39477333 70.76750222-51.01795556 0-31.26954667-29.62318222-60.89159111-67.47477333-64.18318222M502.50410667 165.68945778c-13.16636445-9.87363555-27.97795555-8.22954667-34.56 3.29045333s-4.93681778 27.97795555 8.22954666 37.85159111c14.81159111 11.52 29.62318222 8.22954667 36.20636445-3.29045334 8.22954667-11.52 3.29045333-27.97795555-9.87363556-37.8515911zM1187.13002667 478.37923555c1.64636445 3.29045333 1.64636445 8.22954667 1.64636444 11.52 3.29045333 18.10318222 4.93681778 36.20636445 4.93681778 54.30954667 0 197.48750222-161.28227555 357.12568889-358.77091556 357.12568889-27.97795555 0-49.37159111-21.39477333-49.37159111-49.37159111 0-27.97795555 21.39477333-49.37159111 49.37159111-49.37159112 143.17909333 0 258.38136889-115.20227555 258.38136889-258.38136888 0-16.45681778-1.64636445-31.26954667-4.93681777-47.72636445v0c0-1.64636445 0-3.29045333 0-4.93681777 0-27.97795555 21.39477333-49.37159111 49.3715911-49.37159112 24.68636445 0 44.43477333 14.81159111 49.37159112 36.20636445v0c0 0 0 0 0 0zM1032.43093333 526.1056c0 6.58318222 1.64636445 11.52 1.64636445 18.10318222 0 108.61909333-88.87068445 197.48750222-197.48750223 197.48750222-23.04 0-41.14318222-18.10318222-41.14318222-41.14318222 0-23.04 18.10318222-41.14318222 41.14318222-41.14318222 64.18318222 0 115.20227555-51.01795555 115.20227556-115.20227556 0-4.93681778 0-9.87363555-1.64636444-14.81159111h1.64636444c0-1.64636445-1.64636445-3.29045333-1.64636444-4.93681778 0-23.04 18.10318222-41.14318222 41.14318222-41.14318222 21.39477333 0 37.85159111 16.45681778 39.49795556 36.20636445v0c0 1.64636445 0 1.64636445 0 3.29045333 1.64636445 0 1.64636445 0 1.64636444 3.29045333 0-1.64636445 0-1.64636445 0 0z"  horiz-adv-x="1194" />

    
    <glyph glyph-name="zhishi" unicode="&#59001;" d="M804.096 383.556267L557.294933 261.802667a102.417067 102.417067 0 0 0-45.294933-10.496 102.690133 102.690133 0 0 0-45.346133 10.496l-246.766934 121.736533c-22.664533 11.195733-49.220267-5.307733-49.220266-30.6176V63.829333c0-84.8384 152.814933-153.6 341.333333-153.6s341.333333 68.7616 341.333333 153.6V352.938667c0 25.2928-26.555733 41.796267-49.237333 30.6176zM1003.4688 619.246933L527.104 854.254933a34.167467 34.167467 0 0 1-30.208 0L20.5312 619.246933c-25.378133-12.526933-25.378133-48.708267 0-61.218133l29.5936-14.609067v-211.848533a25.6 25.6 0 1 1 51.2 0V518.161067l395.5712-195.140267a34.167467 34.167467 0 0 1 30.208 0l476.3648 235.008c25.378133 12.509867 25.378133 48.6912 0 61.218133zM75.741867 254.7712a25.6 25.6 0 0 1-25.6-25.6v-34.133333a25.6 25.6 0 1 1 51.2 0v34.133333a25.6 25.6 0 0 1-25.6 25.6z"  horiz-adv-x="1024" />

    
    <glyph glyph-name="xiangji" unicode="&#59015;" d="M512 315.733333m-102.4 0a102.4 102.4 0 1 1 204.8 0 102.4 102.4 0 1 1-204.8 0ZM948.90666667 675.27111148h-141.84903147a72.81777813 72.81777813 0 0 0-66.1549504 42.3981504l-27.98023147 60.83925333A72.81777813 72.81777813 0 0 1 646.76750187 820.90666668H387.37237333a72.78136853 72.78136853 0 0 1-66.15495146-42.39815147l-27.9802304-60.83925333A72.81777813 72.81777813 0 0 0 227.08224 675.27111148H75.09333333c-40.04977813 0-72.81777813-32.768-72.81777813-72.81777814v-582.54222186c0-40.04977813 32.768-72.81777813 72.81777813-72.81777814h873.81333334c40.04977813 0 72.81777813 32.768 72.81777813 72.81777814V602.45333334c0 40.04977813-32.768 72.81777813-72.81777813 72.81777814zM257.13777813 493.22666668h-109.22666666a36.40888853 36.40888853 0 0 0 0 72.81777813h109.22666666a36.40888853 36.40888853 0 0 0 0-72.81777813z m254.86222187-364.08888854c-100.37930667 0-182.0444448 81.66513813-182.0444448 182.04444374s81.66513813 182.02624 182.0444448 182.02624S694.0444448 411.56152854 694.0444448 311.18222188000004s-81.66513813-182.0444448-182.0444448-182.04444374z"  horiz-adv-x="1024" />

    
    <glyph glyph-name="2" unicode="&#59052;" d="M508.65992691 620.0466014900001c228.48600494 0 413.86388543-150.55480098 413.86388544-336.32104296S737.27538568-52.59548443999995 508.65992691-52.59548443999995 94.79604148 97.95931654000003 94.79604148 283.72555852999994s185.3778805 336.32104297 413.86388543 336.32104296zM950.22693136 672.21649384c-42.97867061 0-77.54284247-34.69362569-77.54284248-77.54284247 0-20.58315852 8.02613728-39.22450963 20.97152-53.20552297L710.09008197 375.89668348 576.23482469 643.99555951c23.04278124 19.02971259 37.6710637 47.76846222 37.6710637 79.87301136 0 57.08913778-46.34447013 103.56306173-103.56306173 103.56306173-57.08913778 0-103.56306173-46.34447013-103.56306172-103.56306173 0-32.10454914 14.7577363-60.84329876 37.80051753-79.87301136L310.85447902 375.89668348 127.28895209 541.33867458c12.94538272 13.8515595 20.97152 32.62236445 20.97152 53.20552296 0 42.8492168-34.69362569 77.54284247-77.54284246 77.54284247S-6.82521284 637.2639605100001-6.82521284 594.54419754c0-38.5772405 28.0914805-70.42288197 64.85636741-76.50721184l62.39674468-466.16323161c0 1.81235358-0.12945383 3.62470717-0.38836147 5.69596839 3.88361482-33.78744889 26.53803457-61.62002173 57.34804542-73.27086617-2.71853037 1.03563061-5.43706075 1.81235358-8.02613728 2.20071506 64.98582124-24.3373195 192.62729482-40.13068642 339.8162963-38.83614816 147.83627061 1.29453827 276.77228247 19.5475279 342.53482666 45.30883952-2.45962272-0.38836148-5.04869925-1.16508445-7.76722963-2.20071507 30.68055703 11.65084445 53.3349768 39.61287111 57.34804544 73.27086618-0.38836148-3.88361482-0.64726914-7.63777581-0.25890766-11.00357531l62.26729087 464.86869333c36.76488691 6.08432987 64.85636741 37.92997136 64.8563674 76.50721185-0.12945383 42.97867061-34.95253333 77.80175013-77.93120394 77.80175013zM350.3378963 196.99149432000002l155.34459258 155.3445926 155.3445926-155.3445926-155.3445926-155.34459258-155.34459258 155.34459258z"  horiz-adv-x="1024" />

    
    <glyph glyph-name="3" unicode="&#59053;" d="M508.67331778 622.63030784C736.9358171 622.63030784 921.89823868 472.30794844 921.89823868 286.82851100000005S736.9358171-48.97328580999999 508.67331778-48.97328580999999 95.4483969 101.34907357999998 95.4483969 286.82851100000005 280.54007243 622.63030784 508.67331778 622.63030784zM949.55858684 671.74681394c-42.91231583 0-77.42312406-34.64006219-77.42312407-77.42312407 0-20.55138018 8.01374574-39.1639509 20.93914207-53.12337894L709.79248478 375.88449177999996 576.14388667 643.5694499c23.00720548 19.00033261 37.61290334 47.69471248 37.61290333 79.74969541 0 57.00099784-46.2729189 103.40317069-103.40317069 103.40317069-57.00099784 0-103.40317069-46.2729189-103.4031707-103.40317069 0-32.05498292 14.73495182-60.74936278 37.74215731-79.74969541L311.17326176 375.88449177999996 127.89114171 541.0710569600001c12.92539634 13.83017407 20.93914206 32.57199877 20.93914206 53.12337894 0 42.78306188-34.64006219 77.42312406-77.42312406 77.42312405S-6.01596435 636.84824382-6.01596435 594.1944358999999c0-38.5176811 28.04811006-70.31415607 64.75623566-76.38909235l62.30041033-465.44352208c0 1.80955549-0.12925397 3.61911098-0.38776188 5.68717438 3.87761891-33.73528444 26.49706249-61.52488656 57.25950576-73.15774326-2.71433323 1.03403171-5.42866647 1.80955549-8.01374573 2.19731738 64.88548962-24.2997451 192.3298975-40.06872865 339.29165385-38.77618902 147.60802616 1.29253963 276.34497369 19.51734847 342.00598707 45.23888718-2.45582531-0.38776189-5.04090455-1.16328568-7.7552378-2.19731739 30.63318932 11.63285671 53.25263292 39.55171279 57.25950576 73.15774328-0.38776189-3.87761891-0.64626983-7.62598385-0.25850792-10.98658688l62.17115639 464.15098245c36.70812559 6.07493627 64.75623565 37.87141127 64.75623564 76.38909235-0.12925397 42.91231583-34.89857011 77.681632-77.81088594 77.681632zM350.59572059 197.25551439000003l155.10475603 155.10475606 155.10475605-155.10475606-155.10475605-155.10475602-155.10475603 155.10475602z"  horiz-adv-x="1024" />

    
    <glyph glyph-name="1" unicode="&#59054;" d="M508.60690989 632.13465946c232.11276692 0 420.43315345-152.94455973 420.43315346-341.65947222S740.85118546-51.184284960000014 508.60690989-51.184284960000014 88.17375643 101.76027476000002 88.17375643 290.47518723999997s188.32038654 341.65947222 420.43315346 341.65947222zM948.3624712 675.14268469c-42.88121331 0-77.36700836-34.61495534-77.36700837-77.36700836 0-20.53648469 8.00793743-39.13556517 20.92396553-53.08487553L708.77014981 379.49480134 575.21841919 646.9857434099999c22.99053003 18.98656131 37.58564178 47.66014372 37.58564179 79.69189342 0 56.95968395-46.23938063 103.32822485-103.32822485 103.32822485-56.95968395 0-103.32822485-46.23938063-103.32822485-103.32822485 0-32.03174971 14.72427204-60.70533209 37.71480207-79.69189342L310.43984302 379.49480134 127.29056445 544.56164053c12.9160281 13.82015006 20.92396553 32.54839084 20.92396553 53.08487551 0 42.75205304-34.61495534 77.36700836-77.36700835 77.36700837S-6.51948673 640.2694088000001-6.51948673 597.64651604c0-38.48976377 28.027781-70.2631929 64.70930082-76.3337261l62.25525546-465.10617213c0 1.80824393-0.12916028 3.61648788-0.38748084 5.68305237 3.87480844-33.71083336 26.47785763-61.48029379 57.2180045-73.10471908-2.7123659 1.03328225-5.42473181 1.80824393-8.00793742 2.19572477 64.8384611-24.28213284 192.19049823-40.03968713 339.0457378-38.74808433 147.50104098 1.29160281 276.14468092 19.50320244 341.75810371 45.20609838-2.45404536-0.38748084-5.03725096-1.16244253-7.74961687-2.19572478 30.61098661 11.62442531 53.21403581 39.523046 57.21800452 73.1047191-0.38748084-3.87480844-0.64580141-7.62045659-0.25832057-10.9786239l62.1260952 463.81456931c36.68151982 6.0705332 64.70930082 37.84396235 64.70930082 76.33372611-0.12916028 42.88121331-34.87327589 77.62532892-77.7544892 77.62532893zM350.33789631 212.99149431l155.34459258 155.3445926 155.3445926-155.3445926-155.3445926-155.34459258-155.34459258 155.34459258z"  horiz-adv-x="1024" />

    
    <glyph glyph-name="iconlinemail" unicode="&#58906;" d="M928.1015873 800.1015873H95.8984127c-50.85686031 0-92.46701904-41.61015873-92.46701904-92.46701904v-647.26913652c0-50.85686031 41.61015873-92.46701904 92.46701904-92.46701904h832.2031746c50.85686031 0 92.46701904 41.61015873 92.46701904 92.46701904V707.63456826c0 50.85686031-41.61015873 92.46701904-92.46701904 92.46701904z m0-92.46701904v-23.11675557l-416.1015873-291.27111111-416.1015873 291.27111111V707.63456826h832.2031746zM95.8984127 60.36543173999996V573.55738941l388.36148148-272.77770687c9.24670158-4.62335133 18.49340424-9.24670158 27.74010582-9.24670158s18.49340424 4.62335133 27.74010582 9.24670158L928.1015873 573.55738941V60.36543173999996H95.8984127z"  horiz-adv-x="1024" />

    
    <glyph glyph-name="iconlinehome" unicode="&#58908;" d="M515.84479163 896.24906214L52.79479127 525.8090625v-555.66000001c0-50.93549965 37.04399964-92.60999964 83.349-92.60999963h759.40200071c46.30500037 0 83.349 41.6745 83.34900001 92.60999963V525.8090625L515.84479163 896.24906214z m-92.60999964-926.09999965v370.43999966h185.21999928v-370.43999966h-185.21999928z m463.04999928 0h-185.21999928v370.43999966c0 50.93549965-41.6745 92.60999964-92.61000072 92.61000071h-185.21999928c-50.93549965 0-92.60999964-41.6745-92.61000072-92.61000071v-370.43999966H145.40479198V479.50406214l370.43999965 296.35200036 370.43999964-296.35200036v-509.35499965z"  horiz-adv-x="1024" />

    
    <glyph glyph-name="iconlinesearch" unicode="&#58909;" d="M1009.47951432-31.781439360000036L821.75365124 155.94442255c60.88406357 76.10507948 101.4734389 177.5785184 101.47343888 284.12563082 0 253.68359786-202.94687899 456.63047686-456.63047683 456.63047684s-456.63047686-202.94687899-456.63047684-456.63047684 202.94687899-456.63047686 456.63047684-456.63047683c106.54711127 0 208.02055017 35.51570415 284.12563082 101.47343888l187.72586191-187.72586308c10.14734353-10.14734353 25.36835942-15.2210159 35.51570417-15.22101589s25.36835942 5.07367235 35.51570413 15.22101589c20.29468827 20.29468827 20.29468827 50.73672004 0 71.0314083zM111.43957654 440.07005337c0 197.87320662 157.2838313 355.15703796 355.15703675 355.15703675s355.15703796-157.2838313 355.15703795-355.15703675c0-96.39976772-40.58937533-187.72586307-101.47343892-248.60992666-65.95773595-65.95773595-152.21015895-101.4734389-248.60992668-101.47343892-202.94687899-5.07367235-360.23070911 152.21015895-360.2307091 350.08336558z"  horiz-adv-x="1024" />

    
    <glyph glyph-name="iconlineuser" unicode="&#58916;" d="M853.333333-42.666667c-25.6 0-42.666667 17.066667-42.666666 42.666667v85.333333c0 72.533333-55.466667 128-128 128H341.333333c-72.533333 0-128-55.466667-128-128v-85.333333c0-25.6-17.066667-42.666667-42.666666-42.666667s-42.666667 17.066667-42.666667 42.666667v85.333333c0 119.466667 93.866667 213.333333 213.333333 213.333334h341.333334c119.466667 0 213.333333-93.866667 213.333333-213.333334v-85.333333c0-25.6-17.066667-42.666667-42.666667-42.666667zM512 384c-119.466667 0-213.333333 93.866667-213.333333 213.333333s93.866667 213.333333 213.333333 213.333334 213.333333-93.866667 213.333333-213.333334-93.866667-213.333333-213.333333-213.333333z m0 341.333333c-72.533333 0-128-55.466667-128-128s55.466667-128 128-128 128 55.466667 128 128-55.466667 128-128 128z"  horiz-adv-x="1024" />

    
    <glyph glyph-name="iconlinefile" unicode="&#58918;" d="M715.88977817 893.72444485H155.19288849c-56.06968849 0-101.94488849-45.8752-101.94488849-101.94488969v-815.55911032c0-56.06968849 45.8752-101.94488849 101.94488849-101.94488969h713.61422302c56.06968849 0 101.94488849 45.8752 101.94488849 101.94488969V638.86222183l-254.86222183 254.86222302z m-50.97244484-305.83466668V791.77955516h10.19448849L868.80711151 598.08426667V587.88977817h-203.88977818zM155.19288849 791.77955516h407.77955635v-254.86222183c0-30.58346667 20.38897818-50.97244484 50.97244365-50.97244484h254.86222302v-509.72444365H155.19288849"  horiz-adv-x="1024" />

    
    <glyph glyph-name="iconlineedit-1" unicode="&#58919;" d="M664.91733333 786.0792884800001c5.09724484 0 20.38897818 0 30.58346667-10.19448849 10.19448849-10.19448849 10.19448849-25.48622182 10.1944885-30.58346667 0-5.09724484 0-20.38897818-10.1944885-30.58346667L257.13777817 276.35484484000006l-76.45866667-15.29173335 15.29173335 76.45866667 438.36302182 438.36302183c10.19448849 10.19448849 25.48622182 10.19448849 30.58346666 10.19448849m0 101.94488968c-35.68071151 0-71.36142183-15.29173332-101.94488849-40.77795635l-458.752-458.752-50.97244484-254.86222182 254.86222183 50.97244483 458.752 458.75200001c56.06968849 56.06968849 56.06968849 147.82008849 0 203.88977698-30.58346667 30.58346667-66.26417818 40.77795516-101.9448885 40.77795635zM970.752-121.23022184000001H53.248c-30.58346667 0-50.97244484 20.38897818-50.97244485 50.97244365s20.38897818 50.97244484 50.97244485 50.97244484h917.504c30.58346667 0 50.97244484-20.38897818 50.97244485-50.97244484s-20.38897818-50.97244484-50.97244485-50.97244365z"  horiz-adv-x="1024" />

    
    <glyph glyph-name="iconlineedit-" unicode="&#58920;" d="M874.28492378 770.25689321c9.86314835 0 19.72629785 0 34.52102097-14.79472311 14.7947231-14.7947231 14.7947231-29.58944621 14.7947231-34.5210198 0-9.86314835 0-24.65787145-14.7947231-34.52102097L543.8694419 331.34677483999997l-73.97361553-14.7947231 14.79472311 73.97361552L839.76390399 755.4621701c14.7947231 14.7947231 29.58944621 14.7947231 34.52101979 14.79472311m0 98.63148813c-39.45259456 0-78.90519027-14.7947231-103.56306173-44.38416932L395.92221086 439.84141131l-49.31574407-246.57871916 246.57871802 49.31574406 384.66280071 374.79965235c59.17889241 59.17889241 59.17889241 152.87880579 0 212.05769706-24.65787145 24.65787145-64.11046717 39.45259456-103.56306174 39.45259572zM839.76390399-102.63176994000003H149.34349168c-83.83676387 0-147.94723103 64.11046717-147.94723103 147.94723104V735.7358734c0 83.83676387 64.11046717 147.94723103 147.94723103 147.94723104h295.89446209c29.58944621 0 49.31574407-19.72629785 49.31574406-49.31574406s-19.72629785-49.31574407-49.31574406-49.31574407H149.34349168c-29.58944621 0-49.31574407-19.72629785-49.31574291-49.31574291v-690.4204123c0-29.58944621 19.72629785-49.31574407 49.31574291-49.3157429h690.42041231c29.58944621 0 49.31574407 19.72629785 49.3157429 49.3157429v246.57871918c0 29.58944621 19.72629785 49.31574407 49.31574406 49.31574291s49.31574407-19.72629785 49.31574407-49.31574291v-246.57871918c0-83.83676387-64.11046717-147.94723103-147.94723103-147.94723104z"  horiz-adv-x="1024" />

    
    <glyph glyph-name="heart" unicode="&#58923;" d="M313.20746667 740.80711151c50.97244484 0 96.84764485-15.29173332 137.6256-45.8752L512 638.86222183l66.26417818 50.97244483c35.68071151 35.68071151 86.65315515 50.97244484 132.52835515 50.97244485 56.06968849 0 107.04213334-20.38897818 147.82008849-61.16693334 40.77795516-35.68071151 61.16693333-86.65315515 61.16693334-137.6256 0-50.97244484-20.38897818-101.94488849-61.16693334-137.62559999L512 67.97084485000005l-346.61262182 336.41813333C124.60942182 440.06968849 104.22044484 491.04213334 104.22044484 542.01457817c0 50.97244484 20.38897818 101.94488849 61.16693334 137.6256C201.06808849 720.41813333 257.13777817 740.80711151 313.20746667 740.80711151m0 101.94488849C231.65155516 842.752 155.19288849 812.16853332 94.02595516 756.09884484c-122.33386667-117.23662183-122.33386667-305.83466666 0-423.07128968l417.97404484-407.77955516 417.97404484 407.77955516c122.33386667 117.23662183 122.33386667 305.83466666 0 423.07128968C868.80711151 812.16853332 792.34844484 842.752 710.79253333 842.752c-71.36142183 0-142.72284485-25.48622182-198.79253333-71.36142182C455.93031151 817.26577818 384.5688885 842.752 313.20746667 842.752z"  horiz-adv-x="1024" />

    
    <glyph glyph-name="jiazai" unicode="&#58984;" d="M782.065385-5.683615c10.892554-18.38743 4.796721-42.970626-14.290231-53.363521-18.687226-10.892554-42.470967-4.496926-53.063726 14.290232-11.392212 18.38743-4.796721 42.470967 13.690641 53.363521 19.386747 10.792622 42.770762 4.197131 53.663316-14.290232z m-230.342539-83.243095c0-21.285449-17.587977-39.07329-39.67288-39.07329-21.285449 0-39.07329 17.388114-39.07329 39.07329v27.381282c0 21.785108 17.887772 39.173221 39.07329 39.173222 21.785108 0 39.67288-17.388114 39.67288-39.173222v-27.381282z m-241.135162 44.169806c-11.092417-19.286816-35.175954-25.382649-53.663316-14.490095-18.987021 10.692691-25.682444 34.576364-14.490095 53.663316l29.080121 50.865229c11.192349 18.687226 35.175954 25.182785 54.162975 14.490094 18.38743-10.892554 25.182785-35.175954 13.990436-53.663316l-29.080121-50.865228zM123.415634 113.235093c-18.987021-10.592759-43.270421-4.197131-53.663316 14.490095-11.092417 18.38743-4.796721 42.770762 13.990436 53.663316l78.146579 45.269054c18.687226 10.392895 42.970626 4.496926 53.663317-14.490094 10.592759-18.38743 4.097199-42.770762-14.490095-53.663316l-77.646921-45.269055zM40.27247 344.177223c-21.785108 0-39.07329 17.587977-39.07329 39.073289 0 21.785108 17.288182 39.373085 39.07329 39.373085h121.716795c21.785108 0 39.07329-17.587977 39.07329-39.07329 0-21.785108-17.288182-39.373085-39.07329-39.373084H40.27247z m43.570216 241.534888c-18.987021 10.592759-25.182785 34.576364-13.990437 53.363521 10.392895 18.987021 34.576364 25.382649 53.663317 14.490095L255.82512 576.718259c18.687226-10.692691 24.88299-34.576364 14.490094-53.063726-11.092417-18.987021-35.175954-25.082854-53.563384-14.490095l-132.909144 76.547673z m158.591587 187.072119l92.137016-159.990632c11.192349-18.687226 35.175954-25.382649 53.86318-14.290231 18.687226 10.592759 24.88299 34.876159 13.990436 53.663316L309.888162 811.857519C299.295404 830.344881 275.311799 837.040304 256.824436 826.147751c-18.987021-10.892554-25.082854-34.976091-14.390163-53.363521z m230.642335 82.643505c0 21.285449 17.887772 39.373085 39.07329 39.373085 21.785108 0 39.67288-17.687909 39.672879-39.373085V671.153704c0-21.785108-17.587977-39.373085-39.672879-39.67288-21.285449 0-39.07329 17.288182-39.07329 39.67288V855.427735z m241.135161-43.570216c11.192349 18.987021 34.876159 25.182785 53.663316 14.490095 18.987021-10.592759 25.682444-34.576364 14.490095-53.663316l-92.336879-159.990632c-10.392895-18.687226-34.976091-25.282717-53.663316-14.490094-18.687226 10.892554-24.88299 35.175954-14.290231 53.963111l92.137015 159.690836z m187.671709-158.291792L741.692983 561.228847c-18.687226-10.592759-25.182785-34.576364-14.490094-53.663316 11.092417-18.38743 35.175954-24.583195 53.663316-14.290231l160.290426 92.336879c18.38743 10.592759 25.182785 34.576364 13.990436 53.363521-10.792622 18.987021-34.876159 25.782375-53.263589 14.590027z m82.34371-230.94213c21.984971 0 39.373085-17.587977 39.07329-39.373085 0-21.485313-16.988387-39.07329-39.07329-39.073289H799.753294c-21.285449 0-39.173221 17.587977-39.173222 39.373084 0 21.485313 17.887772 39.07329 39.173222 39.07329h184.473894z"  horiz-adv-x="1024" />

    
    <glyph glyph-name="pengyouquan" unicode="&#59164;" d="M512 896c-17.066667 0-38.4 0-55.466667-4.266667-42.666667-4.266667-85.333333-17.066667-128-34.133333 0 0 332.8-341.333333 341.333334-354.133333V870.4c-8.533333 4.266667-21.333333 8.533333-29.866667 8.533333-42.666667 12.8-85.333333 17.066667-128 17.066667zM857.6 746.666667c-12.8 12.8-25.6 25.6-42.666667 38.4-34.133333 29.866667-72.533333 51.2-110.933333 68.266666 0 0 4.266667-482.133333 0-499.2l247.466667 256c-4.266667 12.8-8.533333 21.333333-12.8 29.866667-21.333333 38.4-46.933333 76.8-81.066667 106.666667zM968.533333 571.733333s-328.533333-345.6-341.333333-354.133333h349.866667c4.266667 8.533333 4.266667 21.333333 8.533333 29.866667 12.8 42.666667 17.066667 85.333333 17.066667 132.266666 0 17.066667 0 38.4-4.266667 55.466667-4.266667 51.2-12.8 98.133333-29.866667 136.533333zM482.133333 183.466667l247.466667-256c8.533333 4.266667 17.066667 8.533333 29.866667 17.066666 38.4 21.333333 72.533333 46.933333 102.4 81.066667 12.8 12.8 25.6 29.866667 38.4 42.666667 29.866667 38.4 51.2 76.8 68.266666 115.2-4.266667 0-473.6-4.266667-486.4 0zM354.133333 264.533333v-362.666666c8.533333-4.266667 21.333333-4.266667 29.866667-8.533334 38.4-12.8 81.066667-17.066667 128-17.066666 17.066667 0 38.4 0 55.466667 4.266666 42.666667 4.266667 85.333333 17.066667 128 34.133334 0-4.266667-332.8 337.066667-341.333334 349.866666zM320 413.866667l-247.466667-256c4.266667-12.8 8.533333-21.333333 12.8-29.866667 21.333333-38.4 46.933333-72.533333 76.8-106.666667 12.8-12.8 25.6-25.6 42.666667-38.4 34.133333-29.866667 72.533333-51.2 110.933333-68.266666 4.266667 0 0 482.133333 4.266667 499.2zM38.4 516.266667c-12.8-42.666667-17.066667-85.333333-17.066667-132.266667 0-17.066667 0-38.4 4.266667-55.466667 4.266667-46.933333 17.066667-89.6 29.866667-132.266666 0 0 328.533333 345.6 341.333333 354.133333H46.933333c-4.266667-12.8-8.533333-21.333333-8.533333-34.133333zM264.533333 827.733333c-34.133333-25.6-68.266667-51.2-102.4-81.066666-12.8-17.066667-25.6-29.866667-34.133333-42.666667-29.866667-38.4-51.2-76.8-68.266667-119.466667 0 0 465.066667 4.266667 482.133334 0l-247.466667 256c-12.8-4.266667-21.333333-8.533333-29.866667-12.8z"  horiz-adv-x="1024" />

    
    <glyph glyph-name="VIP6" unicode="&#58881;" d="M2905.60610073 821.04127601H1045.26846365L969.21555698 899.13497862H323.5990838L-4.41378974 560.71283116l645.6164745-650.88148773L772.13975195 40.06801924000001l2133.46634878 0.71246783c166.33101326-2.13740351 302.73838395 163.52944504 313.50992871 361.9335808 11.81005803 217.47170248-130.3453585 419.38987167-313.50992871 418.32720814zM104.91980973 560.71283116L365.24825458 821.04127601h546.69214761l260.32844353-260.32844485L641.20268476 29.682896880000044zM2434.82608634 519.63122148q-11.00098393-83.63645949-71.35544927-135.73113086-57.96347239-49.36555652-133.9197728-49.36555784h-192.1730613l-16.27807492-124.07805734h-114.33294813l33.02710335 251.53731779h317.48284181q23.47520666 0 41.6612459 15.95203078t21.63969704 42.33748573q3.44158138 26.34922825-10.61456156 41.61294278t-37.56757494 15.26371451H1954.97306666L2047.19536686 704.71583242h231.22595017q75.52157359 0 120.60024929-49.34140496 46.76927595-52.10674649 35.80452002-135.74320598z m-704.88412341-309.13851804L1794.8248234 704.71583242h114.34502457l-64.88286047-494.25935698z m-292.53439898-7.53525232q-27.70170924 0-48.02515199 56.22456901L1228.87189789 704.71583242h124.17466229l108.6815112-305.73316337L1641.55974291 704.71583242H1766.59178241l-268.32257294-446.27043168q-33.19616299-55.54832786-60.87372066-55.54832787zM2604.90057354 471.03850971H2929.48394214v-291.36305274h-435.65587146V704.71583242H2929.48394214v-47.6025016h-324.5833686zM2818.38728642 227.27795857V423.44808456h-213.48671288v-196.17012599zM364.14142383 612.94033547l1.7147531 5.15633318c5.15633449 17.20790552 24.07899181 27.52057318 42.98957532 22.36423999 8.59791453-3.44158138 15.48107727-8.59791453 18.92265865-17.19583037a33.81202588 33.81202588 0 0 0-3.44158138-37.83324084c-1.72682824 0-1.72682824-1.72682824-3.44158136-3.44158137 25.79374492-15.48107727 49.87273804-30.95007941 73.93965342-44.68017687 8.59791453-5.15633449 18.92265864-12.0757239 27.52057448-17.19582907a6.4846639 6.4846639 0 0 1 10.31266766 1.72682825l1.72682825 1.71475311c29.23532629 51.58748986 56.75589946 103.18705614 85.97915062 156.4892978a33.96901039 33.96901039 0 0 0-20.63741175 30.95007941q0 15.49315371 10.32474408 25.79374494c13.75424903 13.76632414 34.39165946 12.0757239 48.1459085 0l1.71475311-1.71475182c13.76632414-17.19583039 8.59791453-37.83324084-13.75424902-53.31431942 6.88316273-13.75424903 13.75424903-27.50849805 22.35216357-39.54799393 20.63741175-37.83324084 41.27482219-75.66648298 61.91223395-111.77289556 5.15633449-8.59791453 8.59791453-10.3247441 15.48107727-5.15633318 32.60445297 18.91058219 63.62698575 39.54799395 96.29181828 58.45857616l5.15633317 3.44158136c-6.87108628 5.15633449-10.31266765 13.75424903-12.07572259 22.35216355-1.72682824 18.92265864 13.75424903 34.4037359 30.95007808 36.11848904 15.48107727 1.71475313 29.23532629-8.59791453 34.3916608-24.07899181 0-5.15633449 1.71475313-6.87108628 1.7147518-8.59791587v-12.07572257c-5.15633449-17.19583039-17.19583039-27.50849805-36.1064126-27.50849805 0-1.71475313-1.71475313-3.44158138-1.71475178-6.88316274L807.77934825 373.84101240999996c-1.71475313-8.59791453-5.15633449-10.31266765-13.75424903-10.31266765H472.47273801c-8.59791453 0-12.0757239 1.71475313-13.75424902 10.31266765-15.48107727 51.58748986-30.95007941 103.17497971-44.68017556 156.48929911-3.42950492 13.75424903-8.59791453 27.50849805-12.0757239 42.9895753a39.14949513 39.14949513 0 0 0-32.67690767 17.19583041c-1.71475313 5.15633449-3.44158138 6.88316273-5.15633317 10.31266765V612.94033547z m269.97694779-282.05267037h151.33296462c13.75424903 0 25.79374492-10.3247441 25.79374492-24.07899313 0-12.0757239-8.59791453-24.06691668-20.63741175-25.79374492h-307.8101873a25.86619962 25.86619962 0 0 0-24.07899312 17.19583038c-3.44158138 10.3247441 0 22.35216357 8.59791585 27.52057318a29.10249335 29.10249335 0 0 0 17.19582909 5.15633449c49.87273804 1.71475313 99.73339965 0 149.60613769 0zM633.26099441 746.40122989a35.01959748 35.01959748 0 0 0 24.0789931-10.28851611l1.71475182-1.71475311c13.75424903-17.20790552 8.59791453-37.83324084-13.75424903-53.31431811 6.88316273-13.75424903 13.75424903-27.52057318 22.35216488-39.54799394 20.63741175-37.83324084 41.27482219-75.66648298 61.91223262-111.78497199 5.15633449-8.59791453 8.59791453-10.31266765 15.46900215-5.15633318 32.67690766 18.92265864 63.62698575 39.54799395 96.30389342 58.47065258l5.15633448 3.44158137c-6.87108628 5.15633449-10.31266765 13.75424903-12.0757239 22.35216356-1.71475313 18.91058219 13.76632414 34.39165946 30.96215452 36.10641258 15.46900215 1.72682824 29.23532629-8.59791453 34.39166079-24.06691668 0-1.72682824 1.71475313-3.44158138 1.71475312-5.15633448v-12.07572259c-5.15633449-17.19583039-17.19583039-27.52057318-36.10641391-27.52057317 0-1.71475313-1.72682824-3.44158138-1.72682825-6.8710876l-56.75589945-192.60778682c-1.71475313-8.59791453-5.15633449-10.31266765-13.75424902-10.31266767h-159.88257734V746.40122989z m0-412.71199789H784.59395902c13.75424903 0 25.79374492-10.31266765 25.79374624-24.06691537 0-12.0757239-8.59791453-24.07899181-20.63741174-25.80582135H634.97574753"  horiz-adv-x="3222" />

    
    <glyph glyph-name="VIP1" unicode="&#58882;" d="M2908.9978357 821.04127601H1048.66019863L972.60729195 899.13497862H326.99081877L-1.02205478 560.71283116l645.61647449-650.88148773L775.53148691 40.06801924000001l2133.46634879 0.71246783c166.33101326-2.13740351 302.73838395 163.52944504 313.50992869 361.9335808 11.81005803 217.47170248-130.3453585 419.38987167-313.50992869 418.32720814zM108.31154469 560.71283116L368.63998954 821.04127601h546.69214761l260.32844352-260.32844485L644.59441971 29.682896880000044zM2443.55115464 519.63122148q-11.00098393-83.63645949-71.35544928-135.73113086-57.96347239-49.36555652-133.9197728-49.36555784h-192.1730613l-16.27807492-124.07805734h-114.33294813l33.02710334 251.53731779h317.48284182q23.47520666 0 41.66124589 15.95203078t21.63969704 42.33748573q3.44158138 26.34922825-10.61456154 41.61294278t-37.56757495 15.26371451H1963.69813494L2055.92043514 704.71583242h231.22595019q75.52157359 0 120.6002493-49.34140496 46.76927595-52.10674649 35.80452001-135.74320598z m-704.88412342-309.13851804L1803.54989171 704.71583242h114.34502455l-64.88286047-494.25935698z m-292.53439899-7.53525232q-27.70170924 0-48.02515198 56.22456901L1237.59696622 704.71583242h124.17466225l108.68151121-305.73316337L1650.28481122 704.71583242H1775.31685069l-268.32257292-446.27043168q-33.19616299-55.54832786-60.87372068-55.54832787zM364.32895582 581.5551966400001L559.29150893 609.51049662l87.64560061 176.57122622 86.94520792-176.84896853 194.86594814-28.81267591-141.47917536-137.09568695 33.05125491-194.4191462-174.18023325 92.11361751-174.59080854-91.36492299 33.46183017 193.96026911z m0 0M787.28116667 443.32439145l33.03917848-194.40706977L646.47823247 489.34497285l-87.25917694 120.15344735 87.64559931 176.58330264-0.72454294-445.06286008-174.59080854-91.36492299 262.24848429 359.59089098 194.86594813-28.82475235-423.65260225-136.80586952-140.68217771 137.94098776M2780.9710168 213.17351383000005h-104.97426396V662.45080138h-75.36458908v44.68017555h180.33885304z"  horiz-adv-x="3222" />

    
    <glyph glyph-name="VIP2" unicode="&#58883;" d="M2907.46132779 831.70794268H1047.12369071L971.07078403 909.8016453H325.45431085L-2.55856268 571.37949782l645.61647448-650.88148771L773.99497899 50.73468591999995l2133.4663488 0.71246783c166.33101326-2.13740351 302.73838397 163.52944504 313.50992869 361.93358079 11.81005802 217.47170247-130.3453585 419.38987167-313.50992869 418.32720814zM106.77503678 571.37949782L367.10348164 831.70794268h546.69214759l260.32844354-260.32844486L643.0579118 40.34956355999998zM2442.01464672 530.2978881399999q-11.00098394-83.63645949-71.35544927-135.73113086-57.96347238-49.36555653-133.91977281-49.36555784h-192.17306129l-16.27807493-124.07805732h-114.33294813l33.02710335 251.53731779h317.48284182q23.47520666 0 41.66124589 15.95203077t21.63969704 42.33748573q3.44158137 26.34922824-10.61456156 41.61294279t-37.56757492 15.26371451H1962.16162703L2054.38392724 715.38249909h231.22595017q75.52157359 0 120.60024929-49.34140497 46.76927595-52.1067465 35.80452002-135.74320598z m-704.88412342-309.13851802L1802.0133838 715.38249909h114.34502456l-64.88286049-494.25935697z m-292.53439898-7.53525232q-27.70170924 0-48.02515199 56.22456899L1236.0604583 715.38249909h124.17466225l108.68151121-305.73316337L1648.74830329 715.38249909H1773.78034279l-268.32257294-446.27043168q-33.19616299-55.54832786-60.87372066-55.54832786zM2535.28753402 206.40283579000004h-28.3054957V489.42156346h321.21424063V674.80806828h-315.55072726v46.69682258h424.53413105v-278.78014864h-321.21424196v-189.58885718h321.21424196v-46.69682254zM791.5047784 560.66833135L642.2850644 758.74642168 494.40575626 559.60566782 343.54374515 693.64619713l77.06726575-417.63889186h443.34810698L941.02638495 693.64619713z m0 0M791.5047784 560.66833135L642.2850644 758.74642168l-0.30189256-0.28981746v-482.47345053h221.97594604L941.02638495 693.64619713z m0 0M398.24677224 397.21134099l55.37926689 94.56498876L343.54374515 693.64619713z m0 0M494.40575626 559.60566782l-40.77971713-67.82933807L343.54374515 693.64619713z m0 0M833.0090398 491.77632975l53.31431808-94.56498876L941.02638495 693.64619713z m0 0M791.5047784 560.66833135l41.5042614-68.8920016L941.02638495 693.64619713z m0 0M612.66331571 542.69965487c0-21.98989274 5.55483331-42.26503235 14.56332181-53.27809141s20.09400355-11.00098394 29.10249335 0 14.5633218 31.28819867 14.56332311 53.27809141-5.55483331 42.26503235-14.56332311 53.27809141-20.10607999 10.98890881-29.10249335 0-14.5633218-31.34857823-14.56332181-53.27809141z m0 0M615.71847338 568.05867428a13.77840058 13.77840058 0 1 1 13.77840058 13.77840061A13.77840058 13.77840058 0 0 1 615.71847338 568.05867428z m0 0"  horiz-adv-x="3222" />

    
    <glyph glyph-name="VIP3" unicode="&#58884;" d="M2910.88314887 847.70794272H1050.54551179L974.49260511 925.80164533H328.87613193L0.86325839 587.37949787l645.61647448-650.88148773L777.41680007 66.73468594999997l2133.4663488 0.71246783c166.33101326-2.13740351 302.73838395 163.52944504 313.50992867 361.9335808 11.81005803 217.47170248-130.3453585 419.38987167-313.50992867 418.32720814zM110.19685785 587.37949787L370.52530268 847.70794272h546.69214764l260.32844351-260.32844485L646.47973287 56.34956359zM2445.4364678 546.29788819q-11.00098393-83.63645949-71.35544927-135.73113086-57.96347239-49.36555652-133.91977282-49.36555784h-192.1730613l-16.2780749-124.07805734h-114.33294816l33.02710338 251.53731779h317.48284181q23.47520666 0 41.66124589 15.95203078t21.63969703 42.33748573q3.44158138 26.34922825-10.61456154 41.61294278t-37.56757494 15.26371451H1965.58344811L2057.80574832 731.38249913h231.22595018q75.52157359 0 120.60024928-49.34140496 46.76927595-52.10674649 35.80452002-135.74320598z m-704.88412342-309.13851804L1805.43520486 731.38249913h114.34502459l-64.88286049-494.25935698z m-292.53439898-7.53525232q-27.70170924 0-48.02515199 56.22456901L1239.48227935 731.38249913h124.17466227l108.68151121-305.73316337L1652.17012435 731.38249913H1777.20216385l-268.32257291-446.27043168q-33.19616299-55.54832786-60.87372067-55.54832787zM2944.22422124 223.61040744000002h-430.19764573v46.69682257h321.21424195V457.1065954h-268.85390469v46.69682124h268.87805625V692.0156412599999h-321.21424194v46.69682256h430.1976444zM747.68637001 752.24934877a19.17624808 19.17624808 0 0 1-16.62827193-9.66057808l-71.81432634-123.17237831a19.79211096 19.79211096 0 0 0-33.87240414 0l-71.51243376 123.17237831a19.79211096 19.79211096 0 0 1-16.90601294 9.66057808h-72.45433949a7.4990243 7.4990243 0 0 1-6.58126884-11.56854238l116.34959383-199.78076702a19.74380786 19.74380786 0 0 0-33.87240414-19.69550471L411.43785276 742.25065012a19.80418611 19.80418611 0 0 1-18.11358455 9.99869865h-43.94355746a19.39361214 19.39361214 0 0 1-16.90601295-29.07834178l234.87281916-403.00311537a7.54732744 7.54732744 0 0 1 13.48858316 0l193.81535974 332.9639204a19.52644508 19.52644508 0 0 0 33.87240413-19.38153572L602.78976486 279.53308258000004a19.32115746 19.32115746 0 0 1 0-19.38153573l24.45334037-41.90276021a19.80418611 19.80418611 0 0 1 33.88447927 0L955.30428189 723.17100699a19.39361214 19.39361214 0 0 1-16.90601294 29.07834178z m0 0"  horiz-adv-x="3222" />

    
    <glyph glyph-name="VIP4" unicode="&#58885;" d="M2910.38634766 831.70794273H1050.04871057L973.99580391 909.80164534H328.37933073L0.36645718 571.3794978799999l645.6164745-650.88148773L776.91999887 50.73468595999998l2133.46634879 0.71246783c166.33101326-2.13740351 302.73838395 163.52944504 313.5099287 361.9335808 11.81005803 217.47170248-130.3453585 419.38987167-313.5099287 418.32720814zM109.70005667 571.3794978799999L370.02850151 831.70794273h546.69214761l260.32844352-260.32844485L645.98293168 40.34956360000001zM2444.9396666 530.2978882q-11.00098393-83.63645949-71.35544927-135.73113086-57.96347239-49.36555652-133.9197728-49.36555784h-192.17306131l-16.27807492-124.07805734h-114.33294813l33.02710335 251.53731779h317.48284182q23.47520666 0 41.66124589 15.95203078t21.63969704 42.33748573q3.44158138 26.34922825-10.61456155 41.61294278t-37.56757494 15.26371451H1965.08664691L2057.30894711 715.3824991399999h231.22595018q75.52157359 0 120.6002493-49.34140496 46.76927595-52.10674649 35.80452001-135.74320598z m-704.88412342-309.13851804L1804.93840366 715.3824991399999h114.34502458l-64.88286048-494.25935698z m-292.53439898-7.53525232q-27.70170924 0-48.02515198 56.22456901L1238.98547816 715.3824991399999h124.17466227l108.6815112-305.73316337L1651.67332317 715.3824991399999H1776.70536266l-268.32257293-446.27043168q-33.19616299-55.54832786-60.87372066-55.54832787zM2926.99046672 203.78240371000004h-107.54639165V366.52692751999996h-312.76123547v352.36960767h108.9592522v-305.67278509h203.80198327V718.89653519h107.54639165zM232.9931928 649.20753593h820.50917426V583.7571143600001H232.9931928zM373.50630955 443.67872443l275.32649216-262.04319666 271.70377603 262.04319666 25.35901809-27.17037749L648.83280171 124.87962699000002 346.81896071 415.18001622 373.50630955 443.67872443z"  horiz-adv-x="3222" />

    
    <glyph glyph-name="VIP5" unicode="&#58886;" d="M2907.12818924 821.68610385H1044.66752578L968.52782716 899.86892738H322.17457331L-6.21263013 561.0605709199999l646.35325517-651.62427684L771.22711826 39.82159659000001l2135.90107098 0.71328091c166.52083102-2.13984272 303.08387046 163.71606564 313.86770774 362.3466212 11.82353572 217.71988223-130.49410926 419.86848143-313.86770774 418.80460515zM103.24574139 561.0605709199999L363.87127434 821.68610385h547.31603533l260.62553162-260.62553293L640.14062504 29.424622709999994zM2441.15033815 519.9320787199999q-11.01353831-83.73190581-71.43688045-135.88602789-58.02962057-49.42189275-134.07260271-49.42189403h-192.39237015l-16.29665152-124.21965585h-114.46342544l33.06479404 251.82437341h317.84515479q23.50199668 0 41.70878987 15.97023532t21.6643924 42.38580147q3.44550891 26.37929814-10.62667494 41.66043165t-37.61044724 15.28113355H1960.74970787L2053.0772526 705.22790912h231.48982637q75.60775917 0 120.73787886-49.39771362 46.82264927-52.16621096 35.84538032-135.89811678z m-705.6885406-309.49130843L1800.41870266 705.22790912h114.47551569l-64.95690513-494.82340817z m-292.86824068-7.54385157q-27.73332256 0-48.07995852 56.28873276L1233.81990891 705.22790912h124.31637102l108.80553904-306.08206756L1646.9787153 705.22790912H1772.15344197l-268.62878397-446.77971767q-33.23404661-55.61171988-60.94319002-55.6117199zM2827.16820724 424.35245806H2508.40424964V706.29178538h427.85964487v-46.76220211h-318.76395889v-188.42701334h318.76395889v-280.47649748H2508.40424964V237.36409544000003h318.7639576zM851.68276904 640.37980808a36.70373466 36.70373466 0 0 1-26.355119-59.74632924l-3.86864164-16.10321987a73.15359047 73.15359047 0 0 0-144.0827106 11.11025482l-3.62685169 45.6378787a53.91918901 53.91918901 0 1 1-59.37155478 0l-3.62685171-45.6378787a73.15359047 73.15359047 0 0 0-144.08271191-11.11025482L462.86013455 580.63347884a36.70373466 36.70373466 0 0 1-26.3430301 59.74632924 36.82463028 36.82463028 0 0 1-17.30008061-70.42136111L451.97958079 338.4807095h384.02310113v0.12089432l32.77464718 231.35684315a36.82463028 36.82463028 0 0 1-17.09456006 70.42136111zM778.1423152 264.19070543h-270.2004192a56.90529585 56.90529585 0 0 0-56.92947628 56.92947496h384.05937045a56.9536541 56.9536541 0 0 0-56.92947497-56.92947496zM397.44382738 603.67607343a36.89716635 36.89716635 0 1 1 36.89716634 36.89716767A36.88507743 36.88507743 0 0 1 397.44382738 603.67607343zM851.68276904 640.37980808a36.70373466 36.70373466 0 0 1-26.355119-59.74632924l-3.86864164-16.10321987a73.15359047 73.15359047 0 0 0-144.0827106 11.11025482l-3.62685169 45.6378787a53.72575732 53.72575732 0 0 1-29.78853769 98.89214371v-381.75027519h192.0417735v0.12089565l32.77464718 231.35684182a36.86089831 36.86089831 0 0 1-17.09456006 70.4818096zM817.15514515 603.67607343a36.8367192 36.8367192 0 1 1 36.83671915 36.8367192A36.82463028 36.82463028 0 0 1 817.15514515 603.67607343z m-227.54864867 63.55452376a54.55993253 54.55993253 0 1 1 27.27392182 47.25787219 54.54784362 54.54784362 0 0 1-27.27392182-47.25787219zM642.99374734 321.12018039v-56.92947496h136.51468121a55.52709228 55.52709228 0 0 1 55.61171988 55.61171987v1.36611334zM461.05879828 629.1486589599999c-4.36431041-22.53483562-22.90961009-42.08356437-49.56696751-54.19724695a36.26851303 36.26851303 0 0 1 22.84916295-8.11205775 36.87298852 36.87298852 0 0 1 26.71780456 62.3093047z m419.77176622-0.31432731c-5.0534122-22.2205083-23.91303917-41.33401544-50.57039658-53.06083333A36.69164575 36.69164575 0 0 1 890.94947914 603.67607343a37.19940474 37.19940474 0 0 1-10.11891464 25.15825822z m-198.7151818 77.46954395a31.75912786 31.75912786 0 0 0 1.81342649-10.23981024c0-25.65392831-32.02509693-46.50832328-71.47314979-46.50832329a103.65540906 103.65540906 0 0 0-20.55215652 2.0068582 54.53575341 54.53575341 0 1 1 90.19979092 54.74127533zM415.79569405 619.77929331c0.74954895-1.30566617 3.05864423-1.55954634 6.11728976-0.68910181a22.40185109 22.40185109 0 0 1 8.61981673 4.99296504c2.30909528 2.18819966 3.25207723 4.31595349 2.50252698 5.62161967s-3.05864423 1.55954634-6.11728975 0.6891018a22.09961399 22.09961399 0 0 1-8.61981544-4.99296504c-2.30909528-2.18819966-3.25207723-4.37640064-2.50252828-5.62161966z m444.18047552 1.3177564c3.05864423-1.75297804 6.31072143-2.75640713 8.46265308-2.50252698s2.99819708 1.6199935 2.11566229 3.62685038-3.30043415 4.36431041-6.43161579 6.11728976-6.29863121 2.74431692-8.46265306 2.49043808-2.99819708-1.6199935-2.12775253-3.62685171 3.32461329-4.36431041 6.44370601-6.10519953z m-237.47413159 84.39682846c0-2.93774991 9.23638114-5.30729235 20.66096193-5.30729235s20.66096326 2.41790069 20.66096328 5.30729235-9.23638114 5.30729235-20.66096328 5.30729237-20.66096326-2.42999091-20.66096193-5.30729237zM660.58397617 429.24870658h-30.65898224a12.60935267 12.60935267 0 0 0 0 25.2187067h30.65898224a12.60935267 12.60935267 0 1 0 0-25.2187067zM660.58397617 454.52786043h-16.47799431v-25.38795926h16.47799431a12.66979985 12.66979985 0 0 1 0 25.38795926z"  horiz-adv-x="3222" />

    
    <glyph glyph-name="mail-send-fill" unicode="&#58963;" d="M98.3421513 684.51781269V754.19171217A46.23351006 46.23351006 0 0 0 144.20579365 800.1015873h832.94291003c25.33596295 0 45.86364126-20.57391218 45.86364235-45.90987513v-740.38342434a46.23351006 46.23351006 0 0 0-45.86364235-45.90987513H144.20579365A45.90987513 45.90987513 0 0 0 98.3421513 13.80828783000004V60.36543173999996h832.2031746V601.29749523l-369.86807723-332.88126984-462.33509737 416.1015873zM5.87513227 476.46701904h231.16754814v-92.46701904H5.87513227v92.46701904z m0-231.16754814h369.86807724v-92.46701904H5.87513227v92.46701904z"  horiz-adv-x="1024" />

    
    <glyph glyph-name="chat--line" unicode="&#59004;" d="M636.6896824 70.41042972000002L512-107.71768815999997 387.3103176 70.41042972000002H53.95626731a50.89374848 50.89374848 0 0 0-50.89374847 50.89374847V833.81665084a50.89374848 50.89374848 0 0 0 50.89374847 50.89374849h916.08746538a50.89374848 50.89374848 0 0 0 50.89374847-50.89374849v-712.51247265a50.89374848 50.89374848 0 0 0-50.89374847-50.89374847h-333.35405029z m-52.98039175 101.78749693H919.1499842V782.92290356H104.8500158v-610.72497691h335.44069355L512 69.79970473000003 583.70929065 172.19792665z"  horiz-adv-x="1024" />

    
    <glyph glyph-name="message--fill" unicode="&#59011;" d="M2.27555515 542.55650133A305.32494182 305.32494182 0 0 0 308.11022183 848.08533333h407.77955634c168.87170885 0 305.83466666-137.37073817 305.83466668-305.528832V-69.41866667H308.11022183c-168.87170885 0-305.83466666 137.37073817-305.83466668 305.528832V542.55650133zM613.94488849 440.30577817v-101.94488968h101.94488968v101.94488968h-101.94488968z m-305.83466666 0v-101.94488968h101.94488968v101.94488968H308.11022183z"  horiz-adv-x="1024" />

    
    <glyph glyph-name="message--line1" unicode="&#59012;" d="M2.09412738 541.79753863A304.85355058 304.85355058 0 0 0 307.45661582 846.8546646h407.1499854c168.61098777 0 305.36248845-137.15865146 305.36248848-305.05712597V-69.23280077000004H307.45661582c-168.61098777 0-305.36248845 137.15865146-305.36248844 305.05712596V541.79753863zM918.18159275 32.55469498000002V541.79753863A203.7785669 203.7785669 0 0 1 714.60660122 745.06716885H307.45661582a203.06605483 203.06605483 0 0 1-203.5749915-203.26963022v-305.97321344A203.7785669 203.7785669 0 0 1 307.45661582 32.55469498000002h610.72497693z m-305.36248846 407.14998542h101.78749693v-101.78749696h-101.78749693v101.78749696z m-305.36248847 0h101.78749696v-101.78749696H307.45661582v101.78749696z"  horiz-adv-x="1024" />

    
    <glyph glyph-name="book--fill" unicode="&#59016;" d="M970.04373269 83.97084487999996H206.63751155a50.89374848 50.89374848 0 0 1 0-101.78749575h763.40622114v-101.78749696H206.63751155a152.68124422 152.68124422 0 0 0-152.68124424 152.68124424V796.48331753a101.78749575 101.78749575 0 0 0 101.78749577 101.78749696h814.29996961v-814.29996961z m-254.46873998 458.04373267V643.80207332H308.42500729v-101.78749577h407.14998542z"  horiz-adv-x="1024" />

    
    <glyph glyph-name="pause-mini-fill" unicode="&#59148;" d="M764.25923838 804.34873002a84.08641343 84.08641343 0 0 0 168.17282496-2e-8v-840.86412669a84.08641343 84.08641343 0 1 0-168.17282496 0V804.34873002zM91.56793665 804.34873002a84.08641343 84.08641343 0 1 0 168.17282497-2e-8v-840.86412669a84.08641343 84.08641343 0 1 0-168.17282496 0V804.34873002z"  horiz-adv-x="1024" />

    
    <glyph glyph-name="pause-circle-line" unicode="&#59147;" d="M512-120.39111151999998C230.47918933-120.39111151999998 2.27555515 107.81252266000001 2.27555515 389.33333333S230.47918933 899.05777818 512 899.05777818s509.72444485-228.20363417 509.72444485-509.72444485-228.20363417-509.72444485-509.72444485-509.72444485z m0 101.94488969a407.77955516 407.77955516 0 1 1 0 815.55911032 407.77955516 407.77955516 0 0 1 0-815.55911032zM359.08266667 542.25066666h101.94488849v-305.83466666H359.08266667V542.25066666z m203.88977817 0h101.94488849v-305.83466666h-101.94488849V542.25066666z"  horiz-adv-x="1024" />

    
    <glyph glyph-name="play-circle-line" unicode="&#59149;" d="M512-124.16341867999995C230.91382937-124.16341867999995 3.06251884 103.68789185000003 3.06251884 384.77406248S230.91382937 893.71154363 512 893.71154363s508.93748116-227.85131054 508.93748116-508.93748115-227.85131054-508.93748116-508.93748116-508.93748116z m0 101.78749694a407.1499842 407.1499842 0 1 1 0 814.29996843 407.1499842 407.1499842 0 0 1 0-814.29996843zM441.86841475 567.22814933l248.31059726-165.50646874a20.35749962 20.35749962 0 0 0 0-33.89523624l-248.36149021-165.50646873a20.35749962 20.35749962 0 0 0-31.60501755 16.89672396V550.33142536a20.35749962 20.35749962 0 0 0 31.6559105 16.89672397z"  horiz-adv-x="1024" />

    
    <glyph glyph-name="play-fill" unicode="&#59150;" d="M894.43668704 361.44753369L183.95208147-112.20887053000001A33.5165862 33.5165862 0 0 0 131.86730568-84.32307091999996V862.98973758a33.5165862 33.5165862 0 0 0 52.08477579 27.88579961l710.48460557-473.65640422a33.5165862 33.5165862 0 0 0 0-55.77159928z"  horiz-adv-x="1024" />

    
    <glyph glyph-name="alarm-warning-line" unicode="&#59177;" d="M104.22044484-18.446221830000013v305.83466667a407.77955516 407.77955516 0 1 0 815.55911032 0v-305.83466667h50.97244484v-101.94488969H53.248v101.94488969h50.97244484z m101.9448885 0h611.66933332v305.83466667a305.83466666 305.83466666 0 1 1-611.66933332 0v-305.83466667z m254.86222182 917.50400001h101.94488968v-152.91733334h-101.94488968V899.05777818z m447.43611733-143.13062401l72.07503684-72.07503684-108.06158182-108.11255467-72.12600969 72.07503684 108.11255467 108.11255467zM43.46129067 683.85211733l72.07503684 72.07503684 108.11255467-108.06158301L151.62481817 575.68858983 43.46129067 683.85211733zM257.13777817 287.38844484000003a254.86222183 254.86222183 0 0 0 254.86222183 254.86222182v-101.94488849a152.91733333 152.91733333 0 0 1-152.91733333-152.91733333H257.13777817z"  horiz-adv-x="1024" />

    
    <glyph glyph-name="alarm-warning-fill" unicode="&#59178;" d="M104.8500158-16.34507685999995v305.36248847a407.1499842 407.1499842 0 1 0 814.2999684 0v-305.36248847h50.89374849v-101.78749694H53.95626731v101.78749694h50.89374849z m101.78749575 305.36248847h101.78749574a203.57499271 203.57499271 0 0 0 203.57499271 203.5749915V594.37990006a305.36248845 305.36248845 0 0 1-305.36248845-305.36248845z m254.46873997 610.7249769h101.78749696v-152.68124422h-101.78749696V899.74238851z m446.74532061-142.90964459l71.96376019-71.96376018-107.89474553-107.94563967-72.01465433 71.96376017 107.94563967 107.94563968zM44.18466768 684.86898374l71.96376019 71.96376018 107.94563967-107.89474671L152.1812015 576.87244993 44.18466768 684.86898374z"  horiz-adv-x="1024" />

    
    <glyph glyph-name="checkbox-blank-circle-line" unicode="&#59197;" d="M512-119.60414782999999C230.91382937-119.60414782999999 3.06251884 108.24716269999999 3.06251884 389.33333333S230.91382937 898.27081449 512 898.27081449s508.93748116-227.85131054 508.93748116-508.93748116-227.85131054-508.93748116-508.93748116-508.93748116z m0 101.78749696a407.1499842 407.1499842 0 1 1 0 814.2999684 407.1499842 407.1499842 0 0 1 0-814.2999684z"  horiz-adv-x="1024" />

    
    <glyph glyph-name="checkbox-circle-line" unicode="&#59199;" d="M512-124.93748115999995C230.91382937-124.93748115999995 3.06251884 102.91382937000003 3.06251884 384S230.91382937 892.93748116 512 892.93748116s508.93748116-227.85131054 508.93748116-508.93748116-227.85131054-508.93748116-508.93748116-508.93748116z m0 101.78749696a407.1499842 407.1499842 0 1 1 0 814.2999684 407.1499842 407.1499842 0 0 1 0-814.2999684z m-50.74106724 203.57499149L245.31676048 396.36718078l71.96375898 71.96376017 143.9784133-143.9784133 287.85503953 287.90593247 72.01465312-71.96376017L461.25893276 180.42500729000005z"  horiz-adv-x="1024" />

    
    <glyph glyph-name="download--line" unicode="&#59209;" d="M554.666667 469.333333h213.333333l-256-256-256 256h213.333333V768h85.333334v-298.666667z m-384-384h682.666666v298.666667h85.333334v-341.333333a42.666667 42.666667 0 0 0-42.666667-42.666667H128a42.666667 42.666667 0 0 0-42.666667 42.666667v341.333333h85.333334v-298.666667z"  horiz-adv-x="1024" />

    
    <glyph glyph-name="eye-line" unicode="&#59213;" d="M511.45333332 807.66333336c253.63968037 0 464.66111963-182.51520037 508.92576038-423.36-44.21760037-240.84479963-255.28608-423.36-508.92576038-423.35999999-253.63968037 0-464.66111963 182.51520037-508.92576035 423.35999999C46.74517333 625.1481329999999 257.81365297 807.66333336 511.45333332 807.66333336z m0-752.64000036a423.59519963 423.59519963 0 0 1 412.87007965 329.28000036 423.59519963 423.59519963 0 0 1-825.74015926 0A423.59519963 423.59519963 0 0 1 511.45333332 55.02333299999998z m0 117.60000036a211.68 211.68 0 1 0 0 423.36000001 211.68 211.68 0 0 0 0-423.36000001z m0 94.07999964a117.60000037 117.60000037 0 1 1 0 235.20000074 117.60000037 117.60000037 0 0 1 0-235.20000074z"  horiz-adv-x="1024" />

    
    <glyph glyph-name="heart--fill" unicode="&#59219;" d="M80.21984038 346.65024037a305.75999964 305.75999964 0 0 0 348.70751999 481.68959926h-0.09408074L229.28959963 628.70208l66.51456037-66.51456037 199.54368001 199.54368a305.75999964 305.75999964 0 0 0 432.43872036-432.39168001L512-86.40000037000004l-432.39168 432.39168 0.61152038 0.65856074z"  horiz-adv-x="1024" />

    
    <glyph glyph-name="heart-fill" unicode="&#59220;" d="M943.11353414 346.70790466999995l0.61057624-0.65754398L512-85.67374971000004l-431.72411038 431.7241104 0.61057624 0.65754398A305.2879367 305.2879367 0 0 0 512 776.64725407a305.2879367 305.2879367 0 0 0 431.11353414-429.9393494z"  horiz-adv-x="1024" />

    
    <glyph glyph-name="lock-line" unicode="&#59225;" d="M868.25623692 491.20548517h50.89374728a50.89374848 50.89374848 0 0 0 50.89374849-50.89374728v-508.93748117a50.89374848 50.89374848 0 0 0-50.89374849-50.89374847H104.8500158a50.89374848 50.89374848 0 0 0-50.89374849 50.89374847V440.31173789a50.89374848 50.89374848 0 0 0 50.89374849 50.89374728h50.89374728V542.09923364a356.25623692 356.25623692 0 1 0 712.51247384 0v-50.89374847zM155.74376308 389.41798941v-407.1499842h712.51247384v407.1499842H155.74376308z m305.36248844-101.78749575h101.78749696v-203.5749927h-101.78749696v203.5749927z m305.36248847 203.57499151V542.09923364A254.46873999 254.46873999 0 0 1 257.53126001 542.09923364v-50.89374847h508.93747998z"  horiz-adv-x="1024" />

    
    <glyph glyph-name="lock--line" unicode="&#59224;" d="M220.72888889 556.8474077999999V605.39259223a291.27111111 291.27111111 0 1 0 582.54222222 0v-48.54518443h97.09036999a48.54518557 48.54518557 0 0 0 48.54518557-48.54518557v-582.54222222a48.54518557 48.54518557 0 0 0-48.54518557-48.54518556H123.6385189a48.54518557 48.54518557 0 0 0-48.54518557 48.54518556V508.30222223a48.54518557 48.54518557 0 0 0 48.54518557 48.54518557h97.09036999z m631.08740778-97.09037113H172.18370333v-485.45185109h679.63259334V459.75703667z m-388.36148224-278.2610011a97.09036999 97.09036999 0 1 0 97.09037114 0V71.39555557000006h-97.09037114v110.10048zM317.81925888 556.8474077999999h388.36148224V605.39259223a194.18074112 194.18074112 0 1 1-388.36148224 0v-48.54518443z"  horiz-adv-x="1024" />

    
    <glyph glyph-name="menu-fill" unicode="&#59230;" d="M-1.00898061 840.00798231h1026.01796122v-114.00199524H-1.00898061V840.00798231z m0-399.00698402h1026.01796122v-114.00199658H-1.00898061v114.00199658z m0-399.00698536h1026.01796122v-114.00199524H-1.00898061v114.00199524z"  horiz-adv-x="1024" />

    
    <glyph glyph-name="share-forward-box-line" unicode="&#59248;" d="M350.36444449 768.49777779v-97.09036999H107.63851894v-679.63259336h776.72296221v436.90666667h97.09037113v-485.45185109a48.54518557 48.54518557 0 0 0-48.54518557-48.54518556H59.09333338a48.54518557 48.54518557 0 0 0-48.54518556 48.54518556V719.95259222a48.54518557 48.54518557 0 0 0 48.54518556 48.54518557h291.27111111z m483.02459221-97.09036999L690.18074116 814.61570334 758.82363226 883.25859556l259.23128889-259.23128888A29.12711111 29.12711111 0 0 0 997.47176339 574.31703667H593.09037004a97.09036999 97.09036999 0 0 1-97.09037-97.09036999v-291.27111112h-97.09036998V477.22666668a194.18074112 194.18074112 0 0 0 194.18073998 194.18074112h240.29866666z"  horiz-adv-x="1024" />

    
    <glyph glyph-name="shield-cross-fill" unicode="&#59249;" d="M131.511815 814.13540333L512 898.68833297l380.488185-84.55292964a46.30500037 46.30500037 0 0 0 36.256815-45.19368036v-462.44803499a277.83 277.83 0 0 0-123.72695964-231.15456001L512-120.02166631l-293.01804036 195.36079428A277.83 277.83 0 0 0 95.255 306.44738369000004V768.94172297a46.30500037 46.30500037 0 0 0 36.256815 45.19368036zM465.69499963 481.94333297H326.77999964v-92.60999964h138.91499999v-138.91499999h92.61000074v138.91499999h138.91499999v92.60999964h-138.91499999V620.85833297h-92.61000074v-138.915z"  horiz-adv-x="1024" />

    
    <glyph glyph-name="thumb-up-fill" unicode="&#59257;" d="M49.66054325 484.34145837h138.91499999v-555.65999999H49.66054325a46.30500037 46.30500037 0 0 0-46.30499928 46.30500036V438.03645803a46.30500037 46.30500037 0 0 0 46.30499928 46.30500034z m245.09236536 59.87236501l296.35200036 296.35200036a23.15249964 23.15249964 0 0 0 30.28347 2.17633464l39.49816428-29.63520035a69.4575 69.4575 0 0 0 25.60666537-72.69884929L633.10354325 530.6464587400001H929.45554361a92.60999964 92.60999964 0 0 0 92.60999964-92.61000071v-97.42571929a92.60999964 92.60999964 0 0 0-6.94575-35.28441l-143.31397465-347.98207501a46.30500037 46.30500037 0 0 0-42.83212535-28.66279535H327.49054326a46.30500037 46.30500037 0 0 0-46.30499929 46.30500036V511.47618874a46.30500037 46.30500037 0 0 0 13.56736464 32.73763464z"  horiz-adv-x="1024" />

    
    <glyph glyph-name="thumb-up-line" unicode="&#59258;" d="M632.20712488 517.82998278H928.10158732a92.46701904 92.46701904 0 0 0 92.46701904-92.46702013v-97.27530368a92.46701904 92.46701904 0 0 0-6.93502645-35.22993439l-143.09271216-347.4448254a46.23351006 46.23351006 0 0 0-42.76599684-28.61854286H49.66490265a46.23351006 46.23351006 0 0 0-46.23350897 46.23351005V425.36296265a46.23351006 46.23351006 0 0 0 46.23350897 46.23351007h160.9850815a46.23351006 46.23351006 0 0 1 37.77277671 19.5567746L500.53408998 848.39957641a23.11675449 23.11675449 0 0 0 29.21957777 7.35112805l83.86758623-41.93379258a115.58377461 115.58377461 0 0 0 60.33473016-131.90420318L632.20712488 517.82998278zM280.83245188 398.17765895V9.26137534999998h515.96596825L928.10158732 328.08765897V425.36296265h-295.89446244a92.46701904 92.46701904 0 0 0-89.6005418 115.26013968l41.74885926 164.03649315a23.11675449 23.11675449 0 0 1-12.06694604 26.39933331l-30.56034918 15.25705821-217.75983069-308.46997673c-11.55837778-16.36666243-26.35310053-29.77437989-43.13586455-39.66835132zM188.36543176 379.12945367H95.89841272v-369.86807832h92.46701904v369.86807832z"  horiz-adv-x="1024" />

    
    <glyph glyph-name="upload-line" unicode="&#59268;" d="M30.3104-12.074667100000056h963.3792v-107.04213289H30.3104v107.04213289zM565.52106708 692.90482389V94.96746709000001h-107.04213416V692.90482389L133.55253759 367.92490707l-75.67878867 75.67878745L512 897.78346709l454.12625108-454.12625109-75.67878867-75.67878869L565.52106708 692.79778093z"  horiz-adv-x="1024" />

    
    <glyph glyph-name="contacts-line" unicode="&#59272;" d="M789.40105857 599.16754815h231.16754814v-92.46701904h-231.16754814V599.16754815z m-92.46702012-231.16754814h323.63456826v-92.46701904h-323.63456826v92.46701904z m138.7005291-231.16754814h184.93403916v-92.46702012h-184.93403916v92.46702012zM3.43139294-94.33509735999996a369.86807724 369.86807724 0 1 0 739.73615557 0h-92.46701904a277.4010582 277.4010582 0 1 1-554.80211641 0H3.43139294z m369.86807833 416.10158731c-153.26408465 0-277.4010582 124.13697354-277.40105821 277.4010582s124.13697354 277.4010582 277.40105821 277.4010582 277.4010582-124.13697354 277.4010582-277.4010582-124.13697354-277.4010582-277.4010582-277.4010582z m0 92.46702012c102.17605608 0 184.93403916 82.757982 184.93403807 184.93403808s-82.757982 184.93403916-184.93403807 184.93403916-184.93403916-82.757982-184.93403916-184.93403916 82.757982-184.93403916 184.93403916-184.93403808z"  horiz-adv-x="1024" />

    
    <glyph glyph-name="_huabanfuben" unicode="&#58911;" d="M1021.72444445 247.09594112000002v-254.61949668c0-83.25499221-43.93339221-112.86755555-84.71134778-112.86755556H654.23739221c-153.88823666 0-289.08657778 88.59496334-350.25351111 218.45333334h64.56509668c218.69605888 0 403.89594112 158.50003001 431.08124444 368.7006811 5.82542222 45.38974777 4.61179221 90.53676999-3.64088889 133.98471111 133.74198557-59.46785223 225.73511111-196.85072555 225.73511112-353.65167331zM742.10417778 619.68023666c-8.49540779 32.52527445-21.60260779 63.8369189-38.59342223 92.96403h-0.24272554a375.98245888 375.98245888 0 0 1-58.73967446 76.21594112c-83.01226667 83.01226667-198.06435555 122.09114112-315.78643 107.04213334C142.57114112 871.87247445 2.27555555 707.78974776 2.27555555 514.09445888v-254.61949554C2.27555555 176.21996998999998 46.20894777 146.60740778000002 86.98690333 146.60740778000002h282.77570446c193.69528889 0 357.77801443 140.29558557 381.8078811 326.46637 6.5536 50.24426667 2.91271111 99.76035555-9.46631111 146.60645888z m-241.92492999-140.87812666l-87.30851556-87.30851555a52.74434333 52.74434333 0 0 0-37.45261113-15.51018667 52.74434333 52.74434333 0 0 0-37.45260999 15.51018667l-87.30851556 87.30851555c-15.43736889 15.43736889-23.95704889 35.94771001-23.95704888 57.81731556s8.49540779 42.37994667 23.93277667 57.84158777l2.81561999 2.79134777c30.77764779 30.82619221 84.73562112 30.85046557 115.61035889-0.04854443l6.33514667-6.33514667 6.35941888 6.35941888c30.85046557 30.85046557 84.75989333 30.87473778 115.65890446-0.02427221l2.76707556-2.74280334c15.43736889-15.4616411 23.93277667-35.97198222 23.93277554-57.84158777s-8.49540779-42.40421888-23.93277554-57.81731556z"  horiz-adv-x="1024" />

    
    <glyph glyph-name="-11" unicode="&#58927;" d="M753.82676161 387.86532677l-476.45373248 173.45410463a139.68607382 139.68607382 0 0 1-178.70183914-83.35531931L72.66067977 406.49858701c-74.12741939-203.59688849 31.23289376-429.5283383 234.85513323-503.63040552 44.21279671-16.09812319 89.43964919-23.72888652 133.98201455-23.72888652 160.57560559 0 311.64444695 99.17457699 369.64839098 258.55866878l26.0358624 71.46552506a139.66072164 139.66072164 0 0 1-83.35531932 178.70183796zM336.23892068 817.39366508a50.70274937 50.70274937 0 0 0-0.15210823-101.35479559 49.94220814 49.94220814 0 0 0-32.50046171 11.86444326 50.2717756 50.2717756 0 0 0-17.89807116 34.40181597 50.62669525 50.62669525 0 0 0 50.5506411 55.08853636m-0.02535097 76.05412345a126.70616968 126.70616968 0 1 1-0.15210824-253.46304251 126.70616968 126.70616968 0 1 1 0.15210824 253.46304251zM836.49759382 635.29474254c8.36595358 0 20.81347885-2.05346133 32.50046169-11.86444327 10.36871177-8.69552105 16.73190716-20.91488395 17.89806999-34.40181596a50.62669525 50.62669525 0 0 0-83.05110282-43.22409309 50.2717756 50.2717756 0 0 0-17.89807 34.40181477 50.62669525 50.62669525 0 0 0 50.55064114 55.08853755m0 76.05412345a126.70616968 126.70616968 0 1 1-0.12675728-253.4630425 126.70616968 126.70616968 0 1 1 0.12675728 253.4630425z"  horiz-adv-x="1024" />

    
    <glyph glyph-name="-8" unicode="&#58924;" d="M341.333333 192m-64 0a64 64 0 1 1 128 0 64 64 0 1 1-128 0ZM766.86222222 423.96444445h-242.72592555v145.63555556c0 26.77267001 21.77251555 48.54518557 48.54518443 48.54518556s48.54518557-21.77251555 48.54518557-48.54518556c0-66.91953778 54.44342557-121.36296334 121.36296334-121.36296335s121.36296334 54.44342557 121.3629622 121.36296335V824.46222223a36.40888889 36.40888889 0 0 1-72.81777778 0v-254.86222222c0-26.77267001-21.77251555-48.54518557-48.54518442-48.54518557s-48.54518557 21.77251555-48.54518556 48.54518557c0 66.91953778-54.44342557 121.36296334-121.36296335 121.36296334s-121.36296334-54.44342557-121.3629622-121.36296334v-145.63555556h-194.18074112C116.38101333 423.96444445 2.27555555 309.85898667000004 2.27555555 169.10222223000005s114.10545778-254.86222222 254.86222223-254.86222222h509.72444444C907.61898667-85.75999998999998 1021.72444445 28.345457779999947 1021.72444445 169.10222223000005s-114.10545778 254.86222222-254.86222223 254.86222222zM317.81925888 23.466666669999995a145.63555555 145.63555555 0 1 0 0 291.27111111 145.63555555 145.63555555 0 0 0 0-291.27111111z m412.63407445 60.6814811a36.40888889 36.40888889 0 1 0 0.02427222 72.84205113A36.40888889 36.40888889 0 0 0 730.45333333 84.14814777000004z m72.81777778 97.09037113a36.40888889 36.40888889 0 1 0 0.02427222 72.84204999A36.40888889 36.40888889 0 0 0 803.27111111 181.23851890000003z"  horiz-adv-x="1024" />

    
    <glyph glyph-name="-12" unicode="&#58928;" d="M977.42393215-36.197118860000046h-193.61635513C924.07305249 53.5898062 1017.31741209 210.42437408 1017.31741209 389.33333333c0 279.06819037-226.24922293 505.31741209-505.31741209 505.31741209S6.68258791 668.4015237 6.68258791 389.33333333s226.24922293-505.31741209 505.31741209-505.31741209c2.97871276 0 5.87763979 0.39893481 8.85635255 0.45212527 1.48935702-0.15957391 2.92552229-0.45212652 4.44147451-0.45212527h452.12610509a39.89347992 39.89347992 0 0 1 0 79.7869599z m-191.11636413 500.74296011a106.38261274 106.38261274 0 1 0-150.47820631-150.4516111 106.38261274 106.38261274 0 0 0 150.47820631 150.4516111z m-349.52007594 199.0950601a106.38261274 106.38261274 0 1 0 150.4516111-150.47820631 106.38261274 106.38261274 0 0 0-150.4516111 150.47820631z m-199.0950601-349.52007594a106.38261274 106.38261274 0 1 0 150.47820631 150.4516111 106.38261274 106.38261274 0 0 0-150.47820631-150.4516111z m199.0950601-48.64344904a106.38261274 106.38261274 0 1 0 150.4516111-150.47820629 106.38261274 106.38261274 0 0 0-150.4516111 150.47820629z"  horiz-adv-x="1024" />

    
    <glyph glyph-name="qq-fill" unicode="&#59247;" d="M917.42139694 262.67113243999995a1629.94585601 1629.94585601 0 0 1-34.40639999 96.13402983l-46.38492366 114.48411101c0 1.32528315 0.61166933 23.85510401 0.61166934 35.47682133C837.24174263 704.55125292 743.80925195 901.30488928 514.07644445 901.30488928S190.91114628 704.55125292 190.91114628 508.81706627c0-11.67269018 0.5606965-34.20250983 0.61166933-35.52779299l-46.38492365-114.48411101a1670.72381116 1670.72381116 0 0 1-34.4064-96.13402983c-43.83630183-139.51158084-29.61498982-197.26336001-18.808832-198.53767151 23.19246183-2.752512 90.2721995 105.00323515 90.27219832 105.00323634 0-62.390272 32.4694475-143.84423782 102.760448-202.66643949-26.25080849-8.00267418-58.46539418-20.33800534-79.21117868-35.4258485-18.60494182-13.60964268-16.26021018-27.52512-12.89602763-33.13208968 14.73103685-24.51774618 252.56846182-15.64854084 321.27931733-8.00267298 68.65988267-7.64586667 306.5482805-16.515072 321.22834448 8.05364582 3.36418133 5.60696849 5.70891417 19.47147417-12.89602884 33.08111684-20.74578449 15.08784316-52.96037018 27.42317551-79.26215031 35.47682133 70.29100049 58.77122884 102.760448 140.22519467 102.760448 202.66643831 0 0 67.0797365-107.80672 90.27219832-105.00323514 10.80615783 1.27431151 24.97649818 58.97511783-18.85980364 198.48669866"  horiz-adv-x="1024" />

    
    <glyph glyph-name="wechat-fill" unicode="&#59250;" d="M817.40906172 289.02047805999996a42.13755036 42.13755036 0 0 1 41.58188929 41.58189035c0 23.05989-18.475695 41.58189035-41.58188929 41.58189035s-41.58189035-18.52200036-41.58189037-41.58189035c0-23.15249964 18.52200036-41.58189035 41.58189037-41.58189035z m-204.899625 0a42.13755036 42.13755036 0 0 1 41.58188929 41.58189035c0 23.05989-18.52200036 41.58189035-41.58188929 41.58189035-23.15249964 0-41.58189035-18.52200036-41.58189038-41.58189035 0-23.15249964 18.475695-41.58189035 41.58189038-41.58189035z m304.08493501-233.37720001a16.06783464 16.06783464 0 0 1-7.96446039-17.13284928c0-2.22264 0-4.49158536 1.15762538-6.80683501 4.53788964-19.309185 13.61367001-50.05570537 13.61366999-51.21333072 0-3.38026536 1.15762536-5.64920964 1.15762428-7.96445927a10.18710036 10.18710036 0 0 0-10.23340463-10.18710036c-2.31524964 0-3.42656965 1.11132001-5.69551502 2.22264l-67.095945 38.71097964a36.99769536 36.99769536 0 0 1-15.92891961 4.53789072c-3.38026536 0-6.806835 0-9.07578038-1.11132001-31.85784036-9.12208464-64.82699964-13.65997537-100.06510534-13.65997535-169.4763 0-305.93713536 113.771385-305.93713429 254.90902501 0 141.09133464 136.46083536 254.90902501 305.93713429 254.90902498 169.42999464 0 305.89083-113.81769037 305.89082999-254.90902498 0-76.264335-40.93361965-145.67552964-105.76061927-192.35096964zM729.38325601 548.8841387699999a421.607025 421.607025 0 0 1-12.96539929 0.23152463c-193.27707036 0-352.19583036-132.43230036-352.19583037-301.21402535 0-25.65296964 3.70439963-50.47245036 10.55753999-74.08799928h-4.12114461a461.336715 461.336715 0 0 0-119.65212038 17.04023964c-3.42656965 1.15762536-6.85314036 1.15762536-10.27971 1.15762536a38.52576036 38.52576036 0 0 1-19.35549035-5.695515l-80.94113964-46.536525c-2.31524964-1.15762536-4.584195-2.31524964-6.85314035-2.31525072a12.64126499 12.64126499 0 0 0-12.50235 12.50235c0 3.42656965 1.11132001 5.695515 2.26894533 9.12208572 1.11132001 1.11132001 11.39102999 38.61837001 17.08654502 61.30781928 0 2.31524964 1.11132001 5.695515 1.11131999 7.96446036a25.74558036 25.74558036 0 0 1-10.23340463 20.46681036C52.63568134 304.53265377 3.64499172 387.41860341 3.64499172 479.47294305 3.64499172 648.62510877 168.95384173 784.99333341 371.76974172 784.99333341c174.338325 0 320.89365-100.435545 357.61351429-236.06289037z m-238.65597002-19.35549037c26.532765 0 47.50893 22.087485 47.50893 47.50893 0 26.532765-20.976165 47.50893-47.50893 47.50893s-47.50893-20.976165-47.50893-47.50893 20.976165-47.50893 47.50893-47.50893z m-243.56429926 0c26.532765 0 47.55523537 22.087485 47.55523427 47.50893 0 26.532765-21.02247036 47.50893-47.55523427 47.50893-26.48645964 0-47.50893-20.976165-47.50893-47.50893s21.02247036-47.50893 47.50893-47.50893z"  horiz-adv-x="1024" />

    
    <glyph glyph-name="Excel" unicode="&#58930;" d="M182.14400035 338.3296h608.6656v-5.597867H182.14400035zM182.14400035 185.34400000000005h312.046933v-5.597867H182.14400035zM182.14400035 422.2976h608.6656v-5.597867H182.14400035zM182.14400035 568.1152h608.6656v-5.597867H182.14400035zM182.14400035 736.256h608.6656v-5.597867H182.14400035zM182.14400035 101.30773299999998h312.046933v-5.597866H182.14400035zM182.14400035 652.219733h608.6656v-5.597866H182.14400035zM884.06186635 174.353067V831.556267C884.06186635 867.1232 855.11680035 896 819.61813335 896H154.97386635C119.40693335 896 90.53013335 867.1232 90.53013335 831.556267v-851.421867c0-35.566933 28.8768-64.443733 64.443733-64.443733h488.2432c7.714133-25.258667 31.197867-43.690667 58.914134-43.690667h179.2c34.065067 0 61.576533 27.648 61.576533 61.576533v179.336534c0.068267 33.1776-26.077867 60.0064-58.845867 61.44z m-56.797866-227.601067l-30.856534 55.227733c-0.887467 1.706667-1.911467 4.027733-3.072 7.168h-0.4096c-0.6144-1.570133-1.706667-3.8912-3.140266-7.168l-31.812267-55.227733h-30.1056l49.3568 75.707733L731.89546635 97.27999999999997h30.583467l27.170133-50.7904c1.774933-3.345067 3.345067-6.690133 4.7104-10.103467h0.341334c2.048 4.437333 3.754667 7.918933 5.256533 10.513067l28.2624 50.3808h28.125867l-46.421334-74.615467 47.377067-75.912533h-30.037333z m51.268266 227.7376H702.06293335c-34.065067 0-61.576533-27.648-61.576533-61.576533v-179.2c0-4.232533 0.477867-8.3968 1.2288-12.356267H154.97386635c-32.426667 0-58.845867 26.350933-58.845866 58.845867V831.556267C96.12800035 863.982933 122.47893335 890.402133 154.97386635 890.402133h664.712534c32.426667 0 58.845867-26.350933 58.845866-58.845866v-657.066667z"  horiz-adv-x="1024" />

    
    <glyph glyph-name="txt" unicode="&#58931;" d="M175.44230996 326.24165600000003h607.467568v-5.607745H175.44230996zM175.44230996 410.028807h607.467568v-5.607746H175.44230996zM175.44230996 555.586985h607.467568v-5.607745H175.44230996zM175.44230996 723.361562h607.467568v-5.607745H175.44230996zM175.44230996 639.4742739999999h607.467568v-5.607745H175.44230996zM175.44230996 173.58796299999995h311.401517v-5.607745H175.44230996zM175.44230996 89.68636900000001h311.401517v-5.607745H175.44230996zM878.92820696 174.603652V830.480938C878.92820696 865.958509 850.08837496 894.79834 814.61080496 894.79834H151.29467296C115.81710196 894.79834 86.97727096 865.958509 86.97727096 830.480938v-849.745044c0-35.477571 28.839832-64.317403 64.317402-64.317403h487.301603c7.667733-25.177631 31.128707-43.603079 58.824101-43.603079h178.875623c33.989802 0 61.456308 27.58095 61.456309 61.456308V113.26178700000003c0 33.088557-26.093181 59.854095-58.824102 61.341865z m-28.839832-110.209357h-43.173914v-129.078275h-24.934438v129.078275h-43.059471v21.157793h111.167823v-21.157793z m23.346531 110.338106H697.30593296c-33.989802 0-61.456308-27.58095-61.456308-61.456308v-178.875624c0-4.23442 0.457775-8.354396 1.258881-12.359928H151.29467296c-32.387589 0-58.709658 26.322069-58.709657 58.709658v849.745044c0 32.387589 26.322069 58.709658 58.709657 58.709658h663.430575c32.387589 0 58.709658-26.322069 58.709658-58.709658v-655.762842z"  horiz-adv-x="1024" />

    
    <glyph glyph-name="PDF" unicode="&#58932;" d="M179.77248334 724.318583h608.33442v-5.615747H179.77248334v5.615747z m0-84.006995h608.33442v-5.615747H179.77248334v5.615747z m0-229.78721h608.33442v-5.615747H179.77248334v5.615747z m0-83.892388h608.33442v-5.615747H179.77248334v5.615747z m0-152.885855h311.845885v-5.615747H179.77248334v5.615747z m0-84.006995h311.845885v-5.615747H179.77248334v5.615747z m0 466.565453h608.33442v-5.615747H179.77248334v5.615747z m606.486381-496.936331c1.94832 3.438213 3.438213 8.022496 3.323605 14.5551-0.114607 6.532604-1.719106 13.523636-4.584283 13.523636-1.260678 0-1.146071-9.85621-1.146071-9.856209 0.128933-5.271926 0.931183-13.179815 2.406749-18.222527z m-56.372362-97.18681c4.355069 1.94832 10.773066 8.022496 20.629276 23.379846-1.146071-1.031464-2.177535-2.062928-3.323605-3.094392-9.412107-7.564068-15.701171-16.044992-17.305671-20.285454z m55.455505 69.910323c-2.406749-6.074176-5.615747-13.409029-10.658459-22.921417-2.062928-3.896641-4.125855-7.449461-6.074176-11.002281 10.773066 4.011248 22.921417 7.449461 37.018089 10.200031-0.916857 0.687643-1.833713 1.489892-2.75057 2.177535-6.862099 5.730354-12.707061 12.950601-17.534884 21.546132z m0 0M884.26224934 174.777599V831.590817c0 35.528197-28.880986 64.409183-64.409183 64.409183H155.59038834C120.06219034 896 91.18120434 867.119014 91.18120434 831.590817v-850.957624c0-35.528197 28.880986-64.409183 64.409184-64.409183h487.996978c7.678675-25.213559 31.173128-43.6653 58.908043-43.6653h179.130877c34.038305 0 61.544006 27.620308 61.544006 61.544005V113.34820000000002c-0.014326 33.121448-26.130416 59.939507-58.908043 61.429399z m-22.018886-181.652234c-1.260678-1.833713-3.208998-3.094391-5.386534-3.667426-1.375285-0.343821-2.979784-0.573035-4.813497-0.573036-9.626995 0-24.869738 4.698891-37.247304 11.460709-15.586564-2.406749-33.350662-6.532604-49.051833-11.460709-14.325886-24.525917-24.525917-35.069769-34.038305-35.069768-1.833713 0-3.782034 0.458428-5.50114 1.260677l-3.55282 1.719107c-2.979784 1.719106-3.438213 5.157319-2.979784 7.793282 1.489892 7.105639 9.741602 15.471957 22.577596 23.036024 1.146071 0.687643 5.386533 2.979784 7.793282 4.125855l3.323605 1.719107c3.55282 5.959569 7.334854 12.835994 11.231495 20.400061l0.573035 1.031464c4.011248 7.678675 8.480924 16.503421 12.148352 25.098952l1.031464 2.521356c-5.042712 19.139384-7.793282 33.923698-5.042712 44.123729 1.146071 3.896641 5.271926 6.532604 10.20003 6.532604l2.292142-0.114607h0.343821c3.667427 0 6.876425-2.406749 8.710139-6.647211v-0.114607l0.458428-1.031464c0.343821-0.916857 0.573035-1.833713 0.687643-2.75057 1.146071-8.710139-3.094391-33.121448-3.323606-34.152912l-0.573035-2.406749c4.011248-10.658459 10.429245-20.514669 18.10792-27.505701 2.75057-2.521356 6.30339-4.698891 9.512388-6.532604 7.564068 1.031464 14.784314 1.489892 20.85849 1.489892h1.146071c10.200031-0.114607 16.618028-1.719106 19.827026-4.813498l0.573035-0.573035c1.031464-1.146071 1.719106-2.521356 2.062928-3.896641 0.587361-4.240462-0.100281-8.25171-1.94832-11.002281z m16.517746 181.766841H702.38080134c-34.038305 0-61.544006-27.620308-61.544005-61.544006v-179.130877c0-4.240462 0.458428-8.366317 1.260678-12.377566H155.59038834c-32.433806 0-58.793436 26.35963-58.793436 58.793436v850.957624c0 32.433806 26.35963 58.793436 58.793436 58.793436H819.95334734c32.433806 0 58.793436-26.35963 58.793436-58.793436v-656.698611z m0 0M848.085284 3.325395999999955c-5.042712 1.260678-6.532604 1.260678-11.689923 1.260678-2.75057 0-5.959569-0.114607-9.283174-0.343821 8.824746-3.782034 15.242743-6.074176 20.285454-6.074176 1.604499 0 4.011248 0.343821 4.928105 0.80225 0.816575 0.573035 0.816575 3.094391-4.240462 4.355069z m0 0"  horiz-adv-x="1024" />

    
    <glyph glyph-name="word" unicode="&#58933;" d="M175.72975496 640.1182180000001h608.48765v-5.617161H175.72975496zM175.72975496 89.40708900000004h311.924434v-5.617162H175.72975496zM175.72975496 556.090063h608.48765v-5.617162H175.72975496zM175.72975496 724.146374h608.48765v-5.617162H175.72975496zM175.72975496 410.273128h608.48765v-5.617162H175.72975496zM175.72975496 326.359609h608.48765v-5.617162H175.72975496zM175.72975496 173.435244h311.924434v-5.617161H175.72975496zM880.39697196 174.46696799999995V831.4456279999999c0 35.537146-28.888261 64.425407-64.425407 64.425407H151.54156796C116.00442196 895.871035 87.11616096 866.982774 87.11616096 831.4456279999999v-851.171968c0-35.537146 28.888261-64.425407 64.425407-64.425407H639.66146596c7.680609-25.21991 31.18098-43.676299 58.922881-43.676299h179.175998c34.046879 0 61.559508 27.627265 61.559508 61.559508V113.02209600000003c0 33.129791-26.136998 59.954605-58.922881 61.444872z m-181.927261 0.114636c-34.046879 0-61.559508-27.627265-61.559508-61.559508v-179.175998c0-4.24153 0.458544-8.368425 1.260995-12.380683H151.54156796c-32.441975 0-58.808245 26.36627-58.808245 58.808245v851.171968c0 32.441975 26.36627 58.808245 58.808245 58.808245h664.544633c32.441975 0 58.808245-26.36627 58.808245-58.808245v-656.864024H698.46971096zM854.74717696-55.793678h-26.35194l-26.738837 98.243014c-1.117701 4.184212-1.791187 8.755321-2.063447 13.713326h-0.386897a67.16234 67.16234 0 0 0-2.350037-13.512713l-26.839143-98.443627h-26.939449l-39.277144 140.472034h25.563818l25.463511-102.857111c1.046053-4.313178 1.69088-8.812639 1.963141-13.512713h0.487203c0.257931 3.324443 1.175019 7.838233 2.736933 13.512713l28.802284 102.857111h24.001903l26.63853-103.630904c0.917088-3.525056 1.604903-7.709268 2.063447-12.538307h0.386897c0.200613 3.267125 0.945747 7.580303 2.24973 12.925204l24.976309 103.244007h24.10221l-38.489022-140.472034z"  horiz-adv-x="1024" />

    
    <glyph glyph-name="ppt" unicode="&#58934;" d="M175.82258701 330.41159332999996h606.484734v-5.598672H175.82258701zM175.82258701 414.04890033h606.484734v-5.598672H175.82258701zM422.13559801 559.38586033h360.186005v-5.598673H422.13559801zM422.13559801 643.13742533h360.186005v-5.598672H422.13559801zM175.82258701 177.99059933h310.897694v-5.598672H175.82258701zM422.13559801 726.88899133h360.186005v-5.598672H422.13559801zM175.82258701 94.23903332999998h310.897694v-5.598672H175.82258701zM878.18458201 179.01892733V833.83505633c0 35.420171-28.793171 64.213342-64.213342 64.213342H151.72830101C116.30813001 898.04839833 87.51495901 869.25522733 87.51495901 833.83505633v-848.370225c0-35.420171 28.793171-64.213342 64.213342-64.213342h486.513187c7.655327-25.136896 31.078344-43.532533 58.728929-43.532533H875.55663401c33.934809 0 61.356877 27.536326 61.356877 61.356877V117.77630833c-0.014282 33.02074-26.065247 59.757256-58.728929 61.242619z m-42.604181-161.690225c-9.897653-9.26923-23.294475-13.910987-40.161904-13.910986H775.43752201v-54.401384h-24.79412V99.02361332999999h45.503494c17.224486 0 30.578462-4.013334 40.061927-12.025719 9.483465-8.026668 14.225198-19.323988 14.225198-33.891962 0-14.582256-4.941685-26.507999-14.85362-35.77723z m37.119768 161.804483H696.85615901c-33.934809 0-61.356877-27.536326-61.356877-61.356877v-178.586217c0-4.227569 0.457034-8.340879 1.256844-12.33993H151.72830101c-32.335188 0-58.61467 26.279482-58.61467 58.61467v848.370225c0 32.335188 26.279482 58.61467 58.61467 58.61467h662.357198c32.335188 0 58.61467-26.279482 58.61467-58.61467v-654.701871zM793.53323001 78.51419133000002H775.43752201v-54.815571h16.110465c10.668898 0 18.795542 2.470843 24.379932 7.42681s8.369444 11.925743 8.369444 20.923609c-0.014282 17.652956-10.254711 26.465152-30.764133 26.465152zM346.82488801 551.51629733c6.027142 0 10.940262 5.927166 10.940263 13.225435V712.72092233c0 7.298269-4.91312 13.225435-10.940263 13.225435H177.49361901c-6.027142 0-10.940262-5.927166-10.940263-13.225435v-147.97919c0-7.298269 4.91312-13.225435 10.940263-13.225435H346.82488801z m-174.558601 13.225435V712.72092233c0 4.070463 2.399431 7.512504 5.227332 7.512504H346.82488801c2.827901 0 5.227332-3.442041 5.227332-7.512504v-147.97919c0-4.070463-2.399431-7.512504-5.227332-7.512504H177.49361901c-2.827901 0-5.227332 3.442041-5.227332 7.512504zM255.57510101 587.1649863299999c25.265436 0 45.746293 20.152363 45.746293 45.017894 0 6.527023-1.399668 12.739836-3.956204 18.352791l-41.775807-17.724368 16.995969 41.175949c-5.255896 2.070937-10.997392 3.213524-17.010251 3.213523-25.265436 0-45.746293-20.152363-45.746294-45.017895s20.480857-45.017895 45.746294-45.017894zM229.64196568 664.383503a70.46186 70.46186 0 0 1-24.037157 22.594641l-21.509184-45.403517 45.546341 22.808876z"  horiz-adv-x="1024" />

    
    <glyph glyph-name="VIP9" unicode="&#58937;" d="M912.64 250.88c-28.16-137.728-112.384-241.152-210.688-254.976-82.688-11.52-156.416 43.008-209.664 82.432-79.616 59.136-123.648 129.536-145.92 172.544-59.392 38.912-112.64 86.528-157.184 141.824-55.552 68.864-96.768 119.808-89.856 183.296 6.656 60.928 54.016 102.4 112.384 153.344a576.768 576.768 0 0 0 134.656 87.552h566.272c173.056 16.384 320.256-118.016 324.608-274.688 4.608-162.304-144.896-307.968-324.608-291.328z m0 0M951.04 606.2080000000001l-4.864-212.992-273.664-250.368 278.528 463.36z m0 0M951.04 606.2080000000001l-278.528-463.36 84.48 356.864 194.048 106.496z m0 0M910.336 538.3679999999999l2.304-39.68-33.28-11.776 30.976 51.456z m0 0M910.336 538.3679999999999l-33.792-16.384 4.096-35.072 29.696 51.456z m0 0M672.512 142.84799999999996l-273.92 250.368-4.864 212.992 278.784-463.36z m-84.224 358.144l84.48-356.864-278.784 462.08 194.304-105.216z m0 0M465.92 486.912l-33.28 11.776 2.304 39.68 30.976-51.456z m0 0M465.92 486.912l4.096 35.072-35.072 16.384 30.976-51.456z m0 0M845.824 702.4639999999999l53.76-224.768-227.072-334.592 173.312 559.36z m0 0M845.824 702.4639999999999l-173.312-559.36-4.608 397.824 177.92 161.536z m0 0M821.504 624.896l14.336-44.544-37.888-32 23.552 76.544z m0 0M821.504 624.896l-38.656-25.6 15.104-50.944 23.552 76.544z m0 0M1766.4 422.912l3.84-16.128-55.552-81.92 6.912 45.312 44.8 52.736z m0 0M672.512 142.84799999999996l-227.072 334.592 53.76 224.768 173.312-559.36z m0 0M677.12 540.672l-4.608-397.824-173.312 559.616 177.92-161.792z m0 0M547.072 548.096l-37.888 32 14.336 44.544 23.552-76.544z m0 0M547.072 548.096l15.104 50.944-38.656 25.6 23.552-76.544z m0 0M644.352 327.67999999999995l28.16-184.832-227.072 334.592 15.872 65.536 183.04-215.296z m0 0M672.512 772.352l-127.488-215.296 127.488-414.208V772.352z m0 0M672.512 772.352v-629.504l128.768 409.6-128.768 219.904z m0 0M672.512 669.44l-46.848-67.84 46.848-57.088V669.44z m0 0M672.512 669.44L717.056 601.6l-44.288-57.088V669.44z m0 0M3006.72 815.104H1084.672L1006.08 895.744H338.944L0 546.048l667.136-672.512 135.168 134.656 2204.416 0.768c171.776-2.304 312.832 168.96 323.84 374.016 12.288 224.512-134.4 433.152-323.84 432.128zM112.896 546.048L381.952 815.104h564.992l269.056-269.056L667.136-2.5599999999999454 112.896 546.048z m0 0M2525.952 503.808c-7.68-57.6-32.256-104.448-73.728-140.288-39.936-34.048-86.016-50.944-138.496-50.944h-198.656l-16.896-128.256h-118.016l34.048 259.84h327.936c15.872 0 31.232 5.888 43.008 16.384 12.544 11.008 19.968 25.6 22.272 43.776 2.304 18.176-1.28 32.512-11.008 43.008-9.216 10.496-22.016 15.872-38.4 15.872H2030.08l95.232 131.84h238.848c51.968 0 93.44-16.896 124.672-50.944 32.256-36.096 44.544-82.688 37.12-140.288zM1797.632 184.32000000000005l67.072 510.72h118.272L1915.648 184.32000000000005h-118.016z m-302.336-7.936c-19.2 0-35.584 19.456-49.664 58.112L1279.744 695.04H1408.256l112.384-315.904 185.856 315.904h129.28L1558.272 233.72799999999995c-23.04-38.144-43.776-57.344-62.976-57.344z m1426.944 217.6h-335.36V695.04h450.048v-542.464h-450.048v49.152h335.36v192.256z m-220.672 251.904v-202.752h220.672V645.888h-220.672z m220.672-444.16"  horiz-adv-x="3338" />

    
    </font>
</defs>
</svg>
