<?xml version="1.0" standalone="no"?>
<!DOCTYPE svg PUBLIC "-//W3C//DTD SVG 1.1//EN" "http://www.w3.org/Graphics/SVG/1.1/DTD/svg11.dtd" >
<!--
2013-9-30: Created.
-->
<svg>
<metadata>
Created by iconfont
</metadata>
<defs>

<font id="iconfont" horiz-adv-x="1024" >
  <font-face
    font-family="iconfont"
    font-weight="500"
    font-stretch="normal"
    units-per-em="1024"
    ascent="896"
    descent="-128"
  />
    <missing-glyph />
    
    <glyph glyph-name="tishi" unicode="&#58952;" d="M512.002519 812C229.203758 812 0 582.707492 0 299.996231c0-282.70501 229.203758-511.996269 512.002519-511.996269 282.79251 0 511.997519 229.375008 511.997519 511.996269C1023.998787 582.707492 794.795029 812 512.002519 812L512.002519 812zM592.300022 111.666224c-38.657501-58.026252-77.910003-102.656254-144.131255-102.656254-45.141252 7.33875-63.657502 39.682501-53.842502 72.623753l85.077503 281.68501c2.04625 6.90875-1.36625 14.247501-7.68 16.468751-6.23 2.2175-18.603751-5.97625-29.272501-17.577501l-51.367502-61.870002c-1.3675 10.3275-0.0875 27.563751-0.0875 34.477501 38.573751 58.027502 102.060004 103.765004 145.151255 103.765004 40.878751-4.18 60.161252-36.948751 53.081252-72.876253L503.550018 82.652473c-1.10875-6.48375 2.22125-12.79625 8.11-15.013751 6.225-2.13375 19.541251 5.97125 30.205001 17.661251l51.455002 61.865002C594.605022 136.843725 592.300022 118.664975 592.300022 111.666224L592.300022 111.666224zM580.863771 479.627488c-32.597501 0-58.881252 23.637501-58.881252 58.622502 0 34.985001 26.367501 58.622502 58.881252 58.622502 32.426251 0 58.965002-23.637501 58.965002-58.622502C639.828773 503.264989 613.373772 479.627488 580.863771 479.627488L580.863771 479.627488zM580.863771 479.627488"  horiz-adv-x="1024" />

    
    <glyph glyph-name="yuandianxiao" unicode="&#59223;" d="M480 416m-160 0a2.5 2.5 0 1 0 320 0 2.5 2.5 0 1 0-320 0Z"  horiz-adv-x="1024" />

    
    <glyph glyph-name="weibo2" unicode="&#58922;" d="M758.518519 395.136978c-39.731922 7.825985-20.46796 28.895944-20.46796 28.895944s39.129924 64.413874-7.825985 110.767784c-57.791887 57.791887-198.659612-7.223986-198.659612-7.223986-53.577895-16.855967-39.731922 7.825985-31.905938 48.761905 0 48.761905-16.855967 131.235744-159.529688 82.473839C197.455614 610.050558 74.647854 438.480894 74.647854 438.480894-10.835979 324.703116 0.601999 236.811287 0.601999 236.811287c21.069959-194.44562 227.555556-247.421517 388.289242-260.063492 169.16167-13.243974 396.717225 58.393886 465.94709 205.281599C924.068195 328.917108 798.250441 386.708995 758.518519 395.136978zM401.533216 31.529688c-167.957672-7.825985-303.407407 76.453851-303.407407 188.425632 0 111.971781 135.449735 201.669606 303.407407 209.495591 167.957672 7.825985 303.407407-61.40388 303.407407-173.375661C704.940623 144.103469 568.888889 38.753674 401.533216 31.529688zM367.821282 355.405056c-168.559671-19.865961-149.295708-177.589653-149.295708-177.589653s-1.805996-49.965902 45.149912-75.249853c98.727807-53.577895 200.465608-21.069959 251.635509 45.149912C567.082892 213.333333 536.982951 374.669018 367.821282 355.405056zM325.079365 133.869489c-31.303939-3.611993-56.587889 14.447972-56.587889 40.93592 0 26.487948 22.273956 53.577895 54.179894 57.189888 36.119929 3.611993 59.597884-17.457966 59.597884-43.945914C382.269253 161.561434 356.383304 136.879483 325.079365 133.869489zM424.409171 218.149324c-10.835979-7.825985-24.079953-6.621987-29.497942 2.407995-6.019988 9.029982-3.611993 24.079953 7.223986 31.905938 12.641975 9.029982 25.283951 6.621987 31.303939-2.407995C438.857143 241.025279 435.24515 226.577307 424.409171 218.149324zM840.390359 463.162845c13.845973 0 25.283951 10.23398 27.089947 22.875955 0 1.203998 0.601999 1.805996 0.601999 3.009994 20.46796 185.415638-151.703704 153.5097-151.703704 153.5097-15.049971 0-27.691946-12.641975-27.691946-27.691946 0-15.049971 12.039976-27.691946 27.691946-27.691946 124.011758 27.089947 96.319812-96.319812 96.319812-96.319812C812.698413 475.804821 825.340388 463.162845 840.390359 463.162845zM820.524397 786.436214c-59.597884 13.845973-121.001764 1.805996-137.857731-1.203998-1.203998 0-2.407995-1.203998-3.611993-1.805996-0.601999 0-1.203998-0.601999-1.203998-0.601999-16.855967-4.815991-29.497942-20.46796-29.497942-39.129924 0-22.273956 18.059965-40.333921 40.333921-40.333921 0 0 21.671958 3.009994 36.119929 8.427984 14.447972 6.019988 137.857731 4.213992 199.261611-98.727807 33.711934-75.249853 14.447972-125.215755 12.641975-133.643739 0 0-7.825985-19.263962-7.825985-38.527925 0-22.273956 18.059965-36.119929 40.333921-36.119929 18.661964 0 34.313933 2.407995 38.527925 33.711934l0 0C1073.363904 658.812463 927.078189 761.754262 820.524397 786.436214z"  horiz-adv-x="1025" />

    
    <glyph glyph-name="weixin2" unicode="&#59193;" d="M331.428571 632.571429q0 23.428571-14.285714 37.714285t-37.714286 14.285715q-24.571429 0-43.428571-14.571429T217.142857 632.571429q0-22.285714 18.857143-36.857143t43.428571-14.571429q23.428571 0 37.714286 14t14.285714 37.428572z m424.571429-289.714286q0 16-14.571429 28.571428t-37.428571 12.571429q-15.428571 0-28.285714-12.857143T662.857143 342.857143q0-16 12.857143-28.857143t28.285714-12.857143q22.857143 0 37.428571 12.571429t14.571429 29.142857z m-134.857143 289.714286q0 23.428571-14 37.714285T569.714286 684.571429q-24.571429 0-43.428572-14.571429T507.428571 632.571429q0-22.285714 18.857143-36.857143t43.428572-14.571429q23.428571 0 37.428571 14T621.142857 632.571429z m362.857143-289.714286q0 16-14.857143 28.571428t-37.142857 12.571429q-15.428571 0-28.285714-12.857143T890.857143 342.857143q0-16 12.857143-28.857143t28.285714-12.857143q22.285714 0 37.142857 12.571429t14.857143 29.142857z m-152 226.857143q-17.714286 2.285714-40 2.285714-96.571429 0-177.714286-44T486.571429 408.857143 440 244.571429q0-44.571429 13.142857-86.857143-20-1.714286-38.857143-1.714286-14.857143 0-28.571428 0.857143t-31.428572 3.714286-25.428571 4-31.142857 6-28.571429 6l-144.571428-72.571429 41.142857 124.571429Q0 344.571429 0 508.571429q0 96.571429 55.714286 177.714285t150.857143 127.714286T414.285714 860.571429q100.571429 0 190-37.714286t149.714286-104.285714T832 569.714286z m338.285714-320.571429q0-66.857143-39.142857-127.714286T1025.142857 10.857143l31.428572-103.428572-113.714286 62.285715q-85.714286-21.142857-124.571429-21.142857-96.571429 0-177.714285 40.285714T512.857143 98.285714 466.285714 249.142857t46.571429 150.857143T640.571429 509.428571t177.714285 40.285715q92 0 173.142857-40.285715t130-109.714285T1170.285714 249.142857z"  horiz-adv-x="1170" />

    
    <glyph glyph-name="touxiang" unicode="&#58895;" d="M510.45 825.446c-243.163 0-442.115-198.951-442.115-442.115 0-243.16 198.952-442.11 442.116-442.11 243.159 0 442.11 198.95 442.11 442.11 0 243.165-198.951 442.115-442.11 442.115z m11.051-132.633c168.556 0 168.556-127.11 168.556-198.95 0-71.847-66.318-204.48-168.556-207.24-99.475 0-168.556 132.632-168.556 207.24 0.001 71.841 0.001 198.95 168.556 198.95z m-11.05-726.723c-127.11 0-243.164 58.03-320.534 149.211 11.051 27.635 24.868 58.03 44.212 74.607 41.446 33.162 165.79 88.425 165.79 88.425l77.37-149.215 13.816 35.923L469 209.25300000000004l44.212 44.208 44.212-44.208-19.345-46.974 11.055-35.924 80.132 146.45s124.343-55.262 165.793-88.424c19.34-13.813 33.157-38.685 41.447-60.787C761.9 26.879999999999995 643.082-33.90999999999997 510.45-33.90999999999997z m0 0"  horiz-adv-x="1024" />

    
    <glyph glyph-name="fujianshangchuan02" unicode="&#59018;" d="M832.39822222 558.76266667C803.27111111 708.03911111 672.19911111 820.90666667 512 820.90666667s-291.27111111-112.86755555-320.39822222-262.144C82.37511111 529.6355555499999 2.27555555 427.69066667 2.27555555 311.18222221999997c0-141.99466667 112.86755555-254.86222222 254.86222223-254.86222222h36.40888889v72.81777778h-36.40888889c-101.94488889 0-182.04444445 80.09955555-182.04444445 182.04444444s80.09955555 182.04444445 182.04444445 182.04444445c0 141.99466667 112.86755555 254.86222222 254.86222222 254.86222222s254.86222222-112.86755555 254.86222222-254.86222222c101.94488889 0 182.04444445-80.09955555 182.04444445-182.04444445s-80.09955555-182.04444445-182.04444445-182.04444444h-36.40888889v-72.81777778h36.40888889c141.99466667 0 254.86222222 112.86755555 254.86222223 254.86222222 0 116.50844445-80.09955555 218.45333333-189.32622223 247.58044445zM544.768 409.48622222c-14.56355555 10.92266667-29.12711111 14.56355555-43.69066667 7.28177778-3.64088889 0-7.28177778-3.64088889-10.92266666-7.28177778l-109.22666667-105.58577777c-14.56355555-14.56355555-14.56355555-36.40888889 0-50.97244445 14.56355555-14.56355555 40.04977778-14.56355555 54.61333333 0l43.69066667 40.04977778v-309.47555556c0-21.84533333 18.20444445-36.40888889 36.40888889-36.40888889 21.84533333 0 36.40888889 18.20444445 36.40888889 36.40888889V292.97777778l43.69066667-40.04977778c14.56355555-14.56355555 40.04977778-14.56355555 54.61333333 0 14.56355555 14.56355555 14.56355555 36.40888889 0 50.97244445l-105.58577778 105.58577777z"  horiz-adv-x="1024" />

    
    <glyph glyph-name="xiangji" unicode="&#59015;" d="M512 315.733333m-102.4 0a102.4 102.4 0 1 1 204.8 0 102.4 102.4 0 1 1-204.8 0ZM948.90666667 675.27111148h-141.84903147a72.81777813 72.81777813 0 0 0-66.1549504 42.3981504l-27.98023147 60.83925333A72.81777813 72.81777813 0 0 1 646.76750187 820.90666668H387.37237333a72.78136853 72.78136853 0 0 1-66.15495146-42.39815147l-27.9802304-60.83925333A72.81777813 72.81777813 0 0 0 227.08224 675.27111148H75.09333333c-40.04977813 0-72.81777813-32.768-72.81777813-72.81777814v-582.54222186c0-40.04977813 32.768-72.81777813 72.81777813-72.81777814h873.81333334c40.04977813 0 72.81777813 32.768 72.81777813 72.81777814V602.45333334c0 40.04977813-32.768 72.81777813-72.81777813 72.81777814zM257.13777813 493.22666668h-109.22666666a36.40888853 36.40888853 0 0 0 0 72.81777813h109.22666666a36.40888853 36.40888853 0 0 0 0-72.81777813z m254.86222187-364.08888854c-100.37930667 0-182.0444448 81.66513813-182.0444448 182.04444374s81.66513813 182.02624 182.0444448 182.02624S694.0444448 411.56152854 694.0444448 311.18222188000004s-81.66513813-182.0444448-182.0444448-182.04444374z"  horiz-adv-x="1024" />

    
    <glyph glyph-name="shanglasanjiaofuhao" unicode="&#59043;" d="M512 460.8l-127.93344-158.72h255.86688z"  horiz-adv-x="1024" />

    
    <glyph glyph-name="xialasanjiaofuhao" unicode="&#59051;" d="M512 302.08L384.06656 460.8h255.86688z"  horiz-adv-x="1024" />

    
    <glyph glyph-name="fanhui-copy-copy-copy-copy" unicode="&#58880;" d="M522.97093947 202.82769323000002v0c2.70640129 1.56133639 5.6158463 2.70640128 8.00781622 5.0996442 0.41945402 0.52193063 0.72688388 0.93565613 1.1450649 1.35320063 0.52193063 0.62249775 1.35320064 0.83190652 1.87003927 1.35447365l280.75285256 291.25447879c7.48715858 7.69720383 11.23296563 17.68453747 11.23296562 27.67059809 0 10.40360513-4.16080553 20.90968686-12.27300789 28.71064031-15.91442881 15.29193104-41.19496649 14.87438654-56.48307852-1.04004225l-253.18727711-262.75388374-249.54076421 263.79392599c-15.18754492 16.01817843-40.46426361 16.74888133-56.48307852 1.56133637-16.01881492-15.18818141-16.74888133-40.46426361-1.5613364-56.48307849l278.04581481-293.9602436c12.16798527-12.89868815 30.89192847-15.29256754 46.08010989-8.0090892 0.8306335 0.30742987 1.56133639 1.03940576 2.39196988 1.45313127v0zM522.97093947 202.82769323000002z"  horiz-adv-x="1024" />

    
    <glyph glyph-name="sousuo1" unicode="&#58989;" d="M475.13842494 886.65784716C217.94515942 886.65784716 9.34215284 677.2170771 9.34215284 420.86157506s208.60300658-465.7962721 465.7962721-465.79627091c101.36933291 0 197.71208613 31.83499658 278.97510517 92.99170174l12.56644619 9.21539345 160.85051109-160.85051109c19.26855039-19.26855039 52.77907394-19.26855039 72.04762436 0 10.05315695 10.05315695 15.07973541 22.61960312 15.07973541 36.02381277 0 13.40420966-5.02657847 26.80841811-15.07973541 36.02381159L838.72760066 129.32002369999998l9.21539345 12.56644619c60.31894167 81.26301903 92.99170172 177.60577227 92.99170174 278.97510517 0 256.35550205-209.44077005 465.7962721-465.79627091 465.7962721z m0-828.54768432c-200.22537538 0-362.75141346 162.52603685-362.75141343 362.75141222s162.52603685 362.75141346 362.75141343 362.75141343 362.75141346-162.52603685 362.75141222-362.75141343-162.52603685-362.75141346-362.75141222-362.75141222z"  horiz-adv-x="1024" />

    
    <glyph glyph-name="QQ2" unicode="&#58927;" d="M794.5 174.1c-9.7-56.1-35.7-106.6-73.3-146.4 40.8-18.9 77.6-47.7 77.6-90.3H225c0 42.6 36.9 71.3 77.6 90.3-37.6 39.8-63.7 90.3-73.3 146.4-43.1-63.2-106.8-94.5-106.8-94.5 0 164 102.5 386 102.5 386v81.2c0 157.1 128.5 284.4 286.9 284.4 158.5 0 286.9-127.3 286.9-284.4v-81.2s102.4-222 102.4-386c0.1 0-63.7 31.3-106.7 94.5z m0 0"  horiz-adv-x="1024" />

    
    <glyph glyph-name="duigou" unicode="&#58942;" d="M356.7 175.7c-12.8 15.2-10.8 37.9 4.4 50.7l441.2 370.2c15.2 12.8 37.9 10.8 50.7-4.4 12.8-15.2 10.8-37.9-4.4-50.7L407.4 171.3c-15.2-12.8-37.9-10.8-50.7 4.4zM406.7 171.3c-15.2-12.8-37.9-10.8-50.7 4.4L170.9 396.4c-12.8 15.2-10.8 37.9 4.4 50.7 15.2 12.8 37.9 10.8 50.7-4.4L411.2 222c12.7-15.2 10.8-37.9-4.5-50.7z"  horiz-adv-x="1024" />

    
    <glyph glyph-name="iconlinesmartphone" unicode="&#58914;" d="M788.97277865 891.78342715H235.02722135C184.24887897 891.78342715 142.70296217 845.6212981 142.70296217 790.22674238v-812.45348476C142.70296217-77.62129809999999 184.24887897-123.78342714999997 235.02722135-123.78342714999997h553.9455573c50.77834239 0 92.32425919 46.16213013 92.32425918 101.55668477V790.22674238C881.29703783 845.6212981 839.75112103 891.78342715 788.97277865 891.78342715z m0-923.24259513H235.02722135v184.64851947h553.9455573v-184.64851947zM235.02722135 245.51361068000006V799.45916798h553.9455573v-553.9455573H235.02722135zM512 60.865091219999954m-46.16213013 0a46.16213013 46.16213013 0 1 1 92.32426026 0 46.16213013 46.16213013 0 1 1-92.32426026 0Z"  horiz-adv-x="1024" />

    
    <glyph glyph-name="iconlineuser" unicode="&#58916;" d="M919.19555515-122.12955595000005c-30.58346667 0-50.97244484 20.38897818-50.97244365 50.97244485v101.94488848c0 86.65315515-66.26417818 152.91733333-152.91733332 152.91733335H307.52622181c-86.65315515 0-152.91733333-66.26417818-152.91733332-152.91733335v-101.94488848c0-30.58346667-20.38897818-50.97244484-50.97244365-50.97244485s-50.97244484 20.38897818-50.97244486 50.97244485v101.94488848c0 142.72284485 112.13937818 254.86222183 254.86222183 254.86222301h407.77955637c142.72284485 0 254.86222183-112.13937818 254.86222183-254.86222301v-101.94488848c0-30.58346667-20.38897818-50.97244484-50.97244486-50.97244485zM511.416 387.5948889c-142.72284485 0-254.86222183 112.13937818-254.86222183 254.86222182s112.13937818 254.86222183 254.86222183 254.86222301 254.86222183-112.13937818 254.86222182-254.86222301-112.13937818-254.86222183-254.86222182-254.86222182z m0 407.77955515c-86.65315515 0-152.91733333-66.26417818-152.91733333-152.91733333s66.26417818-152.91733333 152.91733333-152.91733333 152.91733333 66.26417818 152.91733333 152.91733333-66.26417818 152.91733333-152.91733333 152.91733333z"  horiz-adv-x="1024" />

    
    <glyph glyph-name="iconlineedit-" unicode="&#58920;" d="M874.28492378 764.92355988c9.86314835 0 19.72629785 0 34.52102097-14.79472311 14.7947231-14.7947231 14.7947231-29.58944621 14.7947231-34.5210198 0-9.86314835 0-24.65787145-14.7947231-34.52102097L543.8694419 326.01344151l-73.97361553-14.7947231 14.79472311 73.97361552L839.76390399 750.12883677c14.7947231 14.7947231 29.58944621 14.7947231 34.52101979 14.79472311m0 98.63148813c-39.45259456 0-78.90519027-14.7947231-103.56306173-44.38416932L395.92221086 434.50807798l-49.31574407-246.57871916 246.57871802 49.31574406 384.66280071 374.79965235c59.17889241 59.17889241 59.17889241 152.87880579 0 212.05769706-24.65787145 24.65787145-64.11046717 39.45259456-103.56306174 39.45259572zM839.76390399-107.96510326999999H149.34349168c-83.83676387 0-147.94723103 64.11046717-147.94723103 147.94723104V730.40254007c0 83.83676387 64.11046717 147.94723103 147.94723103 147.94723104h295.89446209c29.58944621 0 49.31574407-19.72629785 49.31574406-49.31574406s-19.72629785-49.31574407-49.31574406-49.31574407H149.34349168c-29.58944621 0-49.31574407-19.72629785-49.31574291-49.31574291v-690.4204123c0-29.58944621 19.72629785-49.31574407 49.31574291-49.3157429h690.42041231c29.58944621 0 49.31574407 19.72629785 49.3157429 49.3157429v246.57871918c0 29.58944621 19.72629785 49.31574407 49.31574406 49.31574291s49.31574407-19.72629785 49.31574407-49.31574291v-246.57871918c0-83.83676387-64.11046717-147.94723103-147.94723103-147.94723104z"  horiz-adv-x="1024" />

    
    <glyph glyph-name="heart" unicode="&#58923;" d="M313.20746667 740.80711151c50.97244484 0 96.84764485-15.29173332 137.6256-45.8752L512 638.86222183l66.26417818 50.97244483c35.68071151 35.68071151 86.65315515 50.97244484 132.52835515 50.97244485 56.06968849 0 107.04213334-20.38897818 147.82008849-61.16693334 40.77795516-35.68071151 61.16693333-86.65315515 61.16693334-137.6256 0-50.97244484-20.38897818-101.94488849-61.16693334-137.62559999L512 67.97084485000005l-346.61262182 336.41813333C124.60942182 440.06968849 104.22044484 491.04213334 104.22044484 542.01457817c0 50.97244484 20.38897818 101.94488849 61.16693334 137.6256C201.06808849 720.41813333 257.13777817 740.80711151 313.20746667 740.80711151m0 101.94488849C231.65155516 842.752 155.19288849 812.16853332 94.02595516 756.09884484c-122.33386667-117.23662183-122.33386667-305.83466666 0-423.07128968l417.97404484-407.77955516 417.97404484 407.77955516c122.33386667 117.23662183 122.33386667 305.83466666 0 423.07128968C868.80711151 812.16853332 792.34844484 842.752 710.79253333 842.752c-71.36142183 0-142.72284485-25.48622182-198.79253333-71.36142182C455.93031151 817.26577818 384.5688885 842.752 313.20746667 842.752z"  horiz-adv-x="1024" />

    
    <glyph glyph-name="jiazai" unicode="&#58984;" d="M782.065385-5.683615c10.892554-18.38743 4.796721-42.970626-14.290231-53.363521-18.687226-10.892554-42.470967-4.496926-53.063726 14.290232-11.392212 18.38743-4.796721 42.470967 13.690641 53.363521 19.386747 10.792622 42.770762 4.197131 53.663316-14.290232z m-230.342539-83.243095c0-21.285449-17.587977-39.07329-39.67288-39.07329-21.285449 0-39.07329 17.388114-39.07329 39.07329v27.381282c0 21.785108 17.887772 39.173221 39.07329 39.173222 21.785108 0 39.67288-17.388114 39.67288-39.173222v-27.381282z m-241.135162 44.169806c-11.092417-19.286816-35.175954-25.382649-53.663316-14.490095-18.987021 10.692691-25.682444 34.576364-14.490095 53.663316l29.080121 50.865229c11.192349 18.687226 35.175954 25.182785 54.162975 14.490094 18.38743-10.892554 25.182785-35.175954 13.990436-53.663316l-29.080121-50.865228zM123.415634 113.235093c-18.987021-10.592759-43.270421-4.197131-53.663316 14.490095-11.092417 18.38743-4.796721 42.770762 13.990436 53.663316l78.146579 45.269054c18.687226 10.392895 42.970626 4.496926 53.663317-14.490094 10.592759-18.38743 4.097199-42.770762-14.490095-53.663316l-77.646921-45.269055zM40.27247 344.177223c-21.785108 0-39.07329 17.587977-39.07329 39.073289 0 21.785108 17.288182 39.373085 39.07329 39.373085h121.716795c21.785108 0 39.07329-17.587977 39.07329-39.07329 0-21.785108-17.288182-39.373085-39.07329-39.373084H40.27247z m43.570216 241.534888c-18.987021 10.592759-25.182785 34.576364-13.990437 53.363521 10.392895 18.987021 34.576364 25.382649 53.663317 14.490095L255.82512 576.718259c18.687226-10.692691 24.88299-34.576364 14.490094-53.063726-11.092417-18.987021-35.175954-25.082854-53.563384-14.490095l-132.909144 76.547673z m158.591587 187.072119l92.137016-159.990632c11.192349-18.687226 35.175954-25.382649 53.86318-14.290231 18.687226 10.592759 24.88299 34.876159 13.990436 53.663316L309.888162 811.857519C299.295404 830.344881 275.311799 837.040304 256.824436 826.147751c-18.987021-10.892554-25.082854-34.976091-14.390163-53.363521z m230.642335 82.643505c0 21.285449 17.887772 39.373085 39.07329 39.373085 21.785108 0 39.67288-17.687909 39.672879-39.373085V671.153704c0-21.785108-17.587977-39.373085-39.672879-39.67288-21.285449 0-39.07329 17.288182-39.07329 39.67288V855.427735z m241.135161-43.570216c11.192349 18.987021 34.876159 25.182785 53.663316 14.490095 18.987021-10.592759 25.682444-34.576364 14.490095-53.663316l-92.336879-159.990632c-10.392895-18.687226-34.976091-25.282717-53.663316-14.490094-18.687226 10.892554-24.88299 35.175954-14.290231 53.963111l92.137015 159.690836z m187.671709-158.291792L741.692983 561.228847c-18.687226-10.592759-25.182785-34.576364-14.490094-53.663316 11.092417-18.38743 35.175954-24.583195 53.663316-14.290231l160.290426 92.336879c18.38743 10.592759 25.182785 34.576364 13.990436 53.363521-10.792622 18.987021-34.876159 25.782375-53.263589 14.590027z m82.34371-230.94213c21.984971 0 39.373085-17.587977 39.07329-39.373085 0-21.485313-16.988387-39.07329-39.07329-39.073289H799.753294c-21.285449 0-39.173221 17.587977-39.173222 39.373084 0 21.485313 17.887772 39.07329 39.173222 39.07329h184.473894z"  horiz-adv-x="1024" />

    
    <glyph glyph-name="fanhui-copy-copy-copy-copy1" unicode="&#58883;" d="M501.02906053 565.17230677v0c-2.70640129-1.56133639-5.61584631-2.70640128-8.00781622-5.0996442-0.41945402-0.52193063-0.72688388-0.93565613-1.14506489-1.35320063-0.52193063-0.62249775-1.35320064-0.83190651-1.87003928-1.35447365l-280.75285256-291.25447878c-7.48715858-7.69720384-11.23296563-17.68453746-11.23296562-27.67059809 0-10.40360513 4.16080553-20.90968686 12.27300789-28.71064032 15.91442881-15.29193105 41.19496649-14.87438654 56.48307852 1.04004225l253.18727711 262.75388375 249.54076421-263.793926c15.18754492-16.01817843 40.46426359-16.74888132 56.48307852-1.56133637 16.01881492 15.18818142 16.74888132 40.46426359 1.56133639 56.48307849l-278.04581478 293.9602436c-12.16798527 12.89868815-30.89192847 15.29256755-46.08010991 8.0090892-0.8306335-0.30742987-1.56133639-1.03940576-2.39196988-1.45313127v0zM501.02906053 565.17230677z"  horiz-adv-x="1024" />

    
    <glyph glyph-name="sanjiaofuhao-shang" unicode="&#58910;" d="M303.104 263.168c0-10.24 10.24-18.432 20.48-18.432h374.784c4.096 0 8.192 0 12.288 4.096 8.192 6.144 8.192 18.432 2.048 26.624l-188.416 237.568c-8.192 8.192-20.48 8.192-28.672 0l-186.368-235.52c-4.096-4.096-6.144-8.192-6.144-14.336z"  horiz-adv-x="1024" />

    
    <glyph glyph-name="message--fill" unicode="&#59011;" d="M2.27555515 542.55650133A305.32494182 305.32494182 0 0 0 308.11022183 848.08533333h407.77955634c168.87170885 0 305.83466666-137.37073817 305.83466668-305.528832V-69.41866667H308.11022183c-168.87170885 0-305.83466666 137.37073817-305.83466668 305.528832V542.55650133zM613.94488849 440.30577817v-101.94488968h101.94488968v101.94488968h-101.94488968z m-305.83466666 0v-101.94488968h101.94488968v101.94488968H308.11022183z"  horiz-adv-x="1024" />

    
    <glyph glyph-name="message--line1" unicode="&#59012;" d="M2.09412738 541.79753863A304.85355058 304.85355058 0 0 0 307.45661582 846.8546646h407.1499854c168.61098777 0 305.36248845-137.15865146 305.36248848-305.05712597V-69.23280077000004H307.45661582c-168.61098777 0-305.36248845 137.15865146-305.36248844 305.05712596V541.79753863zM918.18159275 32.55469498000002V541.79753863A203.7785669 203.7785669 0 0 1 714.60660122 745.06716885H307.45661582a203.06605483 203.06605483 0 0 1-203.5749915-203.26963022v-305.97321344A203.7785669 203.7785669 0 0 1 307.45661582 32.55469498000002h610.72497693z m-305.36248846 407.14998542h101.78749693v-101.78749696h-101.78749693v101.78749696z m-305.36248847 0h101.78749696v-101.78749696H307.45661582v101.78749696z"  horiz-adv-x="1024" />

    
    <glyph glyph-name="pause-mini-fill" unicode="&#59148;" d="M764.25923838 804.34873002a84.08641343 84.08641343 0 0 0 168.17282496-2e-8v-840.86412669a84.08641343 84.08641343 0 1 0-168.17282496 0V804.34873002zM91.56793665 804.34873002a84.08641343 84.08641343 0 1 0 168.17282497-2e-8v-840.86412669a84.08641343 84.08641343 0 1 0-168.17282496 0V804.34873002z"  horiz-adv-x="1024" />

    
    <glyph glyph-name="alarm-warning-line" unicode="&#59177;" d="M104.22044484-23.779555159999973v305.83466667a407.77955516 407.77955516 0 1 0 815.55911032 0v-305.83466667h50.97244484v-101.94488969H53.248v101.94488969h50.97244484z m101.9448885 0h611.66933332v305.83466667a305.83466666 305.83466666 0 1 1-611.66933332 0v-305.83466667z m254.86222182 917.50400001h101.94488968v-152.91733334h-101.94488968V893.72444485z m447.43611733-143.13062401l72.07503684-72.07503684-108.06158182-108.11255467-72.12600969 72.07503684 108.11255467 108.11255467zM43.46129067 678.518784l72.07503684 72.07503684 108.11255467-108.06158301L151.62481817 570.3552565 43.46129067 678.518784zM257.13777817 282.05511150999996a254.86222183 254.86222183 0 0 0 254.86222183 254.86222182v-101.94488849a152.91733333 152.91733333 0 0 1-152.91733333-152.91733333H257.13777817z"  horiz-adv-x="1024" />

    
    <glyph glyph-name="alarm-warning-fill" unicode="&#59178;" d="M98.38731764-33.70505162999996v310.2095121a413.61268236 413.61268236 0 1 0 827.22536472 0v-310.2095121h51.70158577v-103.40317149H46.68573187v103.40317149h51.70158577z m103.40317028 310.2095121h103.40317028a206.8063418 206.8063418 0 0 0 206.8063418 206.80634057V586.71397254a310.20951208 310.20951208 0 0 1-310.20951208-310.20951207z m258.50792632 620.41902415h103.40317152v-155.10475603h-103.40317152V896.92348462z m453.83651618-145.17805165l73.1060421-73.10604208-109.60736054-109.65906253-73.15774408 73.10604208 109.65906252 109.65906253zM36.75902748 678.63939089l73.1060421 73.10604208 109.65906252-109.60736173L146.469792 568.92862638 36.75902748 678.63939089z"  horiz-adv-x="1024" />

    
    <glyph glyph-name="arrow-left-circle-line" unicode="&#59184;" d="M512 891.36719688c280.06669246 0 507.36719688-227.30050443 507.36719688-507.36719688s-227.30050443-507.36719688-507.36719688-507.36719688S4.63280312 103.93330753999999 4.63280312 384 231.93330754 891.36719688 512 891.36719688z m0-913.26095367c224.25630125 0 405.89375679 181.63745674 405.89375679 405.89375679s-181.63745674 405.89375679-405.89375679 405.89375679-405.89375679-181.63745674-405.89375679-405.89375679 181.63745674-405.89375679 405.89375679-405.89375679z m0 456.63047683h202.94687899v-101.47344008h-202.94687899v-152.21015895l-202.94687899 202.94687899 202.94687899 202.94687899v-152.21015895z"  horiz-adv-x="1024" />

    
    <glyph glyph-name="arrow-right-circle-line" unicode="&#59188;" d="M512 434.73672004V586.94687899l202.94687899-202.94687899-202.94687899-202.94687899v152.21015895H309.05312101v101.47344008h202.94687899z m0 456.63047684c280.06669246 0 507.36719688-227.30050443 507.36719688-507.36719688s-227.30050443-507.36719688-507.36719688-507.36719688S4.63280312 103.93330753999999 4.63280312 384 231.93330754 891.36719688 512 891.36719688z m0-913.26095367c224.25630125 0 405.89375679 181.63745674 405.89375679 405.89375679s-181.63745674 405.89375679-405.89375679 405.89375679-405.89375679-181.63745674-405.89375679-405.89375679 181.63745674-405.89375679 405.89375679-405.89375679z"  horiz-adv-x="1024" />

    
    <glyph glyph-name="delete-bin-line" unicode="&#59208;" d="M769.71032164 693.25238645h257.71032281v-103.08412843h-103.08412962v-670.04683769a51.5420648 51.5420648 0 0 0-51.54206357-51.54206478H151.20554874a51.5420648 51.5420648 0 0 0-51.54206357 51.54206478V590.1682580199999H-3.42064445V693.25238645h257.71032281V847.87857967a51.5420648 51.5420648 0 0 0 51.54206362 51.54206478h412.33651604a51.5420648 51.5420648 0 0 0 51.54206362-51.54206478v-154.62619322z m51.54206481-103.08412843H202.74761355v-618.50477285h618.5047729V590.1682580199999z m-463.87857967-154.62619322h103.08412842v-309.25238644H357.37380678v309.25238644z m206.16825802 0h103.08412842v-309.25238644h-103.08412842v309.25238644zM357.37380678 796.3365148299999v-103.08412838h309.25238644V796.3365148299999H357.37380678z"  horiz-adv-x="1024" />

    
    <glyph glyph-name="delete-bin-fill" unicode="&#59210;" d="M769.71032164 693.25238645h257.71032281v-103.08412843h-103.08412962v-670.04683769a51.5420648 51.5420648 0 0 0-51.54206357-51.54206478H151.20554874a51.5420648 51.5420648 0 0 0-51.54206357 51.54206478V590.1682580199999H-3.42064445V693.25238645h257.71032281V847.87857967a51.5420648 51.5420648 0 0 0 51.54206362 51.54206478h412.33651604a51.5420648 51.5420648 0 0 0 51.54206362-51.54206478v-154.62619322z m-412.33651486-257.71032165v-309.25238644h103.08412842v309.25238644H357.37380678z m206.16825802 0v-309.25238644h103.08412842v309.25238644h-103.08412842zM357.37380678 796.3365148299999v-103.08412838h309.25238644V796.3365148299999H357.37380678z"  horiz-adv-x="1024" />

    
    <glyph glyph-name="download--line" unicode="&#59209;" d="M563.5420648 487.08412841h257.71032165l-309.25238645-309.25238643-309.25238645 309.25238643h257.71032165V847.87857967h103.0841296v-360.79445126z m-463.87857963-463.87857967h824.67302966v360.79445126h103.08412962v-412.33651483a51.5420648 51.5420648 0 0 0-51.54206478-51.54206484H48.12142033a51.5420648 51.5420648 0 0 0-51.54206478 51.54206484v412.33651483h103.08412962v-360.79445126z"  horiz-adv-x="1024" />

    
    <glyph glyph-name="eye-close-line" unicode="&#59212;" d="M387.16071743 65.46726355999999l-90.69400063 24.32909986 36.96332334 138.03711456a516.0775154 516.0775154 0 0 0-152.03339266 87.92292587l-101.12075786-101.1677256-66.45883517 66.45883626 101.1677256 101.12075788a514.62152752 514.62152752 0 0 0-111.35964634 238.1245909l92.43179388 16.86128723C131.70516516 439.79724142 304.35723578 290.06525050000005 512 290.06525050000005c207.59579758 0 380.29483484 149.73199093 415.94307241 347.08890002l92.43179388-16.81431948a514.62152752 514.62152752 0 0 0-111.31267861-238.17155865l101.12075787-101.12075788-66.45883517-66.45883626-101.12075786 101.1677256a516.0775154 516.0775154 0 0 0-152.03339266-87.92292587l36.96332334-138.08408231-90.69400063-24.28213211-37.01029108 138.08408232a520.0227749 520.0227749 0 0 0-175.65798298 0l-37.01029108-138.08408232z"  horiz-adv-x="1024" />

    
    <glyph glyph-name="liulang" unicode="&#59213;" d="M512 806.05375795c252.85709623 0 463.2274464-181.95206488 507.35551227-422.05375795-44.08117064-240.10169303-254.49841604-422.05375795-507.35551227-422.05375795-252.85709623 0-463.2274464 181.95206488-507.35551227 422.05375795C48.72565837 624.10169303 259.14290377 806.05375795 512 806.05375795z m0-750.31779227a422.28823187 422.28823187 0 0 1 411.59620334 328.26403432 422.28823187 422.28823187 0 0 1-823.19240668 0A422.28823187 422.28823187 0 0 1 512 55.73596568000005z m0 117.23715536a211.02687896 211.02687896 0 1 0 0 422.05375792 211.02687896 211.02687896 0 0 0 0-422.05375792z m0 93.78972361a117.23715535 117.23715535 0 1 1 0 234.4743107 117.23715535 117.23715535 0 0 1 0-234.4743107z"  horiz-adv-x="1024" />

    
    <glyph glyph-name="heart-fill" unicode="&#59220;" d="M943.11353414 346.70790466999995l0.61057624-0.65754398L512-85.67374971000004l-431.72411038 431.7241104 0.61057624 0.65754398A305.2879367 305.2879367 0 0 0 512 776.64725407a305.2879367 305.2879367 0 0 0 431.11353414-429.9393494z"  horiz-adv-x="1024" />

    
    <glyph glyph-name="rss-line" unicode="&#59238;" d="M1.36345685 100.31303204000005a226.94957516 226.94957516 0 0 0 226.94957519-226.94957519H1.36345685v226.94957519z m0 397.1617549c344.67966663 0 624.11133007-279.43166344 624.11133009-624.11133009h-113.47478694a510.63654315 510.63654315 0 0 1-510.63654315 510.63654315v113.47478694z m0 397.16175621c564.02643017 0 1021.27308628-457.24665613 1021.2730863-1021.2730863h-113.47478693c0 501.38834754-406.40995052 907.79829936-907.79829937 907.79829937V894.63654315z"  horiz-adv-x="1024" />

    
    <glyph glyph-name="share-line" unicode="&#59250;" d="M568.82512641 129.14945679000004l-213.04348662 116.18708841a202.94687899 202.94687899 0 1 0 0 277.27617249l213.09422255 116.18708839a202.94687899 202.94687899 0 1 0 48.65651492-89.04294298l-213.09422253-116.1870884a203.35277236 203.35277236 0 0 0 0-99.1395494l213.04348542-116.1870884a202.94687899 202.94687899 0 1 0-48.65651374-89.04294298zM207.57968209 282.5265611a101.4734389 101.4734389 0 1 1 0 202.9468778 101.4734389 101.4734389 0 0 1 0-202.9468778z m558.10391577 304.42031789a101.4734389 101.4734389 0 1 1 0 202.9468778 101.4734389 101.4734389 0 0 1 0-202.9468778z m0-608.84063578a101.4734389 101.4734389 0 1 1 0 202.9468778 101.4734389 101.4734389 0 0 1 0-202.9468778z"  horiz-adv-x="1024" />

    
    <glyph glyph-name="thumb-up-fill" unicode="&#59257;" d="M49.66054325 484.34145837h138.91499999v-555.65999999H49.66054325a46.30500037 46.30500037 0 0 0-46.30499928 46.30500036V438.03645803a46.30500037 46.30500037 0 0 0 46.30499928 46.30500034z m245.09236536 59.87236501l296.35200036 296.35200036a23.15249964 23.15249964 0 0 0 30.28347 2.17633464l39.49816428-29.63520035a69.4575 69.4575 0 0 0 25.60666537-72.69884929L633.10354325 530.6464587400001H929.45554361a92.60999964 92.60999964 0 0 0 92.60999964-92.61000071v-97.42571929a92.60999964 92.60999964 0 0 0-6.94575-35.28441l-143.31397465-347.98207501a46.30500037 46.30500037 0 0 0-42.83212535-28.66279535H327.49054326a46.30500037 46.30500037 0 0 0-46.30499929 46.30500036V511.47618874a46.30500037 46.30500037 0 0 0 13.56736464 32.73763464z"  horiz-adv-x="1024" />

    
    <glyph glyph-name="thumb-up-line" unicode="&#59258;" d="M632.20712487 517.82998278H928.10158732a92.46701904 92.46701904 0 0 0 92.46701904-92.46702013v-97.27530368a92.46701904 92.46701904 0 0 0-6.93502645-35.22993439l-143.09271216-347.4448254a46.23351006 46.23351006 0 0 0-42.76599684-28.61854286H49.66490265a46.23351006 46.23351006 0 0 0-46.23350896 46.23351005V425.36296265a46.23351006 46.23351006 0 0 0 46.23350896 46.23351008h160.9850815a46.23351006 46.23351006 0 0 1 37.77277671 19.55677459L500.53408998 848.39957641a23.11675449 23.11675449 0 0 0 29.21957777 7.35112805l83.86758623-41.93379258a115.58377461 115.58377461 0 0 0 60.33473016-131.90420318L632.20712487 517.82998278zM280.83245188 398.17765895V9.26137534999998h515.96596825L928.10158732 328.08765897V425.36296265h-295.89446245a92.46701904 92.46701904 0 0 0-89.60054179 115.26013968l41.74885926 164.03649315a23.11675449 23.11675449 0 0 1-12.06694604 26.39933331l-30.56034917 15.25705821-217.7598307-308.46997673c-11.55837778-16.36666243-26.35310053-29.77437989-43.13586455-39.66835132zM188.36543175 379.12945367H95.89841273v-369.86807832h92.46701902v369.86807832z"  horiz-adv-x="1024" />

    
    <glyph glyph-name="jinggao1" unicode="&#59017;" d="M512 384m-512 0a512 512 0 1 1 1024 0 512 512 0 1 1-1024 0ZM512 105.24444400000004m-68.266667 0a68.266667 68.266667 0 1 1 136.533334 0 68.266667 68.266667 0 1 1-136.533334 0ZM509.44 230.39999999999998a42.097778 42.097778 0 0 0-42.040889 39.765333l-22.414222 404.081778A64.568889 64.568889 0 0 0 509.44 742.4a64.568889 64.568889 0 0 0 64.512-68.152889l-22.471111-404.081778a42.097778 42.097778 0 0 0-42.040889-39.765333z"  horiz-adv-x="1024" />

    
    <glyph glyph-name="shenglvehao1" unicode="&#58998;" d="M512-128a512 512 0 1 0 512 512 512 512 0 0 0-512-512z m2304 0a512 512 0 1 0 512 512A512 512 0 0 0 2817.024-128z m2304 0a512 512 0 1 0 512 512 512 512 0 0 0-512-512z"  horiz-adv-x="5633" />

    
    <glyph glyph-name="yanzhengma1" unicode="&#59085;" d="M374.58688019 521.41311981c147.59186902 147.59186902 386.79248578 147.59186902 534.38435481 0 147.59186902-147.59186902 147.59186902-386.79248578 0-534.38435481-147.59186902-147.59186902-386.79248578-147.59186902-534.38435481 0-147.59186902 147.59186902-147.59186902 386.79248578 0 534.38435481z m447.86498348-447.86498348c101.78749575 101.78749575 101.78749575 259.55811519 0 361.34561215S562.89374848 536.68124422 461.10625152 434.89374848s-101.78749575-259.55811519 0-361.34561215 264.64749039-101.78749575 361.34561215 0zM23.42001847 872.57998153c25.44687363 25.44687363 61.07249769 25.44687363 86.51937133 0L461.10625152 521.41311981c25.44687363-25.44687363 25.44687363-61.07249769 0-86.51937133s-61.07249769-25.44687363-86.51937133 0L23.42001847 786.0606102c-25.44687363 25.44687363-25.44687363 66.16187289 0 86.51937133zM79.40314097 597.7537419299999l106.87687095 106.87687096c25.44687363 25.44687363 61.07249769 25.44687363 86.51937252 0s25.44687363-61.07249769 0-86.51937135L165.92251348 511.23437058c-20.35749962-25.44687363-61.07249769-25.44687363-86.51937251 0-20.35749962 20.35749962-20.35749962 61.07249769 0 86.51937135z"  horiz-adv-x="1024" />

    
    <glyph glyph-name="shijian" unicode="&#59055;" d="M512 896C229.638444 896 0 666.3615560000001 0 384s229.638444-512 512-512 512 229.638444 512 512S794.361556 896 512 896z m0-938.471396c-235.496568 0-426.471396 191.560641-426.471396 426.471396 0 235.496568 191.560641 426.471396 426.471396 426.471396 235.496568 0 426.471396-191.560641 426.471396-426.471396 0-235.496568-190.974828-426.471396-426.471396-426.471396z m198.004577 301.107552L533.089245 361.153318V640c0 23.432494-19.331808 42.764302-42.764302 42.764302s-42.764302-19.331808-42.764302-42.764302v-298.764302c0-15.816934 19.91762-29.290618 32.219679-36.320366 3.514874-5.272311 13.473684-9.95881 19.331808-13.473684l175.743707-106.617849c20.503432-11.716247 42.764302-4.686499 54.480549 15.816933 12.302059 19.91762 1.171625 46.279176-19.331807 57.995424z"  horiz-adv-x="1024" />

    
    <glyph glyph-name="shoujiduan" unicode="&#58973;" d="M511.85549-127.132938c-282.08411 0-511.566469 229.48236-511.566469 511.566469s229.48236 511.566469 511.566469 511.566469 511.566469-229.48236 511.566469-511.566469-229.48236-511.566469-511.566469-511.566469z m0 982.670053c-259.829523 0-471.103585-211.274062-471.103585-471.103584s211.274062-471.103585 471.103585-471.103585 471.103585 211.274062 471.103584 471.103585-211.274062 471.103585-471.103584 471.103584zM656.365792 649.176404h-289.020604c-26.589896 0-48.266441-23.98871-48.266441-52.89077v-423.993226c0-28.90206 21.676545-52.890771 48.266441-52.890771h289.020604c26.589896 0 48.266441 23.98871 48.266441 52.890771V596.285634c-0.289021 28.90206-21.965566 52.890771-48.266441 52.89077z m0-481.508326h-289.020604v96.243861h289.020604v-96.243861z m-289.020604 144.510302v289.020604h289.020604v-289.020604h-289.020604zM487.577759 215.645498c0-13.294948 10.693762-23.98871 23.98871-23.98871s23.98871 10.693762 23.98871 23.98871-10.693762 23.98871-23.98871 23.98871-23.98871-10.693762-23.98871-23.98871z"  horiz-adv-x="1024" />

    
    <glyph glyph-name="xiaochengxu" unicode="&#58974;" d="M511.855408-127.710816C229.611974-127.710816 0 101.901158 0 384.144592S229.611974 896 511.855408 896s511.855408-229.611974 511.855408-511.855408-229.611974-511.855408-511.855408-511.855408z m0 983.225078C251.87913 855.514262 40.485738 644.12087 40.485738 384.144592s211.393392-471.36967 471.36967-471.36967 471.36967 211.393392 471.36967 471.36967S771.831686 855.514262 511.855408 855.514262zM401.387179 131.108726c-79.236374 0-142.278452 63.331262-142.278453 142.278453s63.331262 142.278452 142.278453 142.278452c19.086134 0 31.521039-12.724089 31.521039-31.521039s-12.724089-31.521039-31.521039-31.521039c-44.245128 0-79.236374-34.702062-79.236374-79.236374s34.702062-79.236374 79.236374-79.236374 79.236374 34.702062 79.236374 79.236374v221.514826c0 79.236374 63.331262 142.278452 142.278452 142.278452s142.278452-63.331262 142.278452-142.278452-63.331262-142.278452-142.278452-142.278452c-19.086134 0-31.521039 12.724089-31.521039 31.521039 0 19.086134 12.724089 31.521039 31.521039 31.521039 44.245128 0 79.236374 34.702062 79.236374 79.236374s-34.702062 79.236374-79.236374 79.236374-79.236374-34.702062-79.236374-79.236374v-221.514826c0-78.94719-63.331262-142.278452-142.278452-142.278453z"  horiz-adv-x="1024" />

    
    <glyph glyph-name="weixin" unicode="&#58975;" d="M511.85549-127.132938c-282.08411 0-511.566469 229.48236-511.566469 511.566469s229.48236 511.566469 511.566469 511.566469 511.566469-229.48236 511.566469-511.566469-229.48236-511.566469-511.566469-511.566469z m0 982.670053c-259.829523 0-471.103585-211.274062-471.103585-471.103584s211.274062-471.103585 471.103585-471.103585 471.103585 211.274062 471.103584 471.103585-211.274062 471.103585-471.103584 471.103584zM683.822749 336.456111c13.005927 0.289021 23.410669 10.693762 23.410669 23.410669 0 13.005927-10.404742 23.410669-23.410669 23.410668s-23.410669-10.404742-23.410669-23.410668 10.404742-23.410669 23.410669-23.410669z m-115.608242 0c13.005927 0.289021 23.410669 10.693762 23.410669 23.410669 0 13.005927-10.404742 23.410669-23.410669 23.410668s-23.410669-10.404742-23.410668-23.410668c-0.289021-13.005927 10.115721-23.410669 23.410668-23.410669z m171.389219-131.504375c-3.468247-2.023144-5.202371-5.780412-4.62433-9.53768 0-1.156082 0-2.601185 0.578041-3.757268 2.601185-10.982783 7.803556-28.324019 7.803557-28.90206 0-2.023144 0.578041-3.179227 0.578041-4.62433 0-3.179227-2.601185-5.780412-5.780412-5.780412-1.445103 0-2.023144 0.578041-3.179227 1.156082l-37.861699 21.965566c-2.890206 1.445103-5.780412 2.312165-8.959639 2.601186-2.023144 0-3.757268 0-5.202371-0.578042-17.919277-5.202371-36.705617-7.803556-56.359018-7.803556-95.66582 0-172.834321 64.162574-172.834321 143.932261 0 79.769687 77.168501 143.932261 172.834321 143.932261 95.66582 0 172.545301-64.162574 172.545301-143.932261 0.289021-43.353091-22.832628-82.370872-59.538244-108.671747z m-105.492521 278.326841h-7.225515c-108.960768 0-198.846176-74.856336-198.846175-169.944115 0-14.45103 2.023144-28.61304 6.069432-41.907987h-2.312165c-22.832628 0.289021-45.665255 3.468247-67.630821 9.53768-2.023144 0.578041-3.757268 0.578041-5.780412 0.578041-3.757268 0-7.514536-1.156082-10.982783-3.179227l-45.665255-26.300875c-1.445103-0.578041-2.601185-1.445103-3.757268-1.445103-3.757268 0-6.936494 3.179227-6.936495 6.936495 0 2.023144 0.578041 3.179227 1.156083 5.202371 0.578041 0.578041 6.358453 21.676545 9.53768 34.682472 0 1.445103 0.578041 3.179227 0.578041 4.62433 0 4.62433-2.023144 8.959639-5.780412 11.560824-44.509173 31.503246-71.96613 78.324584-71.966131 130.059272 0 95.376799 93.353655 172.545301 207.805815 172.5453 98.267005 0.289021 180.926898-56.359018 201.736381-132.949478z m-134.683601-10.982782c15.029071 0 26.878916 12.427886 26.878916 26.878916 0 15.029071-11.849845 26.878916-26.878916 26.878916-15.029071 0-26.878916-11.849845-26.878916-26.878916 0-15.029071 11.849845-26.878916 26.878916-26.878916z m-137.573808 0c15.029071 0 26.878916 12.427886 26.878916 26.878916 0 15.029071-11.849845 26.878916-26.878916 26.878916-15.029071 0-26.878916-11.849845-26.878916-26.878916 0-15.029071 11.849845-26.878916 26.878916-26.878916z"  horiz-adv-x="1024" />

    
    <glyph glyph-name="weibo1" unicode="&#58976;" d="M658.471618 390.79582c-23.713075 4.626942-12.145722 17.640215-12.145721 17.640215s23.134708 38.750635-4.626942 67.090652c-34.412878 34.991245-117.987009-4.337758-117.987009-4.337757-32.099407-10.121435-23.423892 4.626942-19.086134 29.496752 0 29.496752-9.832251 79.236374-95.141486 49.739622-84.730867-29.496752-157.89438-133.024569-157.89438-133.02457-50.896357-68.825755-43.955945-122.035583-43.955944-122.035583 12.724089-117.408642 135.627224-149.797232 231.057893-157.605196 100.635979-8.097148 236.263202 35.280429 277.327309 124.05987 41.064106 89.068625-33.83451 124.05987-57.547586 128.975995z m-212.260943-220.068907c-99.768427-4.626942-180.45072 46.269415-180.45072 113.938436s80.682293 122.035583 180.45072 126.662524 180.739904-37.304716 180.739904-104.684552c-0.289184-67.66902-80.971477-131.289466-180.739904-135.916408z m-19.953685 196.066648c-100.346795-11.856538-88.779441-107.576391-88.779441-107.576391s-1.156735-30.364304 26.894097-45.691047c58.704321-32.388591 119.143745-12.724089 149.797233 27.472465 30.364304 40.196555 12.434905 137.651511-87.911889 125.794973z m-25.448179-134.181305c-18.79695-2.313471-33.83451 8.675515-33.83451 24.580627s13.302457 32.388591 32.099407 34.412878c21.399605 2.024287 35.569613-10.410618 35.569613-26.604914 0-15.615928-15.03756-30.07512-33.83451-32.388591z m306.534877 199.536854c8.097148 0 15.03756 6.072861 16.194296 14.170009 0.289184 0.578368 0.289184 1.156735 0.289183 1.735103 12.145722 111.914149-90.22536 92.828015-90.22536 92.828015-8.964699 0-16.483479-7.51878-16.483479-16.772663s7.229596-16.772663 16.483479-16.772664c73.741881 16.483479 57.258402-58.415137 57.258402-58.415136 0-9.253883 7.229596-16.772663 16.483479-16.772664z m-11.856537 195.488281c-35.569613 8.386332-72.006778 1.156735-82.128213-0.867552-0.867552 0-1.445919-0.867552-2.313471-0.867552-0.289184 0-0.578368-0.578368-0.578367-0.578367-10.121435-2.891838-17.351031-12.434905-17.351031-23.713076 0-13.302457 10.699802-24.291443 24.002259-24.291443 0 0 13.013273 1.735103 21.688789 5.20531 8.675515 3.470206 82.128212 2.602655 118.565377-59.571873 19.953685-45.401864 8.675515-75.766168 7.229596-80.682293 0 0-4.626942-11.856538-4.626942-23.423892 0-13.302457 10.699802-21.977972 23.713076-21.977972 10.988986 0 20.242869 1.445919 22.845524 20.532053h0.289183c39.039819 133.024569-48.004518 195.199096-111.33578 210.236657zM511.855408-127.710816C229.611974-127.710816 0 101.901158 0 384.144592S229.611974 896 511.855408 896s511.855408-229.611974 511.855408-511.855408-229.611974-511.855408-511.855408-511.855408z m0 983.225078C251.87913 855.514262 40.485738 644.12087 40.485738 384.144592s211.393392-471.36967 471.36967-471.36967 471.36967 211.393392 471.36967 471.36967S771.831686 855.514262 511.855408 855.514262z"  horiz-adv-x="1024" />

    
    <glyph glyph-name="jiantousvg" unicode="&#58978;" d="M910.565976 876.596714L19.283962-14.6853c-25.710058-25.710058-25.710058-67.607931 0-93.317988 25.710058-25.710058 67.607931-25.710058 94.270213 0l847.479693 847.479693 834.148551-845.575244c24.757834-24.757834 65.703482-24.757834 91.41354 0 25.710058 24.757834 25.710058 65.703482 0 91.413539l-866.52418 877.950873c-3.808897 3.808897-7.617795 4.761122-11.426693 7.617795-1.904449 1.904449-1.904449 4.761122-3.808897 6.665571-26.662282 24.757834-68.560155 24.757834-94.270213-0.952225z"  horiz-adv-x="1908" />

    
    <glyph glyph-name="jiantou" unicode="&#58979;" d="M996.383399-108.715183l891.38712 891.38712c25.71309 25.71309 25.71309 67.615903 0 93.328993-25.71309 25.71309-67.615903 25.71309-94.28133 0l-847.579633-847.579633L110.7103 875.048593C85.949547 899.809347 44.99907 899.809347 19.28598 875.048593c-25.71309-24.760753-25.71309-65.71123 0-91.42432l866.626366-878.054406c3.809347-3.809347 7.618693-4.761683 11.42804-7.618693 1.904673-1.904673 1.904673-4.761683 3.809347-6.666357 26.665427-25.71309 68.56824-25.71309 95.233666 0z"  horiz-adv-x="1909" />

    
    <glyph glyph-name="gengduo" unicode="&#58977;" d="M384.486356 609.138515c9.550259 9.550259 28.297064 9.550259 37.847323 0l213.996546-209.04456c0-3.18342 3.18342-3.18342 3.183419-3.18342 6.366839-3.18342 9.550259-12.733679 9.550259-19.100518s-3.18342-15.917098-9.550259-19.100518c0-3.18342-3.18342-3.18342-3.183419-3.18342l-216.472539-197.018307c-9.550259-9.550259-28.297064-9.550259-37.847323 0-9.550259 9.550259-9.550259 28.297064 0 37.847323l200.55544 181.101209-198.433161 190.297755c-12.379965 13.087392-12.379965 28.650777 0.353714 41.384456zM512.176857-128C229.559931-128 0 101.559931 0 383.823143 0 666.440069 229.559931 896 512.176857 896s512.176857-229.559931 512.176856-512.176857c-0.353713-282.263212-229.913644-511.823143-512.176856-511.823143z m0 967.405872C261.040415 839.405872 56.594128 634.959585 56.594128 383.823143c0-251.136442 204.446287-455.229016 455.582729-455.229015s455.582729 204.446287 455.582728 455.229015C967.405872 634.959585 762.959585 839.405872 512.176857 839.405872z"  horiz-adv-x="1024" />

    
    <glyph glyph-name="wuzhangai" unicode="&#58980;" d="M726.277256 128.001468c-56.144762-112.289524-171.524823-182.856793-296.691585-182.856793-182.856793 0-331.202586 147.315614-331.202587 329.142228 0 156.587226 110.229166 287.935063 257.54478 320.900795V669.875684C166.889996 635.364683 24.210188 471.566204 24.210188 274.286903c0-222.0036 181.311525-402.284945 404.860393-402.284946 166.373927-0.51509 316.264989 101.472643 377.560647 255.999511h-80.353972zM988.972931 128.516558l-193.158584 192.128405c-4.120716 15.452687-18.543224 26.784657-35.02609 26.784657H503.243478V530.286413h257.544779c20.088493 0 36.571359 16.482866 36.571359 36.571359 0 20.088493-16.482866 36.571359-36.571359 36.571359H503.243478V683.268012c43.782612 15.452687 73.657807 56.659851 73.657806 103.017912C576.386195 847.066492 526.937597 896 466.157029 896S355.927864 847.066492 355.412774 786.285924c0-47.903329 30.905374-88.080315 73.657807-103.017912v-372.409751c0-20.088493 16.482866-36.571359 36.571359-36.571358h271.967287l198.824569-197.279301c14.422508-14.422508 37.601538-14.422508 52.024046 0 14.422508 13.907418 14.937597 37.086448 0.515089 51.508956z"  horiz-adv-x="1024" />

    
    <glyph glyph-name="guanbi" unicode="&#58981;" d="M986.77551-128c-10.44898 0-20.244898 3.918367-27.428571 11.755102L13.061224 828.734694C-1.959184 843.755102-1.959184 869.22449 13.061224 884.244898s40.489796 15.020408 55.510205 0l945.632653-945.632653c15.020408-15.673469 15.020408-40.489796-0.653062-55.510204-7.183673-7.183673-16.979592-11.102041-26.77551-11.102041M41.142857-128c-21.55102 0-39.183673 17.632653-39.183673 39.183673 0 10.44898 3.918367 20.897959 11.755102 28.081633L958.693878 884.244898c16.326531 14.367347 41.142857 13.714286 55.510204-2.612245 13.714286-15.020408 13.714286-37.877551 0-52.897959L69.22449-116.244898c-7.836735-7.836735-17.632653-11.755102-28.081633-11.755102"  horiz-adv-x="1025" />

    
    <glyph glyph-name="paihang" unicode="&#58982;" d="M81.730175-28.341916h860.53965v-97.548918H81.730175v97.548918z m41.656025 437.651906h97.548918v-379.122554H123.3862V409.30999zM572.638517 896h97.548919v-865.285273H572.638517V896z m230.426365-364.885685h97.548918v-500.926879h-97.548918v500.926879zM342.212152 652.918641h97.548919v-622.203914H342.212152v622.203914z"  horiz-adv-x="1024" />

    
    <glyph glyph-name="huanyipi" unicode="&#58983;" d="M177.526095 771.30174C270.281944 851.772046 388.837433 896 511.692861 896c282.567487 0 511.692861-229.125375 511.692862-511.692861 0-109.341332-34.39952-210.697061-92.755849-293.624476L767.846431 384.307139h153.569286c0 226.053989-183.054589 409.722855-409.722856 409.722855-105.655669 0-207.625675-41.156569-283.79604-114.255549 0.614277 0-50.370726 91.527295-50.370726 91.527295z m668.94781-774.60348c-92.755849-80.470306-211.925615-124.69826-334.781044-124.69826-282.567487 0-511.692861 229.125375-511.692861 511.692861C0 493.64847 34.39952 595.004199 92.755849 677.931614l163.39772-293.624475h-153.569286c0-226.053989 183.054589-409.722855 409.722856-409.722856 105.655669 0 207.625675 41.156569 283.79604 114.255549l50.370726-92.141572z"  horiz-adv-x="1024" />

    
    <glyph glyph-name="QQkongjian" unicode="&#58985;" d="M511.855408-127.710816C229.611974-127.710816 0 101.901158 0 384.144592S229.611974 896 511.855408 896s511.855408-229.611974 511.855408-511.855408-229.611974-511.855408-511.855408-511.855408z m0 983.225078C251.87913 855.514262 40.485738 644.12087 40.485738 384.144592s211.393392-471.36967 471.36967-471.36967 471.36967 211.393392 471.36967 471.36967S771.831686 855.514262 511.855408 855.514262zM801.039254 448.921774l-199.826037 29.207568L511.855408 659.15843l-89.646992-181.029088-199.826038-28.918385 144.591923-141.121717-34.123694-198.669302 178.715617 93.695566 178.715617-93.98475-33.83451 198.958486 144.591923 140.832534z m-407.749223-166.85908l156.159277 127.240893-145.459475 24.86981h220.936459l-134.759672-122.035583 139.964981-30.364304-236.84157 0.289184z"  horiz-adv-x="1024" />

    
    <glyph glyph-name="QQ" unicode="&#58986;" d="M511.855408-127.710816C229.611974-127.710816 0 101.901158 0 384.144592S229.611974 896 511.855408 896s511.855408-229.611974 511.855408-511.855408-229.611974-511.855408-511.855408-511.855408z m0 983.225078C251.87913 855.514262 40.485738 644.12087 40.485738 384.144592s211.393392-471.36967 471.36967-471.36967 471.36967 211.393392 471.36967 471.36967S771.831686 855.514262 511.855408 855.514262zM717.175939 318.499859c-5.205309 16.483479-11.27817 32.677775-17.640215 48.87207l-23.713075 58.125953c0 0.578368 0.289184 12.145722 0.289184 17.929398 0 99.479243-47.426151 199.826038-164.256425 199.826038s-164.256425-100.057611-164.256425-199.536854c0-6.072861 0.289184-17.351031 0.289184-17.929398l-23.713075-58.125953c-6.362045-16.194295-12.145722-32.388591-17.640215-48.87207-22.267156-70.850042-15.03756-100.346795-9.543067-100.925163 11.856538-1.445919 45.980232 53.499012 45.980232 53.499012 0-31.810223 16.483479-73.163513 52.342276-103.238633-13.302457-4.048574-29.785936-10.410618-40.196555-17.929399-9.543067-6.940412-8.386332-13.880825-6.651228-16.772663 7.51878-12.434905 128.397628-8.097148 163.388873-4.048574 34.991245-3.75939 155.870093-8.386332 163.388873 4.048574 1.735103 2.891838 2.891838 9.832251-6.651228 16.772663-10.410618 7.807964-26.894098 13.880825-40.196555 17.929399 35.858797 29.785936 52.342276 71.42841 52.342276 103.238633 0 0 34.123694-54.944931 45.980232-53.499012 5.494493 0.289184 12.724089 29.785936-9.543067 100.635979"  horiz-adv-x="1024" />

    
    <glyph glyph-name="douban" unicode="&#58987;" d="M511.855408-127.710816C229.611974-127.710816 0 101.901158 0 384.144592S229.611974 896 511.855408 896s511.855408-229.611974 511.855408-511.855408-229.611974-511.855408-511.855408-511.855408z m0 983.225078C251.87913 855.514262 40.485738 644.12087 40.485738 384.144592s211.393392-471.36967 471.36967-471.36967 471.36967 211.393392 471.36967 471.36967S771.831686 855.514262 511.855408 855.514262zM643.144874 498.950579c-43.377577 0.289184-86.46597 0-129.843547 0-44.245128 0-88.490257 0.289184-132.446201 0-43.377577-0.289184-63.620446-21.110421-64.198814-64.777182-0.289184-19.375318-0.578368-38.750635 0-58.125953 1.156735-38.461452 22.267156-60.728608 59.861056-60.728608 90.22536-0.578368 180.45072-0.578368 270.67608 0 36.726348 0.289184 58.415137 21.399605 60.15024 58.125954 1.156735 21.110421 0.867552 42.220842 0.289184 63.620446-1.445919 41.064106-22.55634 61.306975-64.487998 61.885343z m17.929399-109.311494c-0.867552-20.821237-7.807964-28.340017-28.629201-28.918385-28.629201-0.867552-56.969218-0.289184-85.598419-0.289183h-35.858796c-37.883084 0-75.476984-0.289184-113.360068 0-29.207568 0.289184-34.991245 6.651228-35.569613 36.14798 0 10.121435-0.578368 20.242869 0.289184 30.364304 1.156735 17.351031 8.386332 25.448178 26.026546 25.737363 81.839029 0.578368 163.967241 0.578368 245.806269 0 19.086134 0 26.026546-8.097148 26.894098-27.472466 0.578368-11.567354 0.578368-23.423892 0-35.569613z m47.136967-178.715617c-21.977972 0.289184-44.245128 0-66.223101 0.289184-5.783677 0-11.567354 1.735103-18.79695 2.891838 4.626942 8.964699 7.807964 15.326744 11.27817 21.977973 3.470206 6.362045 7.229596 12.724089 10.988986 19.086133 5.494493 9.543067 6.362045 19.086134-1.156735 28.340017-10.988986 13.302457-27.761649 11.567354-38.750636-5.494493-10.988986-17.061847-20.821237-34.702062-30.364304-52.63146-5.494493-10.121435-12.145722-14.748376-24.002259-14.459192-26.604914 0.867552-53.499012 0.578368-80.103925 0-10.410618-0.289184-17.061847 3.75939-21.977973 12.724089-9.253883 17.061847-18.79695 33.83451-28.918384 50.317989-10.699802 17.351031-20.821237 21.688788-33.256143 15.326744-14.170008-7.229596-16.483479-19.664502-7.229596-37.5939 6.362045-12.145722 13.302457-23.713075 22.845524-40.774922h-58.125953c-13.013273 0-25.737362 0.578368-38.750635-0.289184-15.03756-0.867552-23.713075-8.964699-24.291443-21.399605-0.578368-13.591641 8.386332-22.267156 24.86981-23.713075 6.362045-0.578368 13.013273-0.289184 19.375318-0.289184h381.14431c23.423892 0.289184 34.412878 7.229596 34.991245 22.267156 0.867552 15.326744-10.121435 23.134708-33.545326 23.423892zM340.369387 557.365716c56.969218-0.289184 114.227619 0 171.196837 0h110.46823c24.002259 0 48.004518-0.578368 71.717593 0.289184 16.772663 0.578368 25.158995 9.832251 24.580627 23.423891-0.578368 12.434905-8.964699 20.242869-24.002259 21.688789-3.75939 0.289184-7.229596 0.289184-10.988986 0.289184H340.658571c-25.158995 0-36.147981-7.807964-35.569613-24.00226 0.867552-15.326744 10.699802-21.688788 35.280429-21.688788z"  horiz-adv-x="1024" />

    
    <glyph glyph-name="bofang" unicode="&#58992;" d="M872.874128 267.218291L303.737492-105.14534600000002c-64.104518-42.364725-150.50626-23.969516-192.870985 40.135003-15.050626 22.854654-22.854654 49.053892-22.854655 76.367991V756.642352C88.011852 833.567774 150.444079 896 227.369501 896c27.314099 0 53.513337-7.804028 76.367991-22.854654L872.874128 500.224279c64.661949-42.364725 82.499728-128.766467 40.135003-192.870986-10.591181-15.608057-23.969516-29.543821-40.135003-40.135002z"  horiz-adv-x="1024" />

    
    <glyph glyph-name="daohanjiantousvg" unicode="&#58990;" d="M859.32854246 933.15187446c33.98313672 0 67.96627338-16.99156885 84.9578423-33.98313664l730.63744454-764.62058135c50.97470554-50.97470554 50.97470554-135.9325478 0-169.91568449-50.97470554-50.97470554-118.94097894-50.97470554-169.91568547 0L859.32854246 627.30364215l-645.67960236-679.66273904c-50.97470554-50.97470554-118.94097894-50.97470554-169.91568441 0-50.97470554 50.97470554-50.97470554 135.9325478 0 169.91568452L774.37070023 882.17716887c16.99156885 33.98313672 50.97470554 50.97470554 84.95784223 50.97470559z"  horiz-adv-x="1715" />

    
    <glyph glyph-name="daohanjiantousvg1" unicode="&#58991;" d="M857.87491606-52.86748299999999c-33.66196534 0-67.32393164 16.83098314-84.15491383 33.66196518L49.98774028 738.1887096099999C-0.50520822 788.68165822-0.50520822 872.83657298 49.98774028 906.4985382c50.49294855 50.49294855 117.81688016 50.49294855 168.30982855 0l639.57734723-673.23931351 639.57734824 673.23931351c50.49294855 50.49294855 117.81688016 50.49294855 168.30982764 0 50.49294855-50.49294855 50.49294855-134.64786235 0-168.30982853L942.02983085-19.205517790000044c-16.83098314-16.83098314-50.49294855-33.66196534-84.15491479-33.66196521z"  horiz-adv-x="1710" />

    
    <glyph glyph-name="liulangwanbi" unicode="&#58995;" d="M512 384m-508.928 0a508.928 508.928 0 1 1 1017.856 0 508.928 508.928 0 1 1-1017.856 0ZM461.312 180.224L245.248 396.288 317.44 468.48l143.872-143.872 287.744 287.744 72.192-72.192z"  horiz-adv-x="1024" />

    
    <glyph glyph-name="chongxinliulang" unicode="&#58996;" d="M220.927462 590.848L350.975462 460.8 278.783462 388.096 24.831462 642.048 278.783462 896l72.704-72.704-130.56-130.048h367.616c226.816 0 410.112-183.808 410.624-410.112s-183.808-410.112-410.112-410.624H127.231462v102.4h461.312c169.984 0 307.712 137.728 307.712 307.712s-137.728 307.712-307.712 307.712c0.512 0.512-367.616 0.512-367.616 0.512z"  horiz-adv-x="1024" />

    
    <glyph glyph-name="jiaodiantujiantouzuo" unicode="&#59001;" d="M750.234611 896c10.109175 0 19.623693-3.567944 27.354239-11.29849 14.866434-14.866434 14.866434-39.247387 0-54.113821L330.406504 384l446.587689-446.587689c14.866434-14.866434 14.866434-39.247387 0-54.113821s-39.247387-14.866434-54.113821 0L249.533101 356.645761c-14.866434 14.866434-14.866434 39.247387 0 54.113821L722.880372 884.70151C730.610918 892.432056 740.125436 896 750.234611 896z"  horiz-adv-x="1024" />

    
    <glyph glyph-name="jiaodiantujiantou" unicode="&#59000;" d="M276.292683-128c-10.109175 0-19.623693 3.567944-27.354239 11.29849-14.866434 14.866434-14.866434 39.247387 0 54.113821l446.587688 446.587689L249.533101 830.587689c-14.866434 14.866434-14.866434 39.247387 0 54.113821s39.247387 14.866434 54.113821 0l473.941928-473.941928c14.866434-14.866434 14.866434-39.247387 0-54.113821l-473.941928-473.941928c-7.730546-7.135889-17.245064-10.703833-27.354239-10.703833z"  horiz-adv-x="1024" />

    
    <glyph glyph-name="mima" unicode="&#59003;" d="M877.129143 510.390857h-130.486857V660.772571C746.642286 790.674286 641.316571 896 511.414857 896S276.187429 790.674286 276.187429 660.772571v-150.381714H145.700571C105.325714 510.390857 72.557714 477.622857 72.557714 437.248v-492.105143c0-40.374857 32.768-73.142857 73.142857-73.142857h731.428572c40.374857 0 73.142857 32.768 73.142857 73.142857V437.248c0 40.374857-32.768 73.142857-73.142857 73.142857zM367.469714 660.772571c0 79.579429 64.365714 143.945143 143.945143 143.945143s143.945143-64.365714 143.945143-143.945143v-150.381714H367.469714V660.772571z m491.52-697.490285H163.84V419.108571h695.149714v-455.826285z"  horiz-adv-x="1024" />

    
    <glyph glyph-name="shangchu" unicode="&#59004;" d="M512-125.952C230.4-125.952 2.048 102.4 2.048 384S230.4 893.952 512 893.952 1021.952 665.6 1021.952 384 793.6-125.952 512-125.952z m0 582.144L367.616 600.064l-71.68-71.68L439.808 384l-144.384-144.384 72.192-72.192 144.384 144.384 144.384-144.384 72.192 72.192-144.384 144.384 144.384 144.384-72.192 72.192c0-0.512-144.384-144.384-144.384-144.384z"  horiz-adv-x="1024" />

    
    <glyph glyph-name="cuowu" unicode="&#59222;" d="M512 896A512 512 0 1 1 1024 384 513.501867 513.501867 0 0 1 512 896z m213.333333-665.6a42.257067 42.257067 0 1 0-59.733333-59.733333L512 324.266667l-153.6-153.6a42.257067 42.257067 0 0 0-59.733333 59.733333l153.6 153.6-153.6 153.6a42.257067 42.257067 0 0 0 59.733333 59.733333l153.6-153.6 153.6 153.6a42.257067 42.257067 0 0 0 59.733333-59.733333L571.733333 384z"  horiz-adv-x="1024" />

    
    <glyph glyph-name="word" unicode="&#59005;" d="M819.2 896H204.8C92.16 896 0 803.84 0 691.2v-614.4c0-112.64 92.16-204.8 204.8-204.8h614.4c112.64 0 204.8 92.16 204.8 204.8V691.2c0 112.64-92.16 204.8-204.8 204.8z m-119.296-745.984h-87.04l-88.576 327.68c-3.584 13.824-5.12 29.184-6.656 46.08h-1.536c-1.536-15.36-3.584-30.72-8.704-44.544l-88.576-327.68H327.68L196.096 619.52H281.6l85.504-343.04c3.584-13.824 5.12-29.184 6.656-44.544h1.536c1.536 10.24 3.584 25.6 8.704 44.544l95.744 343.04h80.384l88.576-346.624c3.584-11.776 5.12-25.6 6.656-40.96h1.536c0 10.24 3.584 25.6 6.656 42.496L747.52 619.52h80.384l-128-469.504z"  horiz-adv-x="1024" />

    
    <glyph glyph-name="Txt" unicode="&#59006;" d="M819.2 896H204.8C92.16 896 0 803.84 0 691.2v-614.4c0-112.64 92.16-204.8 204.8-204.8h614.4c112.64 0 204.8 92.16 204.8 204.8V691.2c0 112.64-92.16 204.8-204.8 204.8z m-121.344-332.8H552.96v-430.08H471.04V563.2H326.144V634.88h372.224v-71.68z"  horiz-adv-x="1024" />

    
    <glyph glyph-name="ppt" unicode="&#59007;" d="M819.2 896H204.8C92.16 896 0 803.84 0 691.2v-614.4c0-112.64 92.16-204.8 204.8-204.8h614.4c112.64 0 204.8 92.16 204.8 204.8V691.2c0 112.64-92.16 204.8-204.8 204.8z m-190.976-534.016c-32.256-30.72-76.8-46.08-133.12-46.08h-66.56v-180.736h-81.92V633.344h152.064c57.856 0 102.4-13.824 133.12-39.424 32.256-27.136 47.616-65.024 47.616-112.64-2.048-49.664-17.408-88.576-51.2-119.296zM487.936 564.736H428.544v-182.784H481.28c35.84 0 62.976 8.704 81.92 25.6 18.944 16.896 27.136 39.424 27.136 70.144 0 58.368-33.792 87.04-102.4 87.04z"  horiz-adv-x="1024" />

    
    <glyph glyph-name="PDF" unicode="&#59008;" d="M819.2 896H204.8C92.16 896 0 803.84 0 691.2v-614.4c0-112.64 92.16-204.8 204.8-204.8h614.4c112.64 0 204.8 92.16 204.8 204.8V691.2c0 112.64-92.16 204.8-204.8 204.8z m5.12-646.656c-5.12-8.704-13.824-13.824-24.064-16.896-6.656-1.536-13.824-1.536-20.48-1.536-42.496 0-111.104 20.48-165.376 51.2-70.144-10.24-148.48-29.184-218.624-51.2C332.8 121.344 286.72 75.264 244.224 75.264c-8.704 0-16.896 1.536-24.064 5.12l-15.36 6.656c-13.824 6.656-15.36 22.016-13.824 34.304 6.656 32.256 42.496 68.096 100.864 102.4 5.12 3.584 24.064 13.824 34.304 18.944l15.36 6.656c15.36 27.136 32.256 56.32 49.664 90.624l1.536 5.12C409.6 378.88 430.08 418.304 446.976 455.68l5.12 11.776C430.08 552.96 418.304 617.984 430.08 664.064c5.12 16.896 24.064 29.184 46.08 29.184h11.776c16.896 0 30.72-10.24 39.424-29.184l1.536-5.12c1.536-3.584 1.536-8.704 3.584-11.776 5.12-39.424-13.824-146.944-15.36-152.064l-5.12-10.24c16.896-47.616 46.08-90.624 80.384-122.88 11.776-11.776 27.136-20.48 42.496-29.184 34.304 5.12 66.56 6.656 92.16 6.656h6.656c46.08 0 73.216-6.656 88.576-22.016l1.536-1.536c5.12-5.12 6.656-11.776 8.704-16.896 3.584-20.992 0.512-37.888-8.192-49.664zM505.344 607.744c0 29.184-6.656 59.904-20.48 59.904-5.12 0-5.12-44.544-5.12-44.544 0-22.016 3.584-56.32 10.24-80.384 8.192 15.36 15.36 35.84 15.36 65.024zM239.104 111.104c18.944 8.704 47.616 35.84 92.16 103.936-5.12-5.12-10.24-8.704-15.36-13.824-40.96-33.792-70.144-71.68-76.8-90.112zM495.104 421.376c-8.704-20.48-18.944-44.544-35.84-76.8-6.656-13.824-13.824-25.6-20.48-35.84 35.84 13.824 76.8 25.6 122.88 34.304-3.584 1.536-6.656 5.12-8.704 6.656-22.016 20.48-40.96 44.544-57.856 71.68zM764.416 293.376c-22.016 5.12-29.184 5.12-51.2 5.12-11.776 0-27.136 0-40.96-1.536 39.424-16.896 68.096-27.136 90.624-27.136 6.656 0 16.896 1.536 22.016 3.584 2.048 4.608 2.048 14.848-20.48 19.968z"  horiz-adv-x="1024" />

    
    <glyph glyph-name="Excel" unicode="&#59009;" d="M819.2 896H204.8C92.16 896 0 803.84 0 691.2v-614.4c0-112.64 92.16-204.8 204.8-204.8h614.4c112.64 0 204.8 92.16 204.8 204.8V691.2c0 112.64-92.16 204.8-204.8 204.8z m-190.976-762.88l-102.4 184.32c-3.584 5.12-6.656 13.824-10.24 24.064h-1.536c-1.536-5.12-5.12-13.824-10.24-24.064l-105.984-184.32H296.96l163.84 252.416L308.736 634.88h102.4L501.76 465.92c5.12-11.776 11.776-22.016 15.36-34.304h1.536c6.656 15.36 11.776 25.6 16.896 35.84L629.76 634.88h93.696L568.32 385.536l158.72-252.416h-98.816z"  horiz-adv-x="1024" />

    
    <glyph glyph-name="guanbi1" unicode="&#58886;" d="M608.549 384.965l414.983 415.013a54.33 54.33 0 0 1 0 76.449l-2.282 2.253a54.33 54.33 0 0 1-76.42 0L529.818 463.11 114.805 878.68a54.33 54.33 0 0 1-76.42 0l-2.282-2.253a53.336 53.336 0 0 1 0-76.449l415.042-415.013L36.103-30.047a54.33 54.33 0 0 1 0-76.449l2.282-2.253a54.33 54.33 0 0 1 76.42 0l415.042 415.013 415.042-415.013a54.33 54.33 0 0 1 76.42 0l2.281 2.253a54.33 54.33 0 0 1 0 76.449L608.52 384.965z"  horiz-adv-x="1053" />

    
    <glyph glyph-name="chenggong" unicode="&#59010;" d="M512 896C228.864 896 0 667.136 0 384s228.864-512 512-512 512 228.864 512 512S795.136 896 512 896zM819.2 527.36l-351.744-361.984c-6.656-10.24-16.896-13.824-27.136-16.896-10.24 0-20.48 3.584-27.136 10.24L235.52 336.384c-13.824 13.824-13.824 37.376 0 51.2 6.656 6.656 16.896 10.24 24.064 10.24 10.24 0 16.896-3.584 24.064-10.24l150.016-153.6L768 574.976c10.24 10.24 16.896 13.824 27.136 13.824s16.896-3.584 24.064-10.24c13.824-13.824 13.824-37.376 0-51.2z"  horiz-adv-x="1024" />

    
    <glyph glyph-name="jiazaizhong" unicode="&#59013;" d="M782.043596-5.12c11.117714-18.724571 4.681143-43.300571-14.043429-53.248-18.724571-11.117714-42.715429-4.681143-53.248 14.043429-11.702857 18.139429-4.681143 42.715429 13.458286 53.248 19.309714 11.117714 42.715429 4.096 53.833143-14.043429z m-230.546286-83.675429c0-21.065143-17.554286-39.204571-39.789714-39.204571-21.065143 0-39.204571 17.554286-39.204572 39.204571v27.501715c0 21.650286 17.554286 39.204571 39.204572 39.204571s39.789714-17.554286 39.789714-39.204571v-27.501715z m-241.664 44.470858c-11.117714-19.309714-35.108571-25.746286-53.833143-14.628572-19.309714 10.532571-25.746286 34.523429-14.628571 53.833143l29.257143 50.907429c11.117714 18.724571 35.108571 25.161143 54.418285 14.628571 18.724571-11.117714 25.161143-35.108571 14.043429-53.833143l-29.257143-50.907428z m-187.245714 157.988571c-19.309714-10.532571-43.300571-4.096-53.833143 14.628571-11.117714 18.139429-4.681143 42.715429 14.043429 53.833143l78.409142 45.056c18.724571 10.532571 42.715429 4.681143 53.833143-14.628571 10.532571-18.724571 4.096-42.715429-14.628571-53.833143l-77.824-45.056zM39.49731 344.795429a39.204571 39.204571 0 0 0 0 78.409142h121.709714a39.204571 39.204571 0 0 0 0-78.409142H39.49731z m43.300572 241.664c-19.309714 10.532571-25.161143 34.523429-14.043429 53.248 10.532571 19.309714 34.523429 25.161143 53.833143 14.628571l132.242286-76.653714c18.724571-10.532571 25.161143-34.523429 14.628571-53.248-11.117714-19.309714-35.108571-25.161143-53.833143-14.628572L82.797882 586.459429z m159.158857 187.245714L333.824167 613.961143c11.117714-18.724571 35.108571-25.161143 53.833143-14.043429 18.724571 10.532571 24.576 35.108571 14.043429 53.833143L309.248167 812.909714c-10.532571 18.139429-34.523429 25.161143-53.248 14.043429-18.724571-10.532571-25.161143-34.523429-14.043428-53.248zM472.503024 856.795429c0 21.065143 17.554286 39.204571 39.204572 39.204571s39.789714-17.554286 39.789714-39.204571v-184.32c0-21.650286-17.554286-39.204571-39.789714-39.789715-21.065143 0-39.204571 17.554286-39.204572 39.789715V856.795429z m241.664-43.885715c11.117714 19.309714 35.108571 25.161143 53.833143 14.628572 18.724571-10.532571 25.746286-34.523429 14.628572-53.833143l-92.452572-160.329143c-10.532571-18.724571-35.108571-25.161143-53.248-14.628571-18.724571 11.117714-25.161143 35.108571-14.043428 53.833142L714.167024 812.909714z m187.830858-158.573714l-160.329143-92.452571c-18.724571-10.532571-25.161143-34.523429-14.628572-53.833143 11.117714-18.139429 35.108571-24.576 53.833143-14.043429l160.329143 92.452572c18.139429 10.532571 25.161143 34.523429 14.043429 53.248-11.117714 19.309714-35.108571 25.746286-53.248 14.628571z m81.92-231.131429c22.235429 0 39.204571-17.554286 39.204571-39.204571s-16.969143-39.204571-39.204571-39.204571h-184.905143c-21.065143 0-39.204571 17.554286-39.204572 39.204571s18.139429 39.204571 39.204572 39.204571h184.905143z"  horiz-adv-x="1024" />

    
    <glyph glyph-name="shangyiye" unicode="&#59014;" d="M512 896C229.376 896 0 666.624 0 384c0-282.112 229.376-512 512-512 282.112 0 512 229.376 512 512 0.512 282.624-229.376 512-512 512z m128-696.32c12.288-13.312 12.288-28.672-0.512-41.472-9.728-9.728-28.16-9.728-37.888 0l-214.016 208.896c0 3.072-3.072 3.072-3.072 3.072-6.144 3.072-9.728 12.8-9.728 18.944s3.072 15.872 9.728 18.944c0 3.072 3.072 3.072 3.072 3.072L604.16 609.28c9.728 9.728 28.16 9.728 37.888 0s9.728-28.16 0-37.888L441.344 390.144 640 199.68z"  horiz-adv-x="1024" />

    
    <glyph glyph-name="xiayiye" unicode="&#59016;" d="M512 896C229.376 896 0 666.624 0 384c0-282.112 229.376-512 512-512 282.112 0 512 229.376 512 512 0.512 282.624-229.376 512-512 512z m127.488-537.088c0-3.072-3.072-3.072-3.072-3.072L419.84 158.72c-9.728-9.728-28.16-9.728-37.888 0s-9.728 28.16 0 37.888l200.704 181.248L384 567.808c-12.288 13.312-12.288 28.672 0.512 41.472 9.728 9.728 28.16 9.728 37.888 0l214.016-208.896c0-3.072 3.072-3.072 3.072-3.072 6.144-3.072 9.728-12.8 9.728-18.944s-3.584-16.384-9.728-19.456z"  horiz-adv-x="1024" />

    
    <glyph glyph-name="arrow_down" unicode="&#58940;" d="M345.706 520h332.588c13.255 0 24-10.745 24-24a24 24 0 0 0-5.205-14.925L530.795 271.667c-8.243-10.38-23.34-12.112-33.72-3.87a24 24 0 0 0-3.87 3.87L326.911 481.075c-8.243 10.38-6.51 25.477 3.87 33.72A24 24 0 0 0 345.706 520z"  horiz-adv-x="1024" />

    
    <glyph glyph-name="diannao1" unicode="&#59173;" d="M1064.96 896H81.92C36.864 896 0 859.136 0 814.08v-655.36c0-45.056 36.864-81.92 81.92-81.92h409.6v-122.88H286.72c-22.528 0-40.96-18.432-40.96-40.96v-40.96h655.36v40.96c0 22.528-18.432 40.96-40.96 40.96h-204.8v122.88h409.6c45.056 0 81.92 36.864 81.92 81.92V814.08c0 45.056-36.864 81.92-81.92 81.92zM517.632 175.104c-1.024 30.72 23.04 56.832 53.76 57.856s56.832-24.064 57.856-55.296v-3.072c-1.024-30.72-27.136-49.152-57.856-48.128-29.184 1.024-52.736 17.408-53.76 46.592M92.16 803.84h962.56v-527.36H92.16V803.84z"  horiz-adv-x="1146" />

    
    <glyph glyph-name="gouxuan" unicode="&#59172;" d="M616.88232091 78.47962940000002c-17.81171408 0-36.11819752 6.92677754-49.97175258 20.28556325l-244.91106646 237.48951895c-28.20188009 27.70711073-29.19141999 73.22593494-1.48430925 101.42781502 27.70711073 28.20188009 73.22593494 29.19141999 101.42781505 1.48430928l193.94977393-188.50730508 417.58573724 417.58573722c28.20188009 28.20188009 73.22593494 28.20188009 101.42781563 0 28.20188009-28.20188009 28.20188009-73.22593494 0-101.42781563l-467.55749041-467.55749041c-13.85355506-13.85355506-32.16003911-20.7803326-50.46652315-20.7803326z"  horiz-adv-x="1434" />

    
    <glyph glyph-name="morentouxiang" unicode="&#59156;" d="M493.194733 896C222.115038 896 0 673.884962 0 402.805267S222.115038-90.389466 493.194733-90.389466 986.389466 131.725572 986.389466 402.805267 764.274428 896 493.194733 896zM500.29106 299.198891C593.252945 302.037422 652.862093 421.96535 652.862093 487.251559s0 180.246708-152.571033 180.246708S347.720028 551.828136 347.720028 486.541927c0-67.415107 62.447678-187.343035 152.571032-187.343036zM748.662509 206.237006c-37.610534 29.804574-150.442134 80.188496-150.442135 80.188496l-72.382536-132.701316-9.934858 32.643104 17.740818 42.577963-39.739432 39.739432-41.158697-39.739432 19.869716-39.739432-12.773389-32.643104-69.544006 134.830214s-112.831601-50.383922-150.442134-80.188496c-17.740818-14.902287-29.804574-42.577963-39.739432-67.415107 70.253638-82.317394 175.279279-135.539848 290.949411-135.539848 119.927928 0 227.7921 55.351351 295.91684 142.636175-8.515593 20.579349-20.579349 42.577963-38.320166 55.351351zM621.638254-128z"  horiz-adv-x="1024" />

    
    <glyph glyph-name="QQkongjian1" unicode="&#59166;" d="M512-127.488c-282.112 0-512 229.376-512 512S229.376 896 512 896s512-229.376 512-512-229.888-511.488-512-511.488zM801.28 449.024l-199.68 29.184L512 658.944 422.4 478.208l-199.68-28.672 144.384-141.312-34.304-198.656 178.688 93.696 178.688-94.208-33.792 199.168 144.896 140.8z m-408.064-166.912L549.376 409.6l-145.408 25.088h221.184L489.984 312.32l139.776-30.208c0.512-0.512-236.544 0-236.544 0z"  horiz-adv-x="1024" />

    
    <glyph glyph-name="QQ1" unicode="&#59167;" d="M512-127.488c-282.112 0-512 229.376-512 512S229.376 896 512 896s512-229.376 512-512-229.888-511.488-512-511.488zM717.312 318.464c-5.12 16.384-11.264 32.768-17.408 48.64L675.84 425.472c0 0.512 0.512 12.288 0.512 17.92 0 99.328-47.616 199.68-164.352 199.68s-164.352-99.84-164.352-199.68c0-6.144 0.512-17.408 0.512-17.92l-23.552-58.368c-6.144-16.384-12.288-32.256-17.408-48.64-22.016-70.656-14.848-100.352-9.728-100.864 11.776-1.536 46.08 53.248 46.08 53.248 0-31.744 16.384-73.216 52.224-103.424-13.312-4.096-29.696-10.24-40.448-17.92-9.728-7.168-8.192-13.824-6.656-16.896 7.68-12.288 128.512-8.192 163.328-4.096 34.816-3.584 155.648-8.192 163.328 4.096 1.536 3.072 3.072 9.728-6.656 16.896-10.24 7.68-27.136 13.824-40.448 17.92 35.84 29.696 52.224 71.68 52.224 103.424 0 0 34.304-54.784 46.08-53.248 5.632 0.512 12.8 30.208-9.216 100.864"  horiz-adv-x="1024" />

    
    <glyph glyph-name="weibo" unicode="&#59169;" d="M512-127.488c-282.112 0-512 229.376-512 512S229.376 896 512 896s512-229.376 512-512-229.888-511.488-512-511.488zM658.432 390.656c-23.552 4.608-12.288 17.408-12.288 17.408s23.04 38.912-4.608 67.072c-34.304 34.816-117.76-4.096-117.76-4.096-32.256-10.24-23.552 4.608-18.944 29.696 0 29.696-9.728 79.36-95.232 49.664-84.48-29.696-157.696-133.12-157.696-133.12-50.688-68.608-44.032-121.856-44.032-121.856 12.8-117.248 135.68-150.016 230.912-157.696 100.864-8.192 236.032 35.328 277.504 123.904 40.96 89.088-34.304 124.416-57.856 129.024z m-211.968-220.16c-99.84-4.608-180.224 46.08-180.224 114.176s80.896 121.856 180.224 126.464 180.736-37.376 180.736-104.448c-0.512-67.584-81.408-131.584-180.736-136.192z m-19.968 196.096c-100.352-11.776-88.576-107.52-88.576-107.52s-1.024-30.208 27.136-45.568c58.88-32.256 119.296-12.8 150.016 27.648 29.696 39.936 11.776 137.728-88.576 125.44z m-25.6-134.144c-18.944-2.56-33.792 8.704-33.792 24.576s13.312 32.256 32.256 34.304c21.504 2.048 35.328-10.24 35.328-26.624 0-15.36-14.848-29.696-33.792-32.256z m306.688 199.68c8.192 0 14.848 6.144 16.384 14.336 0.512 0.512 0.512 1.024 0.512 1.536 12.288 112.128-90.112 92.672-90.112 92.672-9.216 0-16.384-7.68-16.384-16.896s7.168-16.896 16.384-16.896c73.728 16.384 57.344-58.368 57.344-58.368-1.024-8.704 6.144-16.384 15.872-16.384z m-12.288 195.584c-35.328 8.192-72.192 1.024-81.92-1.024-1.024 0-1.536-1.024-2.56-1.024-0.512 0-0.512-0.512-0.512-0.512-10.24-3.072-17.408-12.288-17.408-23.552 0-13.312 10.752-24.064 24.064-24.064 0 0 12.8 1.536 21.504 5.12 8.704 3.584 81.92 2.56 118.784-59.392 19.968-45.568 8.704-75.776 7.168-80.896 0 0-4.608-11.776-4.608-23.552 0-13.312 10.752-22.016 23.552-22.016 10.752 0 20.48 1.536 23.04 20.48h0.512c38.912 133.12-48.128 195.072-111.616 210.432z"  horiz-adv-x="1024" />

    
    <glyph glyph-name="douban1" unicode="&#59170;" d="M512-127.488c-282.112 0-512 229.376-512 512S229.376 896 512 896s512-229.376 512-512-229.888-511.488-512-511.488zM643.072 499.2c-43.52 0.512-86.528 0-130.048 0-44.032 0-88.576 0.512-132.608 0-43.52-0.512-63.488-20.992-64-65.024-0.512-19.456-0.512-38.912 0-58.368 1.024-38.4 22.016-60.928 59.904-60.928 90.112-0.512 180.224-0.512 270.848 0 36.864 0.512 58.368 21.504 59.904 58.368 1.024 20.992 1.024 41.984 0.512 63.488-1.536 41.472-22.528 61.44-64.512 62.464z m17.92-109.568c-1.024-20.992-7.68-28.16-28.672-28.672-28.672-1.024-56.832-0.512-85.504-0.512h-35.84c-37.888 0-75.264-0.512-113.152 0-29.184 0.512-34.816 6.656-35.328 36.352 0 10.24-0.512 20.48 0.512 30.208 1.024 17.408 8.192 25.6 26.112 25.6 81.92 0.512 163.84 0.512 245.76 0 18.944 0 26.112-8.192 27.136-27.648-0.512-11.264-0.512-23.04-1.024-35.328z m47.104-178.688c-22.016 0.512-44.032 0-66.048 0.512-5.632 0-11.776 1.536-18.944 3.072 4.608 9.216 7.68 15.36 11.264 22.016 3.584 6.144 7.168 12.8 10.752 18.944 5.632 9.728 6.144 18.944-1.024 28.16-10.752 13.312-27.648 11.776-38.912-5.632-10.752-16.896-20.992-34.816-30.208-52.736-5.632-10.24-12.288-14.848-24.064-14.336-26.624 1.024-53.248 0.512-79.872 0-10.24-0.512-16.896 3.584-22.016 12.8-9.216 16.896-18.944 33.792-28.672 50.176-10.752 17.408-20.992 21.504-33.28 15.36-14.336-7.168-16.384-19.456-7.168-37.376 6.144-12.288 13.312-23.552 23.04-40.96H344.576c-12.8 0-25.6 0.512-38.912-0.512-14.848-1.024-23.552-9.216-24.064-21.504-0.512-13.824 8.192-22.016 25.088-23.552 6.144-0.512 12.8-0.512 19.456-0.512H706.56c23.552 0.512 34.304 7.168 34.816 22.016 1.024 15.872-9.728 23.552-33.28 24.064zM340.48 557.568c56.832-0.512 114.176 0 171.008 0h110.592c24.064 0 48.128-0.512 71.68 0.512 16.896 0.512 25.088 9.728 24.576 23.552-0.512 12.288-9.216 20.48-24.064 21.504-3.584 0.512-7.168 0.512-10.752 0.512h-343.04c-25.088 0-36.352-7.68-35.328-24.064 1.024-15.872 10.752-22.016 35.328-22.016z"  horiz-adv-x="1024" />

    
    <glyph glyph-name="weixin1" unicode="&#59171;" d="M512-126.976C229.888-126.976 0.512 102.4 0.512 384.512S229.888 896 512 896s511.488-229.376 511.488-511.488-229.376-511.488-511.488-511.488zM747.008 204.8c36.864 26.112 59.904 65.536 59.392 108.544 0 79.872-76.8 143.872-172.544 143.872S460.8 393.216 460.8 313.344s77.312-143.872 173.056-143.872c19.456 0 38.4 2.56 56.32 7.68 1.536 0.512 3.072 0.512 5.12 0.512 3.072-0.512 6.144-1.024 8.704-2.56l37.888-22.016c1.024-0.512 1.536-1.024 3.072-1.024 3.072 0 5.632 2.56 5.632 5.632 0 1.536-0.512 2.56-0.512 4.608 0 0.512-5.12 17.92-7.68 28.672-0.512 1.024-0.512 2.56-0.512 3.584 0 4.608 2.048 8.192 5.12 10.24zM568.32 336.384c-13.312 0-23.552 10.24-23.552 23.552 0 12.8 10.24 23.552 23.552 23.552 12.8 0 23.552-10.24 23.552-23.552 0-12.8-10.752-23.04-23.552-23.552z m115.712 0c-12.8 0-23.552 10.24-23.552 23.552s10.24 23.552 23.552 23.552 23.552-10.24 23.552-23.552c-0.512-12.8-10.752-23.04-23.552-23.552zM432.128 616.448c-114.688 0-207.872-77.312-207.872-172.544 0-51.712 27.648-98.304 72.192-130.048 3.584-2.56 5.632-7.168 5.632-11.776 0-1.536-0.512-3.072-0.512-4.608-3.072-12.8-8.704-34.304-9.728-34.816-0.512-2.048-1.024-3.072-1.024-5.12 0-3.584 3.072-7.168 7.168-7.168 1.024 0 2.56 1.024 3.584 1.536l45.568 26.112c3.584 2.048 7.168 3.072 10.752 3.072 2.048 0 3.584 0 5.632-0.512 22.016-6.144 44.544-9.216 67.584-9.728h2.56c-4.096 13.312-6.144 27.648-6.144 41.984 0 95.232 90.112 169.984 198.656 169.984h7.168c-19.968 76.8-102.912 133.632-201.216 133.632zM361.984 472.064c-14.848 0-26.624 11.776-26.624 26.624s11.776 26.624 26.624 26.624 26.624-11.776 26.624-26.624c0-13.824-11.776-26.624-26.624-26.624z m137.216 0c-14.848 0-26.624 11.776-26.624 26.624s11.776 26.624 26.624 26.624 26.624-11.776 26.624-26.624c0.512-13.824-11.264-26.624-26.624-26.624z"  horiz-adv-x="1024" />

    


  </font>
</defs>
</svg>
